<?xml version="1.0" standalone="no"?><svg xmlns:xlink="http://www.w3.org/1999/xlink" xmlns="http://www.w3.org/2000/svg" viewBox="0 0 1000 300" preserveAspectRatio="xMaxYMax slice"><g transform="scale(0.9009009009009009)"><rect x="0" y="0" width="1110" height="333" fill="#e3e3e3"/><rect x="0" y="0" width="55.5" height="55.5" fill="#e3e3e3"/><rect x="0" y="0" width="27.75" height="27.75" fill="#5028ab"/><path d="M 0 27.75 A 27.75 27.75 0 0 1 27.75 0 L 27.75 6.9375 A 20.8125 20.8125 0 0 0 6.9375 27.75" fill="#846abf"/><rect x="27.75" y="0" width="27.75" height="27.75" fill="#3e11a5"/><path d="M 27.75 0 A 27.75 27.75 0 0 1 55.5 27.75 L 48.5625 27.75 A 20.8125 20.8125 0 0 0 27.75 6.9375" fill="#8166be"/><rect x="0" y="27.75" width="27.75" height="27.75" fill="#b4a7d1"/><path d="M 0 27.75 A 27.75 27.75 0 0 0 27.75 55.5 L 27.75 48.5625 A 20.8125 20.8125 0 0 1 6.9375 27.75" fill="#9d8ac9"/><rect x="27.75" y="27.75" width="27.75" height="27.75" fill="#a392cb"/><path d="M 27.75 55.5 A 27.75 27.75 0 0 0 55.5 27.75 L 48.5625 27.75 A 20.8125 20.8125 0 0 1 27.75 48.5625" fill="#b4a7d1"/><rect x="55.5" y="0" width="55.5" height="55.5" fill="#beb4d5"/><rect x="55.5" y="0" width="55.5" height="55.5" fill="#5833ae"/><rect x="111" y="0" width="55.5" height="55.5" fill="#e3e3e3"/><rect x="111" y="0" width="27.75" height="27.75" fill="#5129ac"/><polygon points="138.75,0 138.75,27.75 111,27.75" fill="#7253b8"/><rect x="138.75" y="0" width="27.75" height="27.75" fill="#a797cc"/><polygon points="138.75,0 166.5,27.75 138.75,27.75" fill="#795cbb"/><rect x="111" y="27.75" width="27.75" height="27.75" fill="#8f78c3"/><polygon points="111,27.75 138.75,27.75 138.75,55.5" fill="#4418a7"/><rect x="138.75" y="27.75" width="27.75" height="27.75" fill="#cec8db"/><polygon points="138.75,27.75 166.5,27.75 138.75,55.5" fill="#3d10a4"/><rect x="166.5" y="0" width="55.5" height="55.5" fill="#e3e3e3"/><rect x="166.5" y="0" width="27.75" height="27.75" fill="#7455b9"/><circle cx="180.375" cy="13.875" r="13.875" fill="#4013a5"/><rect x="194.25" y="0" width="27.75" height="27.75" fill="#a999cd"/><rect x="194.25" y="0" width="27.75" height="27.75" fill="#d2cddc"/><rect x="166.5" y="27.75" width="27.75" height="27.75" fill="#b1a4d0"/><circle cx="180.375" cy="41.625" r="13.875" fill="#5c37b0"/><rect x="194.25" y="27.75" width="27.75" height="27.75" fill="#cdc6db"/><rect x="194.25" y="27.75" width="27.75" height="27.75" fill="#b2a4d0"/><rect x="222" y="0" width="55.5" height="55.5" fill="#7051b8"/><polygon points="277.5,0 277.5,55.5 222,55.5" fill="#6b4ab5"/><rect x="277.5" y="0" width="55.5" height="55.5" fill="#e3e3e3"/><rect x="277.5" y="0" width="27.75" height="27.75" fill="#dcdbe0"/><polygon points="305.25,0 305.25,27.75 277.5,27.75" fill="#c7c0d9"/><rect x="305.25" y="0" width="27.75" height="27.75" fill="#6948b5"/><polygon points="305.25,0 333,27.75 305.25,27.75" fill="#927cc4"/><rect x="277.5" y="27.75" width="27.75" height="27.75" fill="#6644b4"/><polygon points="277.5,27.75 305.25,27.75 305.25,55.5" fill="#c2b9d6"/><rect x="305.25" y="27.75" width="27.75" height="27.75" fill="#e0dfe2"/><polygon points="305.25,27.75 333,27.75 305.25,55.5" fill="#dfdee1"/><rect x="333" y="0" width="55.5" height="55.5" fill="#b5a8d1"/><polygon points="333,0 388.5,55.5 333,55.5" fill="#917bc4"/><rect x="388.5" y="0" width="55.5" height="55.5" fill="#e3e3e3"/><rect x="388.5" y="0" width="27.75" height="27.75" fill="#5028ab"/><path d="M 388.5 0 A 27.75 27.75 0 0 1 416.25 27.75 L 388.5 27.75L388.5 0" fill="#9e8cc9"/><rect x="416.25" y="0" width="27.75" height="27.75" fill="#5a34af"/><path d="M 416.25 27.75 A 27.75 27.75 0 0 1  444 0 L 444 27.75L416.25 27.75" fill="#b3a6d1"/><rect x="388.5" y="27.75" width="27.75" height="27.75" fill="#512aac"/><path d="M 388.5 55.5 A 27.75 27.75 0 0 0 416.25 27.75 L 388.5 27.75L388.5 55.5" fill="#7051b7"/><rect x="416.25" y="27.75" width="27.75" height="27.75" fill="#7051b7"/><path d="M 416.25 27.75 A 27.75 27.75 0 0 0 444 55.5 L 444 27.75L416.25 27.75" fill="#4014a5"/><rect x="444" y="0" width="55.5" height="55.5" fill="#461ba8"/><path d="M 444 0 A 55.5 55.5 0 0 1  499.5 55.5 L 444 0 A 55.5 55.5 0 0 0 499.5 55.5" fill="#7c5fbc"/><rect x="499.5" y="0" width="55.5" height="55.5" fill="#e3e3e3"/><rect x="499.5" y="0" width="27.75" height="27.75" fill="#c2bad7"/><polygon points="527.25,0 527.25,27.75 499.5,27.75" fill="#6d4db6"/><rect x="527.25" y="0" width="27.75" height="27.75" fill="#9c89c8"/><polygon points="527.25,0 555,27.75 527.25,27.75" fill="#6d4cb6"/><rect x="499.5" y="27.75" width="27.75" height="27.75" fill="#bbb0d4"/><polygon points="499.5,27.75 527.25,27.75 527.25,55.5" fill="#937ec5"/><rect x="527.25" y="27.75" width="27.75" height="27.75" fill="#3b0da3"/><polygon points="527.25,27.75 555,27.75 527.25,55.5" fill="#7e63bd"/><rect x="555" y="0" width="55.5" height="55.5" fill="#e3e3e3"/><rect x="555" y="0" width="27.75" height="27.75" fill="#6c4cb6"/><path d="M 555 27.75 A 27.75 27.75 0 0 1 582.75 0 L 582.75 6.9375 A 20.8125 20.8125 0 0 0 561.9375 27.75" fill="#6745b4"/><rect x="582.75" y="0" width="27.75" height="27.75" fill="#c8c0d9"/><path d="M 582.75 0 A 27.75 27.75 0 0 1 610.5 27.75 L 603.5625 27.75 A 20.8125 20.8125 0 0 0 582.75 6.9375" fill="#7c60bc"/><rect x="555" y="27.75" width="27.75" height="27.75" fill="#ccc6da"/><path d="M 555 27.75 A 27.75 27.75 0 0 0 582.75 55.5 L 582.75 48.5625 A 20.8125 20.8125 0 0 1 561.9375 27.75" fill="#5b37b0"/><rect x="582.75" y="27.75" width="27.75" height="27.75" fill="#c2b9d6"/><path d="M 582.75 55.5 A 27.75 27.75 0 0 0 610.5 27.75 L 603.5625 27.75 A 20.8125 20.8125 0 0 1 582.75 48.5625" fill="#491fa9"/><rect x="610.5" y="0" width="55.5" height="55.5" fill="#4418a7"/><rect x="610.5" y="0" width="55.5" height="55.5" fill="#c8c0d9"/><rect x="666" y="0" width="55.5" height="55.5" fill="#e3e3e3"/><rect x="666" y="0" width="27.75" height="27.75" fill="#775aba"/><polygon points="693.75,0 693.75,27.75 666,27.75" fill="#4b21a9"/><rect x="693.75" y="0" width="27.75" height="27.75" fill="#d4d0dd"/><polygon points="693.75,0 721.5,27.75 693.75,27.75" fill="#4d24aa"/><rect x="666" y="27.75" width="27.75" height="27.75" fill="#4419a7"/><polygon points="666,27.75 693.75,27.75 666,55.5" fill="#d2cedd"/><rect x="693.75" y="27.75" width="27.75" height="27.75" fill="#a290ca"/><polygon points="693.75,27.75 721.5,27.75 721.5,55.5" fill="#6f50b7"/><rect x="721.5" y="0" width="55.5" height="55.5" fill="#8268be"/><path d="M 721.5 0 A 55.5 55.5 0 0 1  777 55.5 L 721.5 0 A 55.5 55.5 0 0 0 777 55.5" fill="#4116a6"/><rect x="777" y="0" width="55.5" height="55.5" fill="#e3e3e3"/><rect x="777" y="0" width="27.75" height="27.75" fill="#6543b3"/><path d="M 777 27.75 A 27.75 27.75 0 0 0 804.75 0 L 777 0L777 27.75" fill="#4a21a9"/><rect x="804.75" y="0" width="27.75" height="27.75" fill="#7658ba"/><path d="M 804.75 0 A 27.75 27.75 0 0 0 832.5 27.75 L 832.5 0L804.75 0" fill="#4b22a9"/><rect x="777" y="27.75" width="27.75" height="27.75" fill="#d8d5df"/><path d="M 777 27.75 A 27.75 27.75 0 0 1 804.75 55.5 L 777 55.5L777 27.75" fill="#917ac4"/><rect x="804.75" y="27.75" width="27.75" height="27.75" fill="#451aa7"/><path d="M 804.75 55.5 A 27.75 27.75 0 0 1  832.5 27.75 L 832.5 55.5L804.75 55.5" fill="#6b4bb6"/><rect x="832.5" y="0" width="55.5" height="55.5" fill="#ab9cce"/><path d="M 832.5 0 A 55.5 55.5 0 0 1  888 55.5 L 832.5 0 A 55.5 55.5 0 0 0 888 55.5" fill="#7456b9"/><rect x="888" y="0" width="55.5" height="55.5" fill="#a595cc"/><rect x="888" y="0" width="55.5" height="55.5" fill="#6442b3"/><rect x="943.5" y="0" width="55.5" height="55.5" fill="#e3e3e3"/><rect x="943.5" y="0" width="27.75" height="27.75" fill="#c4bcd7"/><polygon points="971.25,0 971.25,27.75 943.5,27.75" fill="#d8d5df"/><rect x="971.25" y="0" width="27.75" height="27.75" fill="#d4d1dd"/><polygon points="971.25,0 999,27.75 971.25,27.75" fill="#b7abd2"/><rect x="943.5" y="27.75" width="27.75" height="27.75" fill="#937dc5"/><polygon points="943.5,27.75 971.25,27.75 943.5,55.5" fill="#8971c1"/><rect x="971.25" y="27.75" width="27.75" height="27.75" fill="#7f64bd"/><polygon points="971.25,27.75 999,27.75 999,55.5" fill="#5027ab"/><rect x="999" y="0" width="55.5" height="55.5" fill="#beb3d5"/><path d="M 999 55.5 A 55.5 55.5 0 0 1  1054.5 0 L 1054.5 55.5L999 55.5" fill="#522bac"/><rect x="1054.5" y="0" width="55.5" height="55.5" fill="#e3e3e3"/><rect x="1054.5" y="0" width="27.75" height="27.75" fill="#613db2"/><path d="M 1054.5 0 A 27.75 27.75 0 0 1 1082.25 27.75 L 1054.5 27.75L1054.5 0" fill="#7254b8"/><rect x="1082.25" y="0" width="27.75" height="27.75" fill="#ab9cce"/><path d="M 1082.25 27.75 A 27.75 27.75 0 0 1  1110 0 L 1110 27.75L1082.25 27.75" fill="#b8acd3"/><rect x="1054.5" y="27.75" width="27.75" height="27.75" fill="#4b22a9"/><path d="M 1054.5 55.5 A 27.75 27.75 0 0 0 1082.25 27.75 L 1054.5 27.75L1054.5 55.5" fill="#5731ae"/><rect x="1082.25" y="27.75" width="27.75" height="27.75" fill="#532bac"/><path d="M 1082.25 27.75 A 27.75 27.75 0 0 0 1110 55.5 L 1110 27.75L1082.25 27.75" fill="#bdb3d5"/><rect x="0" y="55.5" width="55.5" height="55.5" fill="#8369bf"/><path d="M 0 55.5 A 55.5 55.5 0 0 1 55.5 111 L 0 111L0 55.5" fill="#856cc0"/><rect x="55.5" y="55.5" width="55.5" height="55.5" fill="#532cac"/><rect x="55.5" y="55.5" width="55.5" height="55.5" fill="#e1e0e2"/><rect x="111" y="55.5" width="55.5" height="55.5" fill="#e3e3e3"/><rect x="111" y="55.5" width="27.75" height="27.75" fill="#461ba8"/><polygon points="138.75,55.5 138.75,83.25 111,83.25" fill="#bdb3d5"/><rect x="138.75" y="55.5" width="27.75" height="27.75" fill="#d8d4df"/><polygon points="138.75,55.5 166.5,55.5 138.75,83.25" fill="#e2e1e2"/><rect x="111" y="83.25" width="27.75" height="27.75" fill="#6341b3"/><polygon points="111,83.25 138.75,83.25 138.75,111" fill="#6847b5"/><rect x="138.75" y="83.25" width="27.75" height="27.75" fill="#6948b5"/><polygon points="138.75,83.25 166.5,111 138.75,111" fill="#b3a6d1"/><rect x="166.5" y="55.5" width="55.5" height="55.5" fill="#e3e3e3"/><rect x="166.5" y="55.5" width="27.75" height="27.75" fill="#c5bcd7"/><circle cx="180.375" cy="69.375" r="13.875" fill="#6340b3"/><rect x="194.25" y="55.5" width="27.75" height="27.75" fill="#7051b8"/><rect x="194.25" y="55.5" width="27.75" height="27.75" fill="#a797cc"/><rect x="166.5" y="83.25" width="27.75" height="27.75" fill="#beb4d5"/><circle cx="180.375" cy="97.125" r="13.875" fill="#a695cc"/><rect x="194.25" y="83.25" width="27.75" height="27.75" fill="#4217a6"/><rect x="194.25" y="83.25" width="27.75" height="27.75" fill="#a08eca"/><rect x="222" y="55.5" width="55.5" height="55.5" fill="#e3e3e3"/><rect x="222" y="55.5" width="27.75" height="27.75" fill="#5e3ab1"/><polygon points="249.75,55.5 249.75,83.25 222,83.25" fill="#b6aad2"/><rect x="249.75" y="55.5" width="27.75" height="27.75" fill="#c5bdd8"/><polygon points="249.75,55.5 277.5,83.25 249.75,83.25" fill="#ccc6da"/><rect x="222" y="83.25" width="27.75" height="27.75" fill="#b8acd3"/><polygon points="222,83.25 249.75,83.25 222,111" fill="#d8d5df"/><rect x="249.75" y="83.25" width="27.75" height="27.75" fill="#d9d6df"/><polygon points="249.75,83.25 277.5,83.25 277.5,111" fill="#8c74c2"/><rect x="277.5" y="55.5" width="55.5" height="55.5" fill="#e3e3e3"/><rect x="277.5" y="55.5" width="27.75" height="27.75" fill="#8d76c3"/><path d="M 277.5 55.5 A 27.75 27.75 0 0 0 305.25 83.25 L 305.25 55.5L277.5 55.5" fill="#c7bfd8"/><rect x="305.25" y="55.5" width="27.75" height="27.75" fill="#6d4db6"/><path d="M 305.25 83.25 A 27.75 27.75 0 0 0 333 55.5 L 305.25 55.5L305.25 83.25" fill="#c4bbd7"/><rect x="277.5" y="83.25" width="27.75" height="27.75" fill="#5731ae"/><path d="M 277.5 111 A 27.75 27.75 0 0 1  305.25 83.25 L 305.25 111L277.5 111" fill="#7355b9"/><rect x="305.25" y="83.25" width="27.75" height="27.75" fill="#b3a6d1"/><path d="M 305.25 83.25 A 27.75 27.75 0 0 1 333 111 L 305.25 111L305.25 83.25" fill="#c0b7d6"/><rect x="333" y="55.5" width="55.5" height="55.5" fill="#e3e3e3"/><rect x="333" y="55.5" width="27.75" height="27.75" fill="#6947b5"/><path d="M 333 55.5 A 27.75 27.75 0 0 1 360.75 83.25 L 333 83.25L333 55.5" fill="#7051b7"/><rect x="360.75" y="55.5" width="27.75" height="27.75" fill="#4216a6"/><path d="M 360.75 83.25 A 27.75 27.75 0 0 1  388.5 55.5 L 388.5 83.25L360.75 83.25" fill="#c4bcd7"/><rect x="333" y="83.25" width="27.75" height="27.75" fill="#d5d2de"/><path d="M 333 111 A 27.75 27.75 0 0 0 360.75 83.25 L 333 83.25L333 111" fill="#866dc0"/><rect x="360.75" y="83.25" width="27.75" height="27.75" fill="#c6bfd8"/><path d="M 360.75 83.25 A 27.75 27.75 0 0 0 388.5 111 L 388.5 83.25L360.75 83.25" fill="#5e3ab1"/><rect x="388.5" y="55.5" width="55.5" height="55.5" fill="#e3e3e3"/><rect x="388.5" y="55.5" width="27.75" height="27.75" fill="#cbc4da"/><polygon points="416.25,55.5 416.25,83.25 388.5,83.25" fill="#e0dfe2"/><rect x="416.25" y="55.5" width="27.75" height="27.75" fill="#a392cb"/><polygon points="416.25,55.5 444,55.5 416.25,83.25" fill="#532cad"/><rect x="388.5" y="83.25" width="27.75" height="27.75" fill="#a492cb"/><polygon points="388.5,83.25 416.25,83.25 416.25,111" fill="#c4bcd7"/><rect x="416.25" y="83.25" width="27.75" height="27.75" fill="#7c60bc"/><polygon points="416.25,83.25 444,111 416.25,111" fill="#d5d2de"/><rect x="444" y="55.5" width="55.5" height="55.5" fill="#5b36b0"/><rect x="444" y="55.5" width="55.5" height="55.5" fill="#c2b8d6"/><rect x="499.5" y="55.5" width="55.5" height="55.5" fill="#e3e3e3"/><rect x="499.5" y="55.5" width="27.75" height="27.75" fill="#e3e3e3"/><path d="M 499.5 55.5 A 27.75 27.75 0 0 1 527.25 83.25 L 499.5 83.25L499.5 55.5" fill="#4c23aa"/><rect x="527.25" y="55.5" width="27.75" height="27.75" fill="#4e26ab"/><path d="M 527.25 83.25 A 27.75 27.75 0 0 1  555 55.5 L 555 83.25L527.25 83.25" fill="#6e4eb7"/><rect x="499.5" y="83.25" width="27.75" height="27.75" fill="#461ca8"/><path d="M 499.5 111 A 27.75 27.75 0 0 0 527.25 83.25 L 499.5 83.25L499.5 111" fill="#5b35af"/><rect x="527.25" y="83.25" width="27.75" height="27.75" fill="#9d8ac9"/><path d="M 527.25 83.25 A 27.75 27.75 0 0 0 555 111 L 555 83.25L527.25 83.25" fill="#623fb2"/><rect x="555" y="55.5" width="55.5" height="55.5" fill="#e3e3e3"/><rect x="555" y="55.5" width="27.75" height="27.75" fill="#6745b4"/><path d="M 555 55.5 A 27.75 27.75 0 0 1 582.75 83.25 L 555 83.25L555 55.5" fill="#9f8dc9"/><rect x="582.75" y="55.5" width="27.75" height="27.75" fill="#9a86c7"/><path d="M 582.75 83.25 A 27.75 27.75 0 0 1  610.5 55.5 L 610.5 83.25L582.75 83.25" fill="#c3bbd7"/><rect x="555" y="83.25" width="27.75" height="27.75" fill="#623eb2"/><path d="M 555 111 A 27.75 27.75 0 0 0 582.75 83.25 L 555 83.25L555 111" fill="#7658ba"/><rect x="582.75" y="83.25" width="27.75" height="27.75" fill="#beb4d5"/><path d="M 582.75 83.25 A 27.75 27.75 0 0 0 610.5 111 L 610.5 83.25L582.75 83.25" fill="#5832ae"/><rect x="610.5" y="55.5" width="55.5" height="55.5" fill="#e3e3e3"/><rect x="610.5" y="55.5" width="27.75" height="27.75" fill="#7557b9"/><path d="M 610.5 83.25 A 27.75 27.75 0 0 1 638.25 55.5 L 638.25 62.4375 A 20.8125 20.8125 0 0 0 617.4375 83.25" fill="#5731ae"/><rect x="638.25" y="55.5" width="27.75" height="27.75" fill="#bcb2d4"/><path d="M 638.25 55.5 A 27.75 27.75 0 0 1 666 83.25 L 659.0625 83.25 A 20.8125 20.8125 0 0 0 638.25 62.4375" fill="#bcb2d4"/><rect x="610.5" y="83.25" width="27.75" height="27.75" fill="#5028ab"/><path d="M 610.5 83.25 A 27.75 27.75 0 0 0 638.25 111 L 638.25 104.0625 A 20.8125 20.8125 0 0 1 617.4375 83.25" fill="#a291cb"/><rect x="638.25" y="83.25" width="27.75" height="27.75" fill="#6947b5"/><path d="M 638.25 111 A 27.75 27.75 0 0 0 666 83.25 L 659.0625 83.25 A 20.8125 20.8125 0 0 1 638.25 104.0625" fill="#917ac4"/><rect x="666" y="55.5" width="55.5" height="55.5" fill="#481da8"/><polygon points="666,55.5 721.5,111 666,111" fill="#3c0fa4"/><rect x="721.5" y="55.5" width="55.5" height="55.5" fill="#471ca8"/><rect x="721.5" y="55.5" width="55.5" height="55.5" fill="#5f3cb1"/><rect x="777" y="55.5" width="55.5" height="55.5" fill="#e3e3e3"/><rect x="777" y="55.5" width="27.75" height="27.75" fill="#cfcadb"/><path d="M 777 83.25 A 27.75 27.75 0 0 1  804.75 55.5 L 804.75 83.25L777 83.25" fill="#4a20a9"/><rect x="804.75" y="55.5" width="27.75" height="27.75" fill="#3c0ea4"/><path d="M 804.75 55.5 A 27.75 27.75 0 0 1 832.5 83.25 L 804.75 83.25L804.75 55.5" fill="#5d39b0"/><rect x="777" y="83.25" width="27.75" height="27.75" fill="#4013a5"/><path d="M 777 83.25 A 27.75 27.75 0 0 0 804.75 111 L 804.75 83.25L777 83.25" fill="#d9d6df"/><rect x="804.75" y="83.25" width="27.75" height="27.75" fill="#8d75c2"/><path d="M 804.75 111 A 27.75 27.75 0 0 0 832.5 83.25 L 804.75 83.25L804.75 111" fill="#4e25ab"/><rect x="832.5" y="55.5" width="55.5" height="55.5" fill="#5933af"/><rect x="832.5" y="55.5" width="55.5" height="55.5" fill="#6644b4"/><rect x="888" y="55.5" width="55.5" height="55.5" fill="#e3e3e3"/><rect x="888" y="55.5" width="27.75" height="27.75" fill="#d1ccdc"/><polygon points="915.75,55.5 915.75,83.25 888,83.25" fill="#d0cbdc"/><rect x="915.75" y="55.5" width="27.75" height="27.75" fill="#552ead"/><polygon points="915.75,55.5 943.5,83.25 915.75,83.25" fill="#8066be"/><rect x="888" y="83.25" width="27.75" height="27.75" fill="#4317a6"/><polygon points="888,83.25 915.75,83.25 915.75,111" fill="#dcdae0"/><rect x="915.75" y="83.25" width="27.75" height="27.75" fill="#5f3cb1"/><polygon points="915.75,83.25 943.5,83.25 915.75,111" fill="#522bac"/><rect x="943.5" y="55.5" width="55.5" height="55.5" fill="#8a72c1"/><polygon points="943.5,55.5 999,111 943.5,111" fill="#b2a4d0"/><rect x="999" y="55.5" width="55.5" height="55.5" fill="#e3e3e3"/><rect x="999" y="55.5" width="27.75" height="27.75" fill="#4a20a9"/><circle cx="1012.875" cy="69.375" r="13.875" fill="#ae9fcf"/><rect x="1026.75" y="55.5" width="27.75" height="27.75" fill="#9c89c8"/><rect x="1026.75" y="55.5" width="27.75" height="27.75" fill="#6a49b5"/><rect x="999" y="83.25" width="27.75" height="27.75" fill="#552ead"/><circle cx="1012.875" cy="97.125" r="13.875" fill="#4419a7"/><rect x="1026.75" y="83.25" width="27.75" height="27.75" fill="#3c0ea4"/><rect x="1026.75" y="83.25" width="27.75" height="27.75" fill="#7e63bd"/><rect x="1054.5" y="55.5" width="55.5" height="55.5" fill="#e3e3e3"/><rect x="1054.5" y="55.5" width="27.75" height="27.75" fill="#dcdae0"/><path d="M 1054.5 83.25 A 27.75 27.75 0 0 1  1082.25 55.5 L 1082.25 83.25L1054.5 83.25" fill="#a391cb"/><rect x="1082.25" y="55.5" width="27.75" height="27.75" fill="#8c74c2"/><path d="M 1082.25 55.5 A 27.75 27.75 0 0 1 1110 83.25 L 1082.25 83.25L1082.25 55.5" fill="#a898cd"/><rect x="1054.5" y="83.25" width="27.75" height="27.75" fill="#b6a9d2"/><path d="M 1054.5 83.25 A 27.75 27.75 0 0 0 1082.25 111 L 1082.25 83.25L1054.5 83.25" fill="#cdc7db"/><rect x="1082.25" y="83.25" width="27.75" height="27.75" fill="#471ca8"/><path d="M 1082.25 111 A 27.75 27.75 0 0 0 1110 83.25 L 1082.25 83.25L1082.25 111" fill="#9f8cc9"/><rect x="0" y="111" width="55.5" height="55.5" fill="#e3e3e3"/><rect x="0" y="111" width="27.75" height="27.75" fill="#bdb2d5"/><polygon points="27.75,111 27.75,138.75 0,138.75" fill="#6a49b5"/><rect x="27.75" y="111" width="27.75" height="27.75" fill="#cfc9db"/><polygon points="27.75,111 55.5,111 27.75,138.75" fill="#c4bcd7"/><rect x="0" y="138.75" width="27.75" height="27.75" fill="#c0b7d6"/><polygon points="0,138.75 27.75,138.75 27.75,166.5" fill="#c7c0d8"/><rect x="27.75" y="138.75" width="27.75" height="27.75" fill="#dad8e0"/><polygon points="27.75,138.75 55.5,166.5 27.75,166.5" fill="#603cb1"/><rect x="55.5" y="111" width="55.5" height="55.5" fill="#e3e3e3"/><rect x="55.5" y="111" width="27.75" height="27.75" fill="#603db1"/><path d="M 55.5 138.75 A 27.75 27.75 0 0 1  83.25 111 L 83.25 138.75L55.5 138.75" fill="#7c60bc"/><rect x="83.25" y="111" width="27.75" height="27.75" fill="#d1cbdc"/><path d="M 83.25 111 A 27.75 27.75 0 0 1 111 138.75 L 83.25 138.75L83.25 111" fill="#5028ab"/><rect x="55.5" y="138.75" width="27.75" height="27.75" fill="#7253b8"/><path d="M 55.5 138.75 A 27.75 27.75 0 0 0 83.25 166.5 L 83.25 138.75L55.5 138.75" fill="#a392cb"/><rect x="83.25" y="138.75" width="27.75" height="27.75" fill="#cec8db"/><path d="M 83.25 166.5 A 27.75 27.75 0 0 0 111 138.75 L 83.25 138.75L83.25 166.5" fill="#4d24aa"/><rect x="111" y="111" width="55.5" height="55.5" fill="#846abf"/><rect x="111" y="111" width="55.5" height="55.5" fill="#6d4db6"/><rect x="166.5" y="111" width="55.5" height="55.5" fill="#aa9bce"/><rect x="166.5" y="111" width="55.5" height="55.5" fill="#7f63bd"/><rect x="222" y="111" width="55.5" height="55.5" fill="#e3e3e3"/><rect x="222" y="111" width="27.75" height="27.75" fill="#7050b7"/><path d="M 222 138.75 A 27.75 27.75 0 0 1 249.75 111 L 249.75 117.9375 A 20.8125 20.8125 0 0 0 228.9375 138.75" fill="#d7d3de"/><rect x="249.75" y="111" width="27.75" height="27.75" fill="#775aba"/><path d="M 249.75 111 A 27.75 27.75 0 0 1 277.5 138.75 L 270.5625 138.75 A 20.8125 20.8125 0 0 0 249.75 117.9375" fill="#c6bed8"/><rect x="222" y="138.75" width="27.75" height="27.75" fill="#5028ab"/><path d="M 222 138.75 A 27.75 27.75 0 0 0 249.75 166.5 L 249.75 159.5625 A 20.8125 20.8125 0 0 1 228.9375 138.75" fill="#8369bf"/><rect x="249.75" y="138.75" width="27.75" height="27.75" fill="#5e3ab1"/><path d="M 249.75 166.5 A 27.75 27.75 0 0 0 277.5 138.75 L 270.5625 138.75 A 20.8125 20.8125 0 0 1 249.75 159.5625" fill="#5630ae"/><rect x="277.5" y="111" width="55.5" height="55.5" fill="#8368bf"/><path d="M 277.5 111 A 55.5 55.5 0 0 1  333 166.5 L 277.5 111 A 55.5 55.5 0 0 0 333 166.5" fill="#4e26ab"/><rect x="333" y="111" width="55.5" height="55.5" fill="#7152b8"/><path d="M 333 166.5 A 55.5 55.5 0 0 1  388.5 111 L 333 166.5 A 55.5 55.5 0 0 0 388.5 111" fill="#512aac"/><rect x="388.5" y="111" width="55.5" height="55.5" fill="#603db1"/><polygon points="444,111 444,166.5 388.5,166.5" fill="#937dc5"/><rect x="444" y="111" width="55.5" height="55.5" fill="#e3e3e3"/><rect x="444" y="111" width="27.75" height="27.75" fill="#c6bfd8"/><circle cx="457.875" cy="124.875" r="13.875" fill="#4013a5"/><rect x="471.75" y="111" width="27.75" height="27.75" fill="#ab9cce"/><rect x="471.75" y="111" width="27.75" height="27.75" fill="#a18fca"/><rect x="444" y="138.75" width="27.75" height="27.75" fill="#d6d2de"/><circle cx="457.875" cy="152.625" r="13.875" fill="#3d10a4"/><rect x="471.75" y="138.75" width="27.75" height="27.75" fill="#856bbf"/><rect x="471.75" y="138.75" width="27.75" height="27.75" fill="#7f63bd"/><rect x="499.5" y="111" width="55.5" height="55.5" fill="#e2e2e3"/><path d="M 499.5 111 A 55.5 55.5 0 0 1  555 166.5 L 499.5 111 A 55.5 55.5 0 0 0 555 166.5" fill="#461ca8"/><rect x="555" y="111" width="55.5" height="55.5" fill="#e3e3e3"/><rect x="555" y="111" width="27.75" height="27.75" fill="#7152b8"/><circle cx="568.875" cy="124.875" r="13.875" fill="#6d4cb6"/><rect x="582.75" y="111" width="27.75" height="27.75" fill="#603db2"/><rect x="582.75" y="111" width="27.75" height="27.75" fill="#b8acd3"/><rect x="555" y="138.75" width="27.75" height="27.75" fill="#481ea8"/><circle cx="568.875" cy="152.625" r="13.875" fill="#947ec5"/><rect x="582.75" y="138.75" width="27.75" height="27.75" fill="#6e4eb7"/><rect x="582.75" y="138.75" width="27.75" height="27.75" fill="#8970c1"/><rect x="610.5" y="111" width="55.5" height="55.5" fill="#e3e3e3"/><rect x="610.5" y="111" width="27.75" height="27.75" fill="#866dc0"/><path d="M 610.5 138.75 A 27.75 27.75 0 0 0 638.25 111 L 610.5 111L610.5 138.75" fill="#7558b9"/><rect x="638.25" y="111" width="27.75" height="27.75" fill="#937dc5"/><path d="M 638.25 111 A 27.75 27.75 0 0 0 666 138.75 L 666 111L638.25 111" fill="#8166be"/><rect x="610.5" y="138.75" width="27.75" height="27.75" fill="#a595cc"/><path d="M 610.5 138.75 A 27.75 27.75 0 0 1 638.25 166.5 L 610.5 166.5L610.5 138.75" fill="#6543b3"/><rect x="638.25" y="138.75" width="27.75" height="27.75" fill="#8065be"/><path d="M 638.25 166.5 A 27.75 27.75 0 0 1  666 138.75 L 666 166.5L638.25 166.5" fill="#9c89c8"/><rect x="666" y="111" width="55.5" height="55.5" fill="#e3e3e3"/><rect x="666" y="111" width="27.75" height="27.75" fill="#e3e3e3"/><path d="M 666 111 A 27.75 27.75 0 0 1 693.75 138.75 L 666 138.75L666 111" fill="#a08eca"/><rect x="693.75" y="111" width="27.75" height="27.75" fill="#dfdee1"/><path d="M 693.75 138.75 A 27.75 27.75 0 0 1  721.5 111 L 721.5 138.75L693.75 138.75" fill="#7355b9"/><rect x="666" y="138.75" width="27.75" height="27.75" fill="#491fa9"/><path d="M 666 166.5 A 27.75 27.75 0 0 0 693.75 138.75 L 666 138.75L666 166.5" fill="#9681c6"/><rect x="693.75" y="138.75" width="27.75" height="27.75" fill="#b9aed3"/><path d="M 693.75 138.75 A 27.75 27.75 0 0 0 721.5 166.5 L 721.5 138.75L693.75 138.75" fill="#4c23aa"/><rect x="721.5" y="111" width="55.5" height="55.5" fill="#e3e3e3"/><rect x="721.5" y="111" width="27.75" height="27.75" fill="#d2cedd"/><circle cx="735.375" cy="124.875" r="13.875" fill="#beb4d5"/><rect x="749.25" y="111" width="27.75" height="27.75" fill="#a391cb"/><rect x="749.25" y="111" width="27.75" height="27.75" fill="#b6a9d2"/><rect x="721.5" y="138.75" width="27.75" height="27.75" fill="#7658ba"/><circle cx="735.375" cy="152.625" r="13.875" fill="#9b87c8"/><rect x="749.25" y="138.75" width="27.75" height="27.75" fill="#d0cbdc"/><rect x="749.25" y="138.75" width="27.75" height="27.75" fill="#5c38b0"/><rect x="777" y="111" width="55.5" height="55.5" fill="#e3e3e3"/><rect x="777" y="111" width="27.75" height="27.75" fill="#7c60bc"/><path d="M 777 138.75 A 27.75 27.75 0 0 0 804.75 111 L 777 111L777 138.75" fill="#ac9cce"/><rect x="804.75" y="111" width="27.75" height="27.75" fill="#dbd8e0"/><path d="M 804.75 111 A 27.75 27.75 0 0 0 832.5 138.75 L 832.5 111L804.75 111" fill="#7355b9"/><rect x="777" y="138.75" width="27.75" height="27.75" fill="#785bba"/><path d="M 777 138.75 A 27.75 27.75 0 0 1 804.75 166.5 L 777 166.5L777 138.75" fill="#9c89c8"/><rect x="804.75" y="138.75" width="27.75" height="27.75" fill="#3e11a5"/><path d="M 804.75 166.5 A 27.75 27.75 0 0 1  832.5 138.75 L 832.5 166.5L804.75 166.5" fill="#b8add3"/><rect x="832.5" y="111" width="55.5" height="55.5" fill="#e3e3e3"/><rect x="832.5" y="111" width="27.75" height="27.75" fill="#8c74c2"/><polygon points="860.25,111 860.25,138.75 832.5,138.75" fill="#5b36af"/><rect x="860.25" y="111" width="27.75" height="27.75" fill="#ccc5da"/><polygon points="860.25,111 888,111 860.25,138.75" fill="#8f78c3"/><rect x="832.5" y="138.75" width="27.75" height="27.75" fill="#4e25aa"/><polygon points="832.5,138.75 860.25,138.75 860.25,166.5" fill="#a492cb"/><rect x="860.25" y="138.75" width="27.75" height="27.75" fill="#9d8bc9"/><polygon points="860.25,138.75 888,166.5 860.25,166.5" fill="#542ead"/><rect x="888" y="111" width="55.5" height="55.5" fill="#e3e3e3"/><rect x="888" y="111" width="27.75" height="27.75" fill="#cdc7db"/><path d="M 888 111 A 27.75 27.75 0 0 0 915.75 138.75 L 915.75 111L888 111" fill="#c5bdd8"/><rect x="915.75" y="111" width="27.75" height="27.75" fill="#5f3bb1"/><path d="M 915.75 138.75 A 27.75 27.75 0 0 0 943.5 111 L 915.75 111L915.75 138.75" fill="#4f26ab"/><rect x="888" y="138.75" width="27.75" height="27.75" fill="#b6aad2"/><path d="M 888 166.5 A 27.75 27.75 0 0 1  915.75 138.75 L 915.75 166.5L888 166.5" fill="#a18fca"/><rect x="915.75" y="138.75" width="27.75" height="27.75" fill="#5d39b0"/><path d="M 915.75 138.75 A 27.75 27.75 0 0 1 943.5 166.5 L 915.75 166.5L915.75 138.75" fill="#451aa7"/><rect x="943.5" y="111" width="55.5" height="55.5" fill="#876ec0"/><rect x="943.5" y="111" width="55.5" height="55.5" fill="#d3cedd"/><rect x="999" y="111" width="55.5" height="55.5" fill="#3a0ca3"/><path d="M 999 111 A 55.5 55.5 0 0 0 1054.5 166.5 L 1054.5 111L999 111" fill="#d7d3de"/><rect x="1054.5" y="111" width="55.5" height="55.5" fill="#e3e3e3"/><rect x="1054.5" y="111" width="27.75" height="27.75" fill="#cec9db"/><circle cx="1068.375" cy="124.875" r="13.875" fill="#3b0da3"/><rect x="1082.25" y="111" width="27.75" height="27.75" fill="#623fb2"/><rect x="1082.25" y="111" width="27.75" height="27.75" fill="#a18fca"/><rect x="1054.5" y="138.75" width="27.75" height="27.75" fill="#ad9fcf"/><circle cx="1068.375" cy="152.625" r="13.875" fill="#5c37b0"/><rect x="1082.25" y="138.75" width="27.75" height="27.75" fill="#4115a6"/><rect x="1082.25" y="138.75" width="27.75" height="27.75" fill="#8971c1"/><rect x="0" y="166.5" width="55.5" height="55.5" fill="#e3e3e3"/><rect x="0" y="166.5" width="27.75" height="27.75" fill="#522aac"/><path d="M 0 166.5 A 27.75 27.75 0 0 0 27.75 194.25 L 27.75 166.5L0 166.5" fill="#d8d5df"/><rect x="27.75" y="166.5" width="27.75" height="27.75" fill="#8c74c2"/><path d="M 27.75 194.25 A 27.75 27.75 0 0 0 55.5 166.5 L 27.75 166.5L27.75 194.25" fill="#d6d3de"/><rect x="0" y="194.25" width="27.75" height="27.75" fill="#6c4cb6"/><path d="M 0 222 A 27.75 27.75 0 0 1  27.75 194.25 L 27.75 222L0 222" fill="#9b88c8"/><rect x="27.75" y="194.25" width="27.75" height="27.75" fill="#866dc0"/><path d="M 27.75 194.25 A 27.75 27.75 0 0 1 55.5 222 L 27.75 222L27.75 194.25" fill="#b3a6d1"/><rect x="55.5" y="166.5" width="55.5" height="55.5" fill="#e3e3e3"/><rect x="55.5" y="166.5" width="27.75" height="27.75" fill="#4115a6"/><path d="M 55.5 194.25 A 27.75 27.75 0 0 0 83.25 166.5 L 55.5 166.5L55.5 194.25" fill="#6846b4"/><rect x="83.25" y="166.5" width="27.75" height="27.75" fill="#9a85c7"/><path d="M 83.25 166.5 A 27.75 27.75 0 0 0 111 194.25 L 111 166.5L83.25 166.5" fill="#866dc0"/><rect x="55.5" y="194.25" width="27.75" height="27.75" fill="#5933af"/><path d="M 55.5 194.25 A 27.75 27.75 0 0 1 83.25 222 L 55.5 222L55.5 194.25" fill="#927cc4"/><rect x="83.25" y="194.25" width="27.75" height="27.75" fill="#947ec5"/><path d="M 83.25 222 A 27.75 27.75 0 0 1  111 194.25 L 111 222L83.25 222" fill="#7d61bc"/><rect x="111" y="166.5" width="55.5" height="55.5" fill="#e3e3e3"/><rect x="111" y="166.5" width="27.75" height="27.75" fill="#552ead"/><path d="M 111 166.5 A 27.75 27.75 0 0 1 138.75 194.25 L 111 194.25L111 166.5" fill="#7b5fbc"/><rect x="138.75" y="166.5" width="27.75" height="27.75" fill="#7c60bc"/><path d="M 138.75 194.25 A 27.75 27.75 0 0 1  166.5 166.5 L 166.5 194.25L138.75 194.25" fill="#a99acd"/><rect x="111" y="194.25" width="27.75" height="27.75" fill="#876ec0"/><path d="M 111 222 A 27.75 27.75 0 0 0 138.75 194.25 L 111 194.25L111 222" fill="#d2cddd"/><rect x="138.75" y="194.25" width="27.75" height="27.75" fill="#b2a5d1"/><path d="M 138.75 194.25 A 27.75 27.75 0 0 0 166.5 222 L 166.5 194.25L138.75 194.25" fill="#3b0da3"/><rect x="166.5" y="166.5" width="55.5" height="55.5" fill="#795dbb"/><polygon points="222,166.5 222,222 166.5,222" fill="#552ead"/><rect x="222" y="166.5" width="55.5" height="55.5" fill="#b4a7d1"/><polygon points="222,166.5 277.5,222 222,222" fill="#baaed3"/><rect x="277.5" y="166.5" width="55.5" height="55.5" fill="#e3e3e3"/><rect x="277.5" y="166.5" width="27.75" height="27.75" fill="#ccc6da"/><polygon points="305.25,166.5 305.25,194.25 277.5,194.25" fill="#9f8dc9"/><rect x="305.25" y="166.5" width="27.75" height="27.75" fill="#6543b3"/><polygon points="305.25,166.5 333,166.5 305.25,194.25" fill="#5d38b0"/><rect x="277.5" y="194.25" width="27.75" height="27.75" fill="#9079c3"/><polygon points="277.5,194.25 305.25,194.25 305.25,222" fill="#5934af"/><rect x="305.25" y="194.25" width="27.75" height="27.75" fill="#7d62bc"/><polygon points="305.25,194.25 333,222 305.25,222" fill="#9985c7"/><rect x="333" y="166.5" width="55.5" height="55.5" fill="#4f26ab"/><rect x="333" y="166.5" width="55.5" height="55.5" fill="#623fb2"/><rect x="388.5" y="166.5" width="55.5" height="55.5" fill="#5a34af"/><polygon points="444,166.5 444,222 388.5,222" fill="#9985c7"/><rect x="444" y="166.5" width="55.5" height="55.5" fill="#775aba"/><path d="M 444 222 A 55.5 55.5 0 0 1  499.5 166.5 L 499.5 222L444 222" fill="#d3cedd"/><rect x="499.5" y="166.5" width="55.5" height="55.5" fill="#9e8bc9"/><path d="M 499.5 222 A 55.5 55.5 0 0 1  555 166.5 L 499.5 222 A 55.5 55.5 0 0 0 555 166.5" fill="#8368be"/><rect x="555" y="166.5" width="55.5" height="55.5" fill="#491fa9"/><path d="M 555 166.5 A 55.5 55.5 0 0 0 610.5 222 L 610.5 166.5L555 166.5" fill="#4216a6"/><rect x="610.5" y="166.5" width="55.5" height="55.5" fill="#c2b9d7"/><polygon points="610.5,166.5 666,166.5 610.5,222" fill="#4013a5"/><rect x="666" y="166.5" width="55.5" height="55.5" fill="#e3e3e3"/><rect x="666" y="166.5" width="27.75" height="27.75" fill="#6a48b5"/><path d="M 666 194.25 A 27.75 27.75 0 0 0 693.75 166.5 L 666 166.5L666 194.25" fill="#9f8cc9"/><rect x="693.75" y="166.5" width="27.75" height="27.75" fill="#baafd4"/><path d="M 693.75 166.5 A 27.75 27.75 0 0 0 721.5 194.25 L 721.5 166.5L693.75 166.5" fill="#886fc0"/><rect x="666" y="194.25" width="27.75" height="27.75" fill="#ae9fcf"/><path d="M 666 194.25 A 27.75 27.75 0 0 1 693.75 222 L 666 222L666 194.25" fill="#4115a6"/><rect x="693.75" y="194.25" width="27.75" height="27.75" fill="#ab9bce"/><path d="M 693.75 222 A 27.75 27.75 0 0 1  721.5 194.25 L 721.5 222L693.75 222" fill="#542dad"/><rect x="721.5" y="166.5" width="55.5" height="55.5" fill="#e3e3e3"/><rect x="721.5" y="166.5" width="27.75" height="27.75" fill="#b1a3d0"/><path d="M 721.5 194.25 A 27.75 27.75 0 0 1  749.25 166.5 L 749.25 194.25L721.5 194.25" fill="#b6aad2"/><rect x="749.25" y="166.5" width="27.75" height="27.75" fill="#6543b3"/><path d="M 749.25 166.5 A 27.75 27.75 0 0 1 777 194.25 L 749.25 194.25L749.25 166.5" fill="#7557b9"/><rect x="721.5" y="194.25" width="27.75" height="27.75" fill="#9d89c8"/><path d="M 721.5 194.25 A 27.75 27.75 0 0 0 749.25 222 L 749.25 194.25L721.5 194.25" fill="#7355b9"/><rect x="749.25" y="194.25" width="27.75" height="27.75" fill="#552ead"/><path d="M 749.25 222 A 27.75 27.75 0 0 0 777 194.25 L 749.25 194.25L749.25 222" fill="#a796cc"/><rect x="777" y="166.5" width="55.5" height="55.5" fill="#6b4ab5"/><rect x="777" y="166.5" width="55.5" height="55.5" fill="#8369bf"/><rect x="832.5" y="166.5" width="55.5" height="55.5" fill="#ad9ece"/><polygon points="832.5,166.5 888,166.5 888,222" fill="#a898cd"/><rect x="888" y="166.5" width="55.5" height="55.5" fill="#e0e0e2"/><rect x="888" y="166.5" width="55.5" height="55.5" fill="#d6d2de"/><rect x="943.5" y="166.5" width="55.5" height="55.5" fill="#e3e3e3"/><rect x="943.5" y="166.5" width="27.75" height="27.75" fill="#603db2"/><path d="M 943.5 166.5 A 27.75 27.75 0 0 1 971.25 194.25 L 943.5 194.25L943.5 166.5" fill="#c2b9d7"/><rect x="971.25" y="166.5" width="27.75" height="27.75" fill="#5b36b0"/><path d="M 971.25 194.25 A 27.75 27.75 0 0 1  999 166.5 L 999 194.25L971.25 194.25" fill="#cac4da"/><rect x="943.5" y="194.25" width="27.75" height="27.75" fill="#7a5ebb"/><path d="M 943.5 222 A 27.75 27.75 0 0 0 971.25 194.25 L 943.5 194.25L943.5 222" fill="#795cbb"/><rect x="971.25" y="194.25" width="27.75" height="27.75" fill="#c7bfd8"/><path d="M 971.25 194.25 A 27.75 27.75 0 0 0 999 222 L 999 194.25L971.25 194.25" fill="#d0cbdc"/><rect x="999" y="166.5" width="55.5" height="55.5" fill="#e3e3e3"/><rect x="999" y="166.5" width="27.75" height="27.75" fill="#3c0fa4"/><path d="M 999 166.5 A 27.75 27.75 0 0 1 1026.75 194.25 L 999 194.25L999 166.5" fill="#dbd8e0"/><rect x="1026.75" y="166.5" width="27.75" height="27.75" fill="#c1b8d6"/><path d="M 1026.75 194.25 A 27.75 27.75 0 0 1  1054.5 166.5 L 1054.5 194.25L1026.75 194.25" fill="#613eb2"/><rect x="999" y="194.25" width="27.75" height="27.75" fill="#a290ca"/><path d="M 999 222 A 27.75 27.75 0 0 0 1026.75 194.25 L 999 194.25L999 222" fill="#9f8cc9"/><rect x="1026.75" y="194.25" width="27.75" height="27.75" fill="#dbd9e0"/><path d="M 1026.75 194.25 A 27.75 27.75 0 0 0 1054.5 222 L 1054.5 194.25L1026.75 194.25" fill="#cfc9db"/><rect x="1054.5" y="166.5" width="55.5" height="55.5" fill="#dcdae0"/><rect x="1054.5" y="166.5" width="55.5" height="55.5" fill="#afa1cf"/><rect x="0" y="222" width="55.5" height="55.5" fill="#e3e3e3"/><rect x="0" y="222" width="27.75" height="27.75" fill="#4d24aa"/><circle cx="13.875" cy="235.875" r="13.875" fill="#a999cd"/><rect x="27.75" y="222" width="27.75" height="27.75" fill="#aa9acd"/><rect x="27.75" y="222" width="27.75" height="27.75" fill="#8c74c2"/><rect x="0" y="249.75" width="27.75" height="27.75" fill="#c2b9d6"/><circle cx="13.875" cy="263.625" r="13.875" fill="#d7d4df"/><rect x="27.75" y="249.75" width="27.75" height="27.75" fill="#b0a3d0"/><rect x="27.75" y="249.75" width="27.75" height="27.75" fill="#d0cadc"/><rect x="55.5" y="222" width="55.5" height="55.5" fill="#e3e3e3"/><rect x="55.5" y="222" width="27.75" height="27.75" fill="#cbc4da"/><circle cx="69.375" cy="235.875" r="13.875" fill="#785bba"/><rect x="83.25" y="222" width="27.75" height="27.75" fill="#481ea8"/><rect x="83.25" y="222" width="27.75" height="27.75" fill="#a391cb"/><rect x="55.5" y="249.75" width="27.75" height="27.75" fill="#bcb1d4"/><circle cx="69.375" cy="263.625" r="13.875" fill="#4d25aa"/><rect x="83.25" y="249.75" width="27.75" height="27.75" fill="#9079c3"/><rect x="83.25" y="249.75" width="27.75" height="27.75" fill="#a797cc"/><rect x="111" y="222" width="55.5" height="55.5" fill="#e3e3e3"/><rect x="111" y="222" width="27.75" height="27.75" fill="#d1ccdc"/><polygon points="138.75,222 138.75,249.75 111,249.75" fill="#7455b9"/><rect x="138.75" y="222" width="27.75" height="27.75" fill="#d4cfdd"/><polygon points="138.75,222 166.5,222 138.75,249.75" fill="#6441b3"/><rect x="111" y="249.75" width="27.75" height="27.75" fill="#9a86c7"/><polygon points="111,249.75 138.75,249.75 138.75,277.5" fill="#785aba"/><rect x="138.75" y="249.75" width="27.75" height="27.75" fill="#a391cb"/><polygon points="138.75,249.75 166.5,277.5 138.75,277.5" fill="#6543b3"/><rect x="166.5" y="222" width="55.5" height="55.5" fill="#5028ab"/><rect x="166.5" y="222" width="55.5" height="55.5" fill="#856cbf"/><rect x="222" y="222" width="55.5" height="55.5" fill="#c2b9d7"/><rect x="222" y="222" width="55.5" height="55.5" fill="#7152b8"/><rect x="277.5" y="222" width="55.5" height="55.5" fill="#e3e3e3"/><rect x="277.5" y="222" width="27.75" height="27.75" fill="#ccc6da"/><circle cx="291.375" cy="235.875" r="13.875" fill="#d9d6df"/><rect x="305.25" y="222" width="27.75" height="27.75" fill="#a695cc"/><rect x="305.25" y="222" width="27.75" height="27.75" fill="#9782c6"/><rect x="277.5" y="249.75" width="27.75" height="27.75" fill="#8d76c2"/><circle cx="291.375" cy="263.625" r="13.875" fill="#947fc5"/><rect x="305.25" y="249.75" width="27.75" height="27.75" fill="#ac9dce"/><rect x="305.25" y="249.75" width="27.75" height="27.75" fill="#5b36b0"/><rect x="333" y="222" width="55.5" height="55.5" fill="#e3e3e3"/><rect x="333" y="222" width="27.75" height="27.75" fill="#4a20a9"/><circle cx="346.875" cy="235.875" r="13.875" fill="#ab9cce"/><rect x="360.75" y="222" width="27.75" height="27.75" fill="#6441b3"/><rect x="360.75" y="222" width="27.75" height="27.75" fill="#8b74c2"/><rect x="333" y="249.75" width="27.75" height="27.75" fill="#8870c1"/><circle cx="346.875" cy="263.625" r="13.875" fill="#3e11a4"/><rect x="360.75" y="249.75" width="27.75" height="27.75" fill="#8d76c2"/><rect x="360.75" y="249.75" width="27.75" height="27.75" fill="#a999cd"/><rect x="388.5" y="222" width="55.5" height="55.5" fill="#e3e3e3"/><rect x="388.5" y="222" width="27.75" height="27.75" fill="#471da8"/><path d="M 388.5 222 A 27.75 27.75 0 0 0 416.25 249.75 L 416.25 222L388.5 222" fill="#d6d3de"/><rect x="416.25" y="222" width="27.75" height="27.75" fill="#cac3da"/><path d="M 416.25 249.75 A 27.75 27.75 0 0 0 444 222 L 416.25 222L416.25 249.75" fill="#5f3bb1"/><rect x="388.5" y="249.75" width="27.75" height="27.75" fill="#6d4db6"/><path d="M 388.5 277.5 A 27.75 27.75 0 0 1  416.25 249.75 L 416.25 277.5L388.5 277.5" fill="#5731ae"/><rect x="416.25" y="249.75" width="27.75" height="27.75" fill="#e3e3e3"/><path d="M 416.25 249.75 A 27.75 27.75 0 0 1 444 277.5 L 416.25 277.5L416.25 249.75" fill="#b3a5d1"/><rect x="444" y="222" width="55.5" height="55.5" fill="#5b37b0"/><rect x="444" y="222" width="55.5" height="55.5" fill="#927cc4"/><rect x="499.5" y="222" width="55.5" height="55.5" fill="#4014a5"/><rect x="499.5" y="222" width="55.5" height="55.5" fill="#ad9ece"/><rect x="555" y="222" width="55.5" height="55.5" fill="#7e63bd"/><polygon points="555,222 610.5,222 555,277.5" fill="#ccc5da"/><rect x="610.5" y="222" width="55.5" height="55.5" fill="#8e77c3"/><path d="M 610.5 222 A 55.5 55.5 0 0 0 666 277.5 L 666 222L610.5 222" fill="#5933af"/><rect x="666" y="222" width="55.5" height="55.5" fill="#ccc5da"/><polygon points="666,222 721.5,222 666,277.5" fill="#9681c6"/><rect x="721.5" y="222" width="55.5" height="55.5" fill="#baafd4"/><polygon points="721.5,222 777,277.5 721.5,277.5" fill="#e3e3e3"/><rect x="777" y="222" width="55.5" height="55.5" fill="#b0a2d0"/><polygon points="832.5,222 832.5,277.5 777,277.5" fill="#cac3da"/><rect x="832.5" y="222" width="55.5" height="55.5" fill="#e3e3e3"/><rect x="832.5" y="222" width="27.75" height="27.75" fill="#6b4ab6"/><polygon points="860.25,222 860.25,249.75 832.5,249.75" fill="#6d4db6"/><rect x="860.25" y="222" width="27.75" height="27.75" fill="#5e3ab1"/><polygon points="860.25,222 888,249.75 860.25,249.75" fill="#5933af"/><rect x="832.5" y="249.75" width="27.75" height="27.75" fill="#d9d6df"/><polygon points="832.5,249.75 860.25,249.75 832.5,277.5" fill="#b9aed3"/><rect x="860.25" y="249.75" width="27.75" height="27.75" fill="#beb4d5"/><polygon points="860.25,249.75 888,249.75 888,277.5" fill="#dad7e0"/><rect x="888" y="222" width="55.5" height="55.5" fill="#e3e3e3"/><rect x="888" y="222" width="27.75" height="27.75" fill="#b5a9d2"/><path d="M 888 249.75 A 27.75 27.75 0 0 1 915.75 222 L 915.75 228.9375 A 20.8125 20.8125 0 0 0 894.9375 249.75" fill="#927dc5"/><rect x="915.75" y="222" width="27.75" height="27.75" fill="#9b87c8"/><path d="M 915.75 222 A 27.75 27.75 0 0 1 943.5 249.75 L 936.5625 249.75 A 20.8125 20.8125 0 0 0 915.75 228.9375" fill="#6d4cb6"/><rect x="888" y="249.75" width="27.75" height="27.75" fill="#8d76c3"/><path d="M 888 249.75 A 27.75 27.75 0 0 0 915.75 277.5 L 915.75 270.5625 A 20.8125 20.8125 0 0 1 894.9375 249.75" fill="#e2e2e3"/><rect x="915.75" y="249.75" width="27.75" height="27.75" fill="#d4d0dd"/><path d="M 915.75 277.5 A 27.75 27.75 0 0 0 943.5 249.75 L 936.5625 249.75 A 20.8125 20.8125 0 0 1 915.75 270.5625" fill="#cfc9db"/><rect x="943.5" y="222" width="55.5" height="55.5" fill="#e3e3e3"/><rect x="943.5" y="222" width="27.75" height="27.75" fill="#7557b9"/><path d="M 943.5 222 A 27.75 27.75 0 0 0 971.25 249.75 L 971.25 222L943.5 222" fill="#9a86c7"/><rect x="971.25" y="222" width="27.75" height="27.75" fill="#9580c6"/><path d="M 971.25 249.75 A 27.75 27.75 0 0 0 999 222 L 971.25 222L971.25 249.75" fill="#795dbb"/><rect x="943.5" y="249.75" width="27.75" height="27.75" fill="#7c60bc"/><path d="M 943.5 277.5 A 27.75 27.75 0 0 1  971.25 249.75 L 971.25 277.5L943.5 277.5" fill="#e1e0e2"/><rect x="971.25" y="249.75" width="27.75" height="27.75" fill="#6e4fb7"/><path d="M 971.25 249.75 A 27.75 27.75 0 0 1 999 277.5 L 971.25 277.5L971.25 249.75" fill="#3c0fa4"/><rect x="999" y="222" width="55.5" height="55.5" fill="#9f8cc9"/><rect x="999" y="222" width="55.5" height="55.5" fill="#9580c6"/><rect x="1054.5" y="222" width="55.5" height="55.5" fill="#e3e3e3"/><rect x="1054.5" y="222" width="27.75" height="27.75" fill="#6543b3"/><path d="M 1054.5 249.75 A 27.75 27.75 0 0 1  1082.25 222 L 1082.25 249.75L1054.5 249.75" fill="#7355b9"/><rect x="1082.25" y="222" width="27.75" height="27.75" fill="#a290ca"/><path d="M 1082.25 222 A 27.75 27.75 0 0 1 1110 249.75 L 1082.25 249.75L1082.25 222" fill="#4e26ab"/><rect x="1054.5" y="249.75" width="27.75" height="27.75" fill="#5832ae"/><path d="M 1054.5 249.75 A 27.75 27.75 0 0 0 1082.25 277.5 L 1082.25 249.75L1054.5 249.75" fill="#8166be"/><rect x="1082.25" y="249.75" width="27.75" height="27.75" fill="#c9c2d9"/><path d="M 1082.25 277.5 A 27.75 27.75 0 0 0 1110 249.75 L 1082.25 249.75L1082.25 277.5" fill="#8b73c2"/><rect x="0" y="277.5" width="55.5" height="55.5" fill="#e3e3e3"/><rect x="0" y="277.5" width="27.75" height="27.75" fill="#ccc6da"/><path d="M 0 305.25 A 27.75 27.75 0 0 1  27.75 277.5 L 27.75 305.25L0 305.25" fill="#4e25aa"/><rect x="27.75" y="277.5" width="27.75" height="27.75" fill="#5630ae"/><path d="M 27.75 277.5 A 27.75 27.75 0 0 1 55.5 305.25 L 27.75 305.25L27.75 277.5" fill="#d1ccdc"/><rect x="0" y="305.25" width="27.75" height="27.75" fill="#beb4d5"/><path d="M 0 305.25 A 27.75 27.75 0 0 0 27.75 333 L 27.75 305.25L0 305.25" fill="#927bc4"/><rect x="27.75" y="305.25" width="27.75" height="27.75" fill="#5b37b0"/><path d="M 27.75 333 A 27.75 27.75 0 0 0 55.5 305.25 L 27.75 305.25L27.75 333" fill="#a695cc"/><rect x="55.5" y="277.5" width="55.5" height="55.5" fill="#dbd9e0"/><path d="M 55.5 333 A 55.5 55.5 0 0 1  111 277.5 L 111 333L55.5 333" fill="#ae9fcf"/><rect x="111" y="277.5" width="55.5" height="55.5" fill="#e3e3e3"/><rect x="111" y="277.5" width="27.75" height="27.75" fill="#8971c1"/><path d="M 111 277.5 A 27.75 27.75 0 0 0 138.75 305.25 L 138.75 277.5L111 277.5" fill="#785bbb"/><rect x="138.75" y="277.5" width="27.75" height="27.75" fill="#471ca8"/><path d="M 138.75 305.25 A 27.75 27.75 0 0 0 166.5 277.5 L 138.75 277.5L138.75 305.25" fill="#cec8db"/><rect x="111" y="305.25" width="27.75" height="27.75" fill="#c1b8d6"/><path d="M 111 333 A 27.75 27.75 0 0 1  138.75 305.25 L 138.75 333L111 333" fill="#b9add3"/><rect x="138.75" y="305.25" width="27.75" height="27.75" fill="#ae9fcf"/><path d="M 138.75 305.25 A 27.75 27.75 0 0 1 166.5 333 L 138.75 333L138.75 305.25" fill="#cfc9db"/><rect x="166.5" y="277.5" width="55.5" height="55.5" fill="#7254b8"/><polygon points="222,277.5 222,333 166.5,333" fill="#3e11a4"/><rect x="222" y="277.5" width="55.5" height="55.5" fill="#e3e3e3"/><rect x="222" y="277.5" width="27.75" height="27.75" fill="#461ba8"/><polygon points="249.75,277.5 249.75,305.25 222,305.25" fill="#7355b9"/><rect x="249.75" y="277.5" width="27.75" height="27.75" fill="#dddce1"/><polygon points="249.75,277.5 277.5,305.25 249.75,305.25" fill="#5f3bb1"/><rect x="222" y="305.25" width="27.75" height="27.75" fill="#785bbb"/><polygon points="222,305.25 249.75,305.25 249.75,333" fill="#dcdae0"/><rect x="249.75" y="305.25" width="27.75" height="27.75" fill="#b1a3d0"/><polygon points="249.75,305.25 277.5,305.25 249.75,333" fill="#7e63bd"/><rect x="277.5" y="277.5" width="55.5" height="55.5" fill="#e3e3e3"/><rect x="277.5" y="277.5" width="27.75" height="27.75" fill="#451aa7"/><path d="M 277.5 277.5 A 27.75 27.75 0 0 0 305.25 305.25 L 305.25 277.5L277.5 277.5" fill="#c2b9d6"/><rect x="305.25" y="277.5" width="27.75" height="27.75" fill="#cac4da"/><path d="M 305.25 305.25 A 27.75 27.75 0 0 0 333 277.5 L 305.25 277.5L305.25 305.25" fill="#d0cadc"/><rect x="277.5" y="305.25" width="27.75" height="27.75" fill="#b4a8d1"/><path d="M 277.5 333 A 27.75 27.75 0 0 1  305.25 305.25 L 305.25 333L277.5 333" fill="#ac9cce"/><rect x="305.25" y="305.25" width="27.75" height="27.75" fill="#8970c1"/><path d="M 305.25 305.25 A 27.75 27.75 0 0 1 333 333 L 305.25 333L305.25 305.25" fill="#542dad"/><rect x="333" y="277.5" width="55.5" height="55.5" fill="#9884c7"/><rect x="333" y="277.5" width="55.5" height="55.5" fill="#9985c7"/><rect x="388.5" y="277.5" width="55.5" height="55.5" fill="#e3e3e3"/><rect x="388.5" y="277.5" width="27.75" height="27.75" fill="#bdb2d5"/><path d="M 388.5 305.25 A 27.75 27.75 0 0 1  416.25 277.5 L 416.25 305.25L388.5 305.25" fill="#b1a4d0"/><rect x="416.25" y="277.5" width="27.75" height="27.75" fill="#5833af"/><path d="M 416.25 277.5 A 27.75 27.75 0 0 1 444 305.25 L 416.25 305.25L416.25 277.5" fill="#afa0cf"/><rect x="388.5" y="305.25" width="27.75" height="27.75" fill="#552ead"/><path d="M 388.5 305.25 A 27.75 27.75 0 0 0 416.25 333 L 416.25 305.25L388.5 305.25" fill="#876ec0"/><rect x="416.25" y="305.25" width="27.75" height="27.75" fill="#bdb3d5"/><path d="M 416.25 333 A 27.75 27.75 0 0 0 444 305.25 L 416.25 305.25L416.25 333" fill="#bdb2d5"/><rect x="444" y="277.5" width="55.5" height="55.5" fill="#e3e3e3"/><rect x="444" y="277.5" width="27.75" height="27.75" fill="#dad7e0"/><path d="M 444 277.5 A 27.75 27.75 0 0 1 471.75 305.25 L 444 305.25L444 277.5" fill="#dcdae0"/><rect x="471.75" y="277.5" width="27.75" height="27.75" fill="#d4d0dd"/><path d="M 471.75 305.25 A 27.75 27.75 0 0 1  499.5 277.5 L 499.5 305.25L471.75 305.25" fill="#c6bed8"/><rect x="444" y="305.25" width="27.75" height="27.75" fill="#8065be"/><path d="M 444 333 A 27.75 27.75 0 0 0 471.75 305.25 L 444 305.25L444 333" fill="#3c0fa4"/><rect x="471.75" y="305.25" width="27.75" height="27.75" fill="#b6aad2"/><path d="M 471.75 305.25 A 27.75 27.75 0 0 0 499.5 333 L 499.5 305.25L471.75 305.25" fill="#8971c1"/><rect x="499.5" y="277.5" width="55.5" height="55.5" fill="#e3e3e3"/><rect x="499.5" y="277.5" width="27.75" height="27.75" fill="#a695cc"/><polygon points="527.25,277.5 527.25,305.25 499.5,305.25" fill="#9884c7"/><rect x="527.25" y="277.5" width="27.75" height="27.75" fill="#9c89c8"/><polygon points="527.25,277.5 555,277.5 527.25,305.25" fill="#a08eca"/><rect x="499.5" y="305.25" width="27.75" height="27.75" fill="#9580c5"/><polygon points="499.5,305.25 527.25,305.25 527.25,333" fill="#e0dfe2"/><rect x="527.25" y="305.25" width="27.75" height="27.75" fill="#b7abd2"/><polygon points="527.25,305.25 555,333 527.25,333" fill="#b6aad2"/><rect x="555" y="277.5" width="55.5" height="55.5" fill="#9a86c7"/><rect x="555" y="277.5" width="55.5" height="55.5" fill="#ccc6da"/><rect x="610.5" y="277.5" width="55.5" height="55.5" fill="#e3e3e3"/><rect x="610.5" y="277.5" width="27.75" height="27.75" fill="#d5d2de"/><polygon points="638.25,277.5 638.25,305.25 610.5,305.25" fill="#6b4bb6"/><rect x="638.25" y="277.5" width="27.75" height="27.75" fill="#d4d0dd"/><polygon points="638.25,277.5 666,305.25 638.25,305.25" fill="#9884c7"/><rect x="610.5" y="305.25" width="27.75" height="27.75" fill="#dedde1"/><polygon points="610.5,305.25 638.25,305.25 610.5,333" fill="#7f64bd"/><rect x="638.25" y="305.25" width="27.75" height="27.75" fill="#bdb3d5"/><polygon points="638.25,305.25 666,305.25 666,333" fill="#7b5fbc"/><rect x="666" y="277.5" width="55.5" height="55.5" fill="#afa1cf"/><polygon points="666,277.5 721.5,277.5 666,333" fill="#6542b3"/><rect x="721.5" y="277.5" width="55.5" height="55.5" fill="#471da8"/><rect x="721.5" y="277.5" width="55.5" height="55.5" fill="#c7c0d8"/><rect x="777" y="277.5" width="55.5" height="55.5" fill="#e3e3e3"/><rect x="777" y="277.5" width="27.75" height="27.75" fill="#d1cddc"/><polygon points="804.75,277.5 804.75,305.25 777,305.25" fill="#c9c2d9"/><rect x="804.75" y="277.5" width="27.75" height="27.75" fill="#ccc6da"/><polygon points="804.75,277.5 832.5,305.25 804.75,305.25" fill="#5833ae"/><rect x="777" y="305.25" width="27.75" height="27.75" fill="#7456b9"/><polygon points="777,305.25 804.75,305.25 804.75,333" fill="#795dbb"/><rect x="804.75" y="305.25" width="27.75" height="27.75" fill="#a392cb"/><polygon points="804.75,305.25 832.5,305.25 804.75,333" fill="#5b36b0"/><rect x="832.5" y="277.5" width="55.5" height="55.5" fill="#4b21a9"/><polygon points="832.5,277.5 888,277.5 832.5,333" fill="#b2a5d0"/><rect x="888" y="277.5" width="55.5" height="55.5" fill="#beb4d5"/><polygon points="888,277.5 943.5,277.5 943.5,333" fill="#7f64bd"/><rect x="943.5" y="277.5" width="55.5" height="55.5" fill="#e3e3e3"/><rect x="943.5" y="277.5" width="27.75" height="27.75" fill="#b1a4d0"/><path d="M 943.5 277.5 A 27.75 27.75 0 0 1 971.25 305.25 L 943.5 305.25L943.5 277.5" fill="#4014a5"/><rect x="971.25" y="277.5" width="27.75" height="27.75" fill="#b2a5d0"/><path d="M 971.25 305.25 A 27.75 27.75 0 0 1  999 277.5 L 999 305.25L971.25 305.25" fill="#6d4db6"/><rect x="943.5" y="305.25" width="27.75" height="27.75" fill="#6a4ab5"/><path d="M 943.5 333 A 27.75 27.75 0 0 0 971.25 305.25 L 943.5 305.25L943.5 333" fill="#c1b8d6"/><rect x="971.25" y="305.25" width="27.75" height="27.75" fill="#461ba7"/><path d="M 971.25 305.25 A 27.75 27.75 0 0 0 999 333 L 999 305.25L971.25 305.25" fill="#613eb2"/><rect x="999" y="277.5" width="55.5" height="55.5" fill="#e3e3e3"/><rect x="999" y="277.5" width="27.75" height="27.75" fill="#6340b3"/><polygon points="1026.75,277.5 1026.75,305.25 999,305.25" fill="#7b5ebc"/><rect x="1026.75" y="277.5" width="27.75" height="27.75" fill="#b1a4d0"/><polygon points="1026.75,277.5 1054.5,305.25 1026.75,305.25" fill="#4014a5"/><rect x="999" y="305.25" width="27.75" height="27.75" fill="#4216a6"/><polygon points="999,305.25 1026.75,305.25 1026.75,333" fill="#6e4fb7"/><rect x="1026.75" y="305.25" width="27.75" height="27.75" fill="#4b22aa"/><polygon points="1026.75,305.25 1054.5,305.25 1026.75,333" fill="#491fa9"/><rect x="1054.5" y="277.5" width="55.5" height="55.5" fill="#7d61bc"/><rect x="1054.5" y="277.5" width="55.5" height="55.5" fill="#a594cc"/></g></svg>