<?xml version="1.0" standalone="no"?><svg xmlns:xlink="http://www.w3.org/1999/xlink" xmlns="http://www.w3.org/2000/svg" viewBox="0 0 1000 200" preserveAspectRatio="xMaxYMax slice"><g transform="scale(0.9009009009009009)"><rect x="0" y="0" width="1110" height="222" fill="#e3e3e3"/><rect x="0" y="0" width="55.5" height="55.5" fill="#9e8cc9"/><rect x="0" y="0" width="55.5" height="55.5" fill="#603cb1"/><rect x="55.5" y="0" width="55.5" height="55.5" fill="#e3e3e3"/><rect x="55.5" y="0" width="27.75" height="27.75" fill="#6a49b5"/><path d="M 55.5 27.75 A 27.75 27.75 0 0 1  83.25 0 L 83.25 27.75L55.5 27.75" fill="#927cc4"/><rect x="83.25" y="0" width="27.75" height="27.75" fill="#7e63bd"/><path d="M 83.25 0 A 27.75 27.75 0 0 1 111 27.75 L 83.25 27.75L83.25 0" fill="#6948b5"/><rect x="55.5" y="27.75" width="27.75" height="27.75" fill="#c5bdd8"/><path d="M 55.5 27.75 A 27.75 27.75 0 0 0 83.25 55.5 L 83.25 27.75L55.5 27.75" fill="#d3cfdd"/><rect x="83.25" y="27.75" width="27.75" height="27.75" fill="#5c37b0"/><path d="M 83.25 55.5 A 27.75 27.75 0 0 0 111 27.75 L 83.25 27.75L83.25 55.5" fill="#7253b8"/><rect x="111" y="0" width="55.5" height="55.5" fill="#b1a3d0"/><rect x="111" y="0" width="55.5" height="55.5" fill="#4216a6"/><rect x="166.5" y="0" width="55.5" height="55.5" fill="#9c89c8"/><polygon points="222,0 222,55.5 166.5,55.5" fill="#8267be"/><rect x="222" y="0" width="55.5" height="55.5" fill="#e3e3e3"/><rect x="222" y="0" width="27.75" height="27.75" fill="#beb4d5"/><circle cx="235.875" cy="13.875" r="13.875" fill="#c8c1d9"/><rect x="249.75" y="0" width="27.75" height="27.75" fill="#d6d3de"/><rect x="249.75" y="0" width="27.75" height="27.75" fill="#8b73c2"/><rect x="222" y="27.75" width="27.75" height="27.75" fill="#562fae"/><circle cx="235.875" cy="41.625" r="13.875" fill="#4b22aa"/><rect x="249.75" y="27.75" width="27.75" height="27.75" fill="#876ec0"/><rect x="249.75" y="27.75" width="27.75" height="27.75" fill="#ab9cce"/><rect x="277.5" y="0" width="55.5" height="55.5" fill="#dcdae0"/><rect x="277.5" y="0" width="55.5" height="55.5" fill="#775aba"/><rect x="333" y="0" width="55.5" height="55.5" fill="#d2cddd"/><path d="M 333 55.5 A 55.5 55.5 0 0 1  388.5 0 L 333 55.5 A 55.5 55.5 0 0 0 388.5 0" fill="#b2a5d0"/><rect x="388.5" y="0" width="55.5" height="55.5" fill="#6442b3"/><path d="M 388.5 55.5 A 55.5 55.5 0 0 1  444 0 L 388.5 55.5 A 55.5 55.5 0 0 0 444 0" fill="#a291cb"/><rect x="444" y="0" width="55.5" height="55.5" fill="#512aac"/><rect x="444" y="0" width="55.5" height="55.5" fill="#9e8bc9"/><rect x="499.5" y="0" width="55.5" height="55.5" fill="#a999cd"/><rect x="499.5" y="0" width="55.5" height="55.5" fill="#4419a7"/><rect x="555" y="0" width="55.5" height="55.5" fill="#5028ab"/><polygon points="610.5,0 610.5,55.5 555,55.5" fill="#5b36b0"/><rect x="610.5" y="0" width="55.5" height="55.5" fill="#4216a6"/><rect x="610.5" y="0" width="55.5" height="55.5" fill="#4014a5"/><rect x="666" y="0" width="55.5" height="55.5" fill="#ad9fcf"/><rect x="666" y="0" width="55.5" height="55.5" fill="#e1e1e2"/><rect x="721.5" y="0" width="55.5" height="55.5" fill="#e3e3e3"/><rect x="721.5" y="0" width="27.75" height="27.75" fill="#3f12a5"/><polygon points="749.25,0 749.25,27.75 721.5,27.75" fill="#917bc4"/><rect x="749.25" y="0" width="27.75" height="27.75" fill="#8369bf"/><polygon points="749.25,0 777,0 749.25,27.75" fill="#c3bbd7"/><rect x="721.5" y="27.75" width="27.75" height="27.75" fill="#bfb6d6"/><polygon points="721.5,27.75 749.25,27.75 749.25,55.5" fill="#8b73c2"/><rect x="749.25" y="27.75" width="27.75" height="27.75" fill="#c0b7d6"/><polygon points="749.25,27.75 777,55.5 749.25,55.5" fill="#e1e0e2"/><rect x="777" y="0" width="55.5" height="55.5" fill="#e3e3e3"/><rect x="777" y="0" width="27.75" height="27.75" fill="#6a49b5"/><path d="M 777 0 A 27.75 27.75 0 0 0 804.75 27.75 L 804.75 0L777 0" fill="#917bc4"/><rect x="804.75" y="0" width="27.75" height="27.75" fill="#3a0ca3"/><path d="M 804.75 27.75 A 27.75 27.75 0 0 0 832.5 0 L 804.75 0L804.75 27.75" fill="#6b4bb6"/><rect x="777" y="27.75" width="27.75" height="27.75" fill="#8a72c1"/><path d="M 777 55.5 A 27.75 27.75 0 0 1  804.75 27.75 L 804.75 55.5L777 55.5" fill="#937dc5"/><rect x="804.75" y="27.75" width="27.75" height="27.75" fill="#8166be"/><path d="M 804.75 27.75 A 27.75 27.75 0 0 1 832.5 55.5 L 804.75 55.5L804.75 27.75" fill="#9884c7"/><rect x="832.5" y="0" width="55.5" height="55.5" fill="#e3e3e3"/><rect x="832.5" y="0" width="27.75" height="27.75" fill="#3b0da3"/><polygon points="860.25,0 860.25,27.75 832.5,27.75" fill="#4419a7"/><rect x="860.25" y="0" width="27.75" height="27.75" fill="#b5a9d2"/><polygon points="860.25,0 888,27.75 860.25,27.75" fill="#b7abd2"/><rect x="832.5" y="27.75" width="27.75" height="27.75" fill="#ad9ecf"/><polygon points="832.5,27.75 860.25,27.75 860.25,55.5" fill="#9079c3"/><rect x="860.25" y="27.75" width="27.75" height="27.75" fill="#a08dca"/><polygon points="860.25,27.75 888,27.75 860.25,55.5" fill="#ac9cce"/><rect x="888" y="0" width="55.5" height="55.5" fill="#aa9bcd"/><rect x="888" y="0" width="55.5" height="55.5" fill="#ad9fcf"/><rect x="943.5" y="0" width="55.5" height="55.5" fill="#e3e3e3"/><rect x="943.5" y="0" width="27.75" height="27.75" fill="#5731ae"/><path d="M 943.5 27.75 A 27.75 27.75 0 0 1 971.25 0 L 971.25 6.9375 A 20.8125 20.8125 0 0 0 950.4375 27.75" fill="#9a86c7"/><rect x="971.25" y="0" width="27.75" height="27.75" fill="#603db1"/><path d="M 971.25 0 A 27.75 27.75 0 0 1 999 27.75 L 992.0625 27.75 A 20.8125 20.8125 0 0 0 971.25 6.9375" fill="#bbb0d4"/><rect x="943.5" y="27.75" width="27.75" height="27.75" fill="#dedce1"/><path d="M 943.5 27.75 A 27.75 27.75 0 0 0 971.25 55.5 L 971.25 48.5625 A 20.8125 20.8125 0 0 1 950.4375 27.75" fill="#947ec5"/><rect x="971.25" y="27.75" width="27.75" height="27.75" fill="#6d4db6"/><path d="M 971.25 55.5 A 27.75 27.75 0 0 0 999 27.75 L 992.0625 27.75 A 20.8125 20.8125 0 0 1 971.25 48.5625" fill="#947fc5"/><rect x="999" y="0" width="55.5" height="55.5" fill="#e3e3e3"/><rect x="999" y="0" width="27.75" height="27.75" fill="#4b22a9"/><path d="M 999 27.75 A 27.75 27.75 0 0 0 1026.75 0 L 999 0L999 27.75" fill="#bbb1d4"/><rect x="1026.75" y="0" width="27.75" height="27.75" fill="#a493cb"/><path d="M 1026.75 0 A 27.75 27.75 0 0 0 1054.5 27.75 L 1054.5 0L1026.75 0" fill="#b5a9d2"/><rect x="999" y="27.75" width="27.75" height="27.75" fill="#9c89c8"/><path d="M 999 27.75 A 27.75 27.75 0 0 1 1026.75 55.5 L 999 55.5L999 27.75" fill="#623eb2"/><rect x="1026.75" y="27.75" width="27.75" height="27.75" fill="#876ec0"/><path d="M 1026.75 55.5 A 27.75 27.75 0 0 1  1054.5 27.75 L 1054.5 55.5L1026.75 55.5" fill="#6846b4"/><rect x="1054.5" y="0" width="55.5" height="55.5" fill="#9a87c8"/><rect x="1054.5" y="0" width="55.5" height="55.5" fill="#a696cc"/><rect x="0" y="55.5" width="55.5" height="55.5" fill="#491fa9"/><path d="M 0 111 A 55.5 55.5 0 0 1  55.5 55.5 L 0 111 A 55.5 55.5 0 0 0 55.5 55.5" fill="#623fb2"/><rect x="55.5" y="55.5" width="55.5" height="55.5" fill="#5630ae"/><polygon points="55.5,55.5 111,111 55.5,111" fill="#3d10a4"/><rect x="111" y="55.5" width="55.5" height="55.5" fill="#e3e3e3"/><rect x="111" y="55.5" width="27.75" height="27.75" fill="#5b36b0"/><polygon points="138.75,55.5 138.75,83.25 111,83.25" fill="#c3bad7"/><rect x="138.75" y="55.5" width="27.75" height="27.75" fill="#9079c3"/><polygon points="138.75,55.5 166.5,55.5 138.75,83.25" fill="#795cbb"/><rect x="111" y="83.25" width="27.75" height="27.75" fill="#bdb2d5"/><polygon points="111,83.25 138.75,83.25 138.75,111" fill="#8f79c3"/><rect x="138.75" y="83.25" width="27.75" height="27.75" fill="#8c74c2"/><polygon points="138.75,83.25 166.5,111 138.75,111" fill="#552fad"/><rect x="166.5" y="55.5" width="55.5" height="55.5" fill="#e2e2e3"/><rect x="166.5" y="55.5" width="55.5" height="55.5" fill="#7c60bc"/><rect x="222" y="55.5" width="55.5" height="55.5" fill="#876ec0"/><path d="M 222 55.5 A 55.5 55.5 0 0 1  277.5 111 L 222 55.5 A 55.5 55.5 0 0 0 277.5 111" fill="#4b22a9"/><rect x="277.5" y="55.5" width="55.5" height="55.5" fill="#b0a2d0"/><path d="M 277.5 111 A 55.5 55.5 0 0 0 333 55.5 L 277.5 55.5L277.5 111" fill="#5028ab"/><rect x="333" y="55.5" width="55.5" height="55.5" fill="#e3e3e3"/><rect x="333" y="55.5" width="27.75" height="27.75" fill="#e1e0e2"/><polygon points="360.75,55.5 360.75,83.25 333,83.25" fill="#d5d1de"/><rect x="360.75" y="55.5" width="27.75" height="27.75" fill="#cfcadb"/><polygon points="360.75,55.5 388.5,55.5 360.75,83.25" fill="#4c23aa"/><rect x="333" y="83.25" width="27.75" height="27.75" fill="#9a86c7"/><polygon points="333,83.25 360.75,83.25 360.75,111" fill="#ab9cce"/><rect x="360.75" y="83.25" width="27.75" height="27.75" fill="#d1ccdc"/><polygon points="360.75,83.25 388.5,111 360.75,111" fill="#b0a2d0"/><rect x="388.5" y="55.5" width="55.5" height="55.5" fill="#e3e3e3"/><rect x="388.5" y="55.5" width="27.75" height="27.75" fill="#b6a9d2"/><polygon points="416.25,55.5 416.25,83.25 388.5,83.25" fill="#5f3bb1"/><rect x="416.25" y="55.5" width="27.75" height="27.75" fill="#471ca8"/><polygon points="416.25,55.5 444,83.25 416.25,83.25" fill="#6847b4"/><rect x="388.5" y="83.25" width="27.75" height="27.75" fill="#5d38b0"/><polygon points="388.5,83.25 416.25,83.25 416.25,111" fill="#6c4cb6"/><rect x="416.25" y="83.25" width="27.75" height="27.75" fill="#876ec0"/><polygon points="416.25,83.25 444,83.25 416.25,111" fill="#5028ab"/><rect x="444" y="55.5" width="55.5" height="55.5" fill="#ab9cce"/><path d="M 444 55.5 A 55.5 55.5 0 0 0 499.5 111 L 499.5 55.5L444 55.5" fill="#c2b9d7"/><rect x="499.5" y="55.5" width="55.5" height="55.5" fill="#d8d5df"/><polygon points="499.5,55.5 555,55.5 555,111" fill="#a898cd"/><rect x="555" y="55.5" width="55.5" height="55.5" fill="#6a4ab5"/><polygon points="610.5,55.5 610.5,111 555,111" fill="#9985c7"/><rect x="610.5" y="55.5" width="55.5" height="55.5" fill="#5731ae"/><rect x="610.5" y="55.5" width="55.5" height="55.5" fill="#9e8cc9"/><rect x="666" y="55.5" width="55.5" height="55.5" fill="#e3e3e3"/><rect x="666" y="55.5" width="27.75" height="27.75" fill="#baafd3"/><polygon points="693.75,55.5 693.75,83.25 666,83.25" fill="#937ec5"/><rect x="693.75" y="55.5" width="27.75" height="27.75" fill="#c2b9d7"/><polygon points="693.75,55.5 721.5,83.25 693.75,83.25" fill="#4c23aa"/><rect x="666" y="83.25" width="27.75" height="27.75" fill="#9580c5"/><polygon points="666,83.25 693.75,83.25 666,111" fill="#481ea8"/><rect x="693.75" y="83.25" width="27.75" height="27.75" fill="#927cc4"/><polygon points="693.75,83.25 721.5,83.25 721.5,111" fill="#cbc5da"/><rect x="721.5" y="55.5" width="55.5" height="55.5" fill="#e3e3e3"/><rect x="721.5" y="55.5" width="27.75" height="27.75" fill="#5630ae"/><path d="M 721.5 83.25 A 27.75 27.75 0 0 0 749.25 55.5 L 721.5 55.5L721.5 83.25" fill="#5028ab"/><rect x="749.25" y="55.5" width="27.75" height="27.75" fill="#d7d3de"/><path d="M 749.25 55.5 A 27.75 27.75 0 0 0 777 83.25 L 777 55.5L749.25 55.5" fill="#532cad"/><rect x="721.5" y="83.25" width="27.75" height="27.75" fill="#4c23aa"/><path d="M 721.5 83.25 A 27.75 27.75 0 0 1 749.25 111 L 721.5 111L721.5 83.25" fill="#8268be"/><rect x="749.25" y="83.25" width="27.75" height="27.75" fill="#a18fca"/><path d="M 749.25 111 A 27.75 27.75 0 0 1  777 83.25 L 777 111L749.25 111" fill="#8268be"/><rect x="777" y="55.5" width="55.5" height="55.5" fill="#e3e3e3"/><rect x="777" y="55.5" width="27.75" height="27.75" fill="#ccc6da"/><path d="M 777 83.25 A 27.75 27.75 0 0 1  804.75 55.5 L 804.75 83.25L777 83.25" fill="#d4cfdd"/><rect x="804.75" y="55.5" width="27.75" height="27.75" fill="#7b5fbc"/><path d="M 804.75 55.5 A 27.75 27.75 0 0 1 832.5 83.25 L 804.75 83.25L804.75 55.5" fill="#5129ac"/><rect x="777" y="83.25" width="27.75" height="27.75" fill="#5731ae"/><path d="M 777 83.25 A 27.75 27.75 0 0 0 804.75 111 L 804.75 83.25L777 83.25" fill="#542dad"/><rect x="804.75" y="83.25" width="27.75" height="27.75" fill="#c0b6d6"/><path d="M 804.75 111 A 27.75 27.75 0 0 0 832.5 83.25 L 804.75 83.25L804.75 111" fill="#ab9cce"/><rect x="832.5" y="55.5" width="55.5" height="55.5" fill="#e3e3e3"/><rect x="832.5" y="55.5" width="27.75" height="27.75" fill="#846abf"/><path d="M 832.5 83.25 A 27.75 27.75 0 0 1 860.25 55.5 L 860.25 62.4375 A 20.8125 20.8125 0 0 0 839.4375 83.25" fill="#6f50b7"/><rect x="860.25" y="55.5" width="27.75" height="27.75" fill="#dcdae0"/><path d="M 860.25 55.5 A 27.75 27.75 0 0 1 888 83.25 L 881.0625 83.25 A 20.8125 20.8125 0 0 0 860.25 62.4375" fill="#ac9dce"/><rect x="832.5" y="83.25" width="27.75" height="27.75" fill="#b7abd2"/><path d="M 832.5 83.25 A 27.75 27.75 0 0 0 860.25 111 L 860.25 104.0625 A 20.8125 20.8125 0 0 1 839.4375 83.25" fill="#603cb1"/><rect x="860.25" y="83.25" width="27.75" height="27.75" fill="#856cbf"/><path d="M 860.25 111 A 27.75 27.75 0 0 0 888 83.25 L 881.0625 83.25 A 20.8125 20.8125 0 0 1 860.25 104.0625" fill="#aea0cf"/><rect x="888" y="55.5" width="55.5" height="55.5" fill="#5b36b0"/><polygon points="888,55.5 943.5,55.5 943.5,111" fill="#bcb2d4"/><rect x="943.5" y="55.5" width="55.5" height="55.5" fill="#b3a6d1"/><path d="M 943.5 55.5 A 55.5 55.5 0 0 0 999 111 L 999 55.5L943.5 55.5" fill="#8065bd"/><rect x="999" y="55.5" width="55.5" height="55.5" fill="#7253b8"/><path d="M 999 55.5 A 55.5 55.5 0 0 0 1054.5 111 L 1054.5 55.5L999 55.5" fill="#dddce1"/><rect x="1054.5" y="55.5" width="55.5" height="55.5" fill="#c4bcd7"/><rect x="1054.5" y="55.5" width="55.5" height="55.5" fill="#5f3bb1"/><rect x="0" y="111" width="55.5" height="55.5" fill="#9d89c8"/><polygon points="0,111 55.5,111 0,166.5" fill="#b6a9d2"/><rect x="55.5" y="111" width="55.5" height="55.5" fill="#a797cc"/><polygon points="55.5,111 111,166.5 55.5,166.5" fill="#7557b9"/><rect x="111" y="111" width="55.5" height="55.5" fill="#e3e3e3"/><rect x="111" y="111" width="27.75" height="27.75" fill="#afa1cf"/><path d="M 111 138.75 A 27.75 27.75 0 0 0 138.75 111 L 111 111L111 138.75" fill="#6947b5"/><rect x="138.75" y="111" width="27.75" height="27.75" fill="#4317a6"/><path d="M 138.75 111 A 27.75 27.75 0 0 0 166.5 138.75 L 166.5 111L138.75 111" fill="#a290ca"/><rect x="111" y="138.75" width="27.75" height="27.75" fill="#5e3ab1"/><path d="M 111 138.75 A 27.75 27.75 0 0 1 138.75 166.5 L 111 166.5L111 138.75" fill="#dedde1"/><rect x="138.75" y="138.75" width="27.75" height="27.75" fill="#886fc1"/><path d="M 138.75 166.5 A 27.75 27.75 0 0 1  166.5 138.75 L 166.5 166.5L138.75 166.5" fill="#ab9cce"/><rect x="166.5" y="111" width="55.5" height="55.5" fill="#e3e3e3"/><rect x="166.5" y="111" width="27.75" height="27.75" fill="#aa9acd"/><circle cx="180.375" cy="124.875" r="13.875" fill="#5b37b0"/><rect x="194.25" y="111" width="27.75" height="27.75" fill="#4013a5"/><rect x="194.25" y="111" width="27.75" height="27.75" fill="#471ca8"/><rect x="166.5" y="138.75" width="27.75" height="27.75" fill="#5d38b0"/><circle cx="180.375" cy="152.625" r="13.875" fill="#4317a6"/><rect x="194.25" y="138.75" width="27.75" height="27.75" fill="#5a35af"/><rect x="194.25" y="138.75" width="27.75" height="27.75" fill="#6a49b5"/><rect x="222" y="111" width="55.5" height="55.5" fill="#d4d0dd"/><polygon points="222,111 277.5,111 222,166.5" fill="#aea0cf"/><rect x="277.5" y="111" width="55.5" height="55.5" fill="#e3e3e3"/><rect x="277.5" y="111" width="27.75" height="27.75" fill="#7455b9"/><polygon points="305.25,111 305.25,138.75 277.5,138.75" fill="#b5a9d2"/><rect x="305.25" y="111" width="27.75" height="27.75" fill="#6e4eb7"/><polygon points="305.25,111 333,138.75 305.25,138.75" fill="#9d8ac8"/><rect x="277.5" y="138.75" width="27.75" height="27.75" fill="#c9c2d9"/><polygon points="277.5,138.75 305.25,138.75 277.5,166.5" fill="#a594cb"/><rect x="305.25" y="138.75" width="27.75" height="27.75" fill="#8e77c3"/><polygon points="305.25,138.75 333,138.75 333,166.5" fill="#afa1cf"/><rect x="333" y="111" width="55.5" height="55.5" fill="#e3e3e3"/><rect x="333" y="111" width="27.75" height="27.75" fill="#461ca8"/><polygon points="360.75,111 360.75,138.75 333,138.75" fill="#542dad"/><rect x="360.75" y="111" width="27.75" height="27.75" fill="#3b0ea4"/><polygon points="360.75,111 388.5,138.75 360.75,138.75" fill="#a898cd"/><rect x="333" y="138.75" width="27.75" height="27.75" fill="#c5bdd8"/><polygon points="333,138.75 360.75,138.75 360.75,166.5" fill="#a392cb"/><rect x="360.75" y="138.75" width="27.75" height="27.75" fill="#d8d5df"/><polygon points="360.75,138.75 388.5,138.75 360.75,166.5" fill="#b5a9d2"/><rect x="388.5" y="111" width="55.5" height="55.5" fill="#8a72c1"/><rect x="388.5" y="111" width="55.5" height="55.5" fill="#8267be"/><rect x="444" y="111" width="55.5" height="55.5" fill="#4c22aa"/><rect x="444" y="111" width="55.5" height="55.5" fill="#603db1"/><rect x="499.5" y="111" width="55.5" height="55.5" fill="#e3e3e3"/><rect x="499.5" y="111" width="27.75" height="27.75" fill="#dbd8e0"/><polygon points="527.25,111 527.25,138.75 499.5,138.75" fill="#3c0fa4"/><rect x="527.25" y="111" width="27.75" height="27.75" fill="#8971c1"/><polygon points="527.25,111 555,138.75 527.25,138.75" fill="#7a5ebb"/><rect x="499.5" y="138.75" width="27.75" height="27.75" fill="#b5a8d2"/><polygon points="499.5,138.75 527.25,138.75 527.25,166.5" fill="#8268be"/><rect x="527.25" y="138.75" width="27.75" height="27.75" fill="#603cb1"/><polygon points="527.25,138.75 555,138.75 527.25,166.5" fill="#512aac"/><rect x="555" y="111" width="55.5" height="55.5" fill="#e3e3e3"/><rect x="555" y="111" width="27.75" height="27.75" fill="#dddbe1"/><circle cx="568.875" cy="124.875" r="13.875" fill="#795dbb"/><rect x="582.75" y="111" width="27.75" height="27.75" fill="#baafd3"/><rect x="582.75" y="111" width="27.75" height="27.75" fill="#451aa7"/><rect x="555" y="138.75" width="27.75" height="27.75" fill="#b5a8d1"/><circle cx="568.875" cy="152.625" r="13.875" fill="#c4bbd7"/><rect x="582.75" y="138.75" width="27.75" height="27.75" fill="#a797cc"/><rect x="582.75" y="138.75" width="27.75" height="27.75" fill="#c7bfd8"/><rect x="610.5" y="111" width="55.5" height="55.5" fill="#e3e3e3"/><rect x="610.5" y="111" width="27.75" height="27.75" fill="#5e39b0"/><polygon points="638.25,111 638.25,138.75 610.5,138.75" fill="#a999cd"/><rect x="638.25" y="111" width="27.75" height="27.75" fill="#7d61bc"/><polygon points="638.25,111 666,111 638.25,138.75" fill="#937dc5"/><rect x="610.5" y="138.75" width="27.75" height="27.75" fill="#7759ba"/><polygon points="610.5,138.75 638.25,138.75 638.25,166.5" fill="#d4d0dd"/><rect x="638.25" y="138.75" width="27.75" height="27.75" fill="#623fb2"/><polygon points="638.25,138.75 666,166.5 638.25,166.5" fill="#e1e0e2"/><rect x="666" y="111" width="55.5" height="55.5" fill="#e3e3e3"/><rect x="666" y="111" width="27.75" height="27.75" fill="#4116a6"/><polygon points="693.75,111 693.75,138.75 666,138.75" fill="#5832ae"/><rect x="693.75" y="111" width="27.75" height="27.75" fill="#532cac"/><polygon points="693.75,111 721.5,138.75 693.75,138.75" fill="#5630ae"/><rect x="666" y="138.75" width="27.75" height="27.75" fill="#9e8bc9"/><polygon points="666,138.75 693.75,138.75 693.75,166.5" fill="#5a35af"/><rect x="693.75" y="138.75" width="27.75" height="27.75" fill="#5f3bb1"/><polygon points="693.75,138.75 721.5,138.75 693.75,166.5" fill="#3f13a5"/><rect x="721.5" y="111" width="55.5" height="55.5" fill="#e3e3e3"/><rect x="721.5" y="111" width="27.75" height="27.75" fill="#6a49b5"/><path d="M 721.5 138.75 A 27.75 27.75 0 0 1  749.25 111 L 749.25 138.75L721.5 138.75" fill="#d0cbdc"/><rect x="749.25" y="111" width="27.75" height="27.75" fill="#6f50b7"/><path d="M 749.25 111 A 27.75 27.75 0 0 1 777 138.75 L 749.25 138.75L749.25 111" fill="#8f78c3"/><rect x="721.5" y="138.75" width="27.75" height="27.75" fill="#9782c6"/><path d="M 721.5 138.75 A 27.75 27.75 0 0 0 749.25 166.5 L 749.25 138.75L721.5 138.75" fill="#d3cedd"/><rect x="749.25" y="138.75" width="27.75" height="27.75" fill="#7f64bd"/><path d="M 749.25 166.5 A 27.75 27.75 0 0 0 777 138.75 L 749.25 138.75L749.25 166.5" fill="#532cac"/><rect x="777" y="111" width="55.5" height="55.5" fill="#e3e3e3"/><rect x="777" y="111" width="27.75" height="27.75" fill="#a796cc"/><polygon points="804.75,111 804.75,138.75 777,138.75" fill="#6442b3"/><rect x="804.75" y="111" width="27.75" height="27.75" fill="#4f27ab"/><polygon points="804.75,111 832.5,138.75 804.75,138.75" fill="#8166be"/><rect x="777" y="138.75" width="27.75" height="27.75" fill="#6948b5"/><polygon points="777,138.75 804.75,138.75 777,166.5" fill="#3f12a5"/><rect x="804.75" y="138.75" width="27.75" height="27.75" fill="#c1b8d6"/><polygon points="804.75,138.75 832.5,138.75 832.5,166.5" fill="#3d0fa4"/><rect x="832.5" y="111" width="55.5" height="55.5" fill="#e3e3e3"/><rect x="832.5" y="111" width="27.75" height="27.75" fill="#a695cc"/><path d="M 832.5 111 A 27.75 27.75 0 0 0 860.25 138.75 L 860.25 111L832.5 111" fill="#b3a6d1"/><rect x="860.25" y="111" width="27.75" height="27.75" fill="#846abf"/><path d="M 860.25 138.75 A 27.75 27.75 0 0 0 888 111 L 860.25 111L860.25 138.75" fill="#927cc4"/><rect x="832.5" y="138.75" width="27.75" height="27.75" fill="#b3a6d1"/><path d="M 832.5 166.5 A 27.75 27.75 0 0 1  860.25 138.75 L 860.25 166.5L832.5 166.5" fill="#7a5dbb"/><rect x="860.25" y="138.75" width="27.75" height="27.75" fill="#5c37b0"/><path d="M 860.25 138.75 A 27.75 27.75 0 0 1 888 166.5 L 860.25 166.5L860.25 138.75" fill="#dedce1"/><rect x="888" y="111" width="55.5" height="55.5" fill="#e3e3e3"/><rect x="888" y="111" width="27.75" height="27.75" fill="#6a49b5"/><path d="M 888 138.75 A 27.75 27.75 0 0 1  915.75 111 L 915.75 138.75L888 138.75" fill="#aa9bce"/><rect x="915.75" y="111" width="27.75" height="27.75" fill="#4a20a9"/><path d="M 915.75 111 A 27.75 27.75 0 0 1 943.5 138.75 L 915.75 138.75L915.75 111" fill="#917ac4"/><rect x="888" y="138.75" width="27.75" height="27.75" fill="#a493cb"/><path d="M 888 138.75 A 27.75 27.75 0 0 0 915.75 166.5 L 915.75 138.75L888 138.75" fill="#dad8e0"/><rect x="915.75" y="138.75" width="27.75" height="27.75" fill="#5832ae"/><path d="M 915.75 166.5 A 27.75 27.75 0 0 0 943.5 138.75 L 915.75 138.75L915.75 166.5" fill="#7152b8"/><rect x="943.5" y="111" width="55.5" height="55.5" fill="#4e26ab"/><rect x="943.5" y="111" width="55.5" height="55.5" fill="#542ead"/><rect x="999" y="111" width="55.5" height="55.5" fill="#e3e3e3"/><rect x="999" y="111" width="27.75" height="27.75" fill="#d3cedd"/><path d="M 999 138.75 A 27.75 27.75 0 0 1  1026.75 111 L 1026.75 138.75L999 138.75" fill="#c7bfd8"/><rect x="1026.75" y="111" width="27.75" height="27.75" fill="#5a34af"/><path d="M 1026.75 111 A 27.75 27.75 0 0 1 1054.5 138.75 L 1026.75 138.75L1026.75 111" fill="#d6d2de"/><rect x="999" y="138.75" width="27.75" height="27.75" fill="#bfb5d5"/><path d="M 999 138.75 A 27.75 27.75 0 0 0 1026.75 166.5 L 1026.75 138.75L999 138.75" fill="#6847b4"/><rect x="1026.75" y="138.75" width="27.75" height="27.75" fill="#a999cd"/><path d="M 1026.75 166.5 A 27.75 27.75 0 0 0 1054.5 138.75 L 1026.75 138.75L1026.75 166.5" fill="#7355b9"/><rect x="1054.5" y="111" width="55.5" height="55.5" fill="#856bbf"/><rect x="1054.5" y="111" width="55.5" height="55.5" fill="#562fad"/><rect x="0" y="166.5" width="55.5" height="55.5" fill="#e3e3e3"/><rect x="0" y="166.5" width="27.75" height="27.75" fill="#3e11a4"/><polygon points="27.75,166.5 27.75,194.25 0,194.25" fill="#5f3cb1"/><rect x="27.75" y="166.5" width="27.75" height="27.75" fill="#c3bad7"/><polygon points="27.75,166.5 55.5,194.25 27.75,194.25" fill="#7a5ebb"/><rect x="0" y="194.25" width="27.75" height="27.75" fill="#917ac4"/><polygon points="0,194.25 27.75,194.25 27.75,222" fill="#6644b4"/><rect x="27.75" y="194.25" width="27.75" height="27.75" fill="#917bc4"/><polygon points="27.75,194.25 55.5,194.25 27.75,222" fill="#8970c1"/><rect x="55.5" y="166.5" width="55.5" height="55.5" fill="#beb4d5"/><rect x="55.5" y="166.5" width="55.5" height="55.5" fill="#beb4d5"/><rect x="111" y="166.5" width="55.5" height="55.5" fill="#e3e3e3"/><rect x="111" y="166.5" width="27.75" height="27.75" fill="#d0cbdc"/><path d="M 111 194.25 A 27.75 27.75 0 0 0 138.75 166.5 L 111 166.5L111 194.25" fill="#6d4db6"/><rect x="138.75" y="166.5" width="27.75" height="27.75" fill="#4c22aa"/><path d="M 138.75 166.5 A 27.75 27.75 0 0 0 166.5 194.25 L 166.5 166.5L138.75 166.5" fill="#603cb1"/><rect x="111" y="194.25" width="27.75" height="27.75" fill="#d6d2de"/><path d="M 111 194.25 A 27.75 27.75 0 0 1 138.75 222 L 111 222L111 194.25" fill="#7354b8"/><rect x="138.75" y="194.25" width="27.75" height="27.75" fill="#4317a6"/><path d="M 138.75 222 A 27.75 27.75 0 0 1  166.5 194.25 L 166.5 222L138.75 222" fill="#481ea8"/><rect x="166.5" y="166.5" width="55.5" height="55.5" fill="#e3e3e3"/><rect x="166.5" y="166.5" width="27.75" height="27.75" fill="#775aba"/><path d="M 166.5 194.25 A 27.75 27.75 0 0 1 194.25 166.5 L 194.25 173.4375 A 20.8125 20.8125 0 0 0 173.4375 194.25" fill="#b8acd3"/><rect x="194.25" y="166.5" width="27.75" height="27.75" fill="#5731ae"/><path d="M 194.25 166.5 A 27.75 27.75 0 0 1 222 194.25 L 215.0625 194.25 A 20.8125 20.8125 0 0 0 194.25 173.4375" fill="#552ead"/><rect x="166.5" y="194.25" width="27.75" height="27.75" fill="#8e77c3"/><path d="M 166.5 194.25 A 27.75 27.75 0 0 0 194.25 222 L 194.25 215.0625 A 20.8125 20.8125 0 0 1 173.4375 194.25" fill="#cac4da"/><rect x="194.25" y="194.25" width="27.75" height="27.75" fill="#603cb1"/><path d="M 194.25 222 A 27.75 27.75 0 0 0 222 194.25 L 215.0625 194.25 A 20.8125 20.8125 0 0 1 194.25 215.0625" fill="#b9aed3"/><rect x="222" y="166.5" width="55.5" height="55.5" fill="#6b4ab5"/><path d="M 222 166.5 A 55.5 55.5 0 0 1  277.5 222 L 222 166.5 A 55.5 55.5 0 0 0 277.5 222" fill="#8267be"/><rect x="277.5" y="166.5" width="55.5" height="55.5" fill="#6442b3"/><rect x="277.5" y="166.5" width="55.5" height="55.5" fill="#4e26ab"/><rect x="333" y="166.5" width="55.5" height="55.5" fill="#e3e3e3"/><rect x="333" y="166.5" width="27.75" height="27.75" fill="#7354b9"/><polygon points="360.75,166.5 360.75,194.25 333,194.25" fill="#5028ab"/><rect x="360.75" y="166.5" width="27.75" height="27.75" fill="#cec8db"/><polygon points="360.75,166.5 388.5,166.5 360.75,194.25" fill="#7658ba"/><rect x="333" y="194.25" width="27.75" height="27.75" fill="#5a35af"/><polygon points="333,194.25 360.75,194.25 360.75,222" fill="#bcb2d4"/><rect x="360.75" y="194.25" width="27.75" height="27.75" fill="#c8c1d9"/><polygon points="360.75,194.25 388.5,222 360.75,222" fill="#603cb1"/><rect x="388.5" y="166.5" width="55.5" height="55.5" fill="#7051b8"/><polygon points="388.5,166.5 444,166.5 388.5,222" fill="#6a49b5"/><rect x="444" y="166.5" width="55.5" height="55.5" fill="#7050b7"/><path d="M 444 166.5 A 55.5 55.5 0 0 1 499.5 222 L 444 222L444 166.5" fill="#8a72c1"/><rect x="499.5" y="166.5" width="55.5" height="55.5" fill="#d3cfdd"/><rect x="499.5" y="166.5" width="55.5" height="55.5" fill="#baafd3"/><rect x="555" y="166.5" width="55.5" height="55.5" fill="#947fc5"/><polygon points="555,166.5 610.5,222 555,222" fill="#b4a7d1"/><rect x="610.5" y="166.5" width="55.5" height="55.5" fill="#481da8"/><path d="M 610.5 222 A 55.5 55.5 0 0 1  666 166.5 L 610.5 222 A 55.5 55.5 0 0 0 666 166.5" fill="#6441b3"/><rect x="666" y="166.5" width="55.5" height="55.5" fill="#cfcadc"/><rect x="666" y="166.5" width="55.5" height="55.5" fill="#6c4cb6"/><rect x="721.5" y="166.5" width="55.5" height="55.5" fill="#5e39b1"/><rect x="721.5" y="166.5" width="55.5" height="55.5" fill="#a595cc"/><rect x="777" y="166.5" width="55.5" height="55.5" fill="#e3e3e3"/><rect x="777" y="166.5" width="27.75" height="27.75" fill="#7d62bc"/><path d="M 777 194.25 A 27.75 27.75 0 0 0 804.75 166.5 L 777 166.5L777 194.25" fill="#7b5fbc"/><rect x="804.75" y="166.5" width="27.75" height="27.75" fill="#613db2"/><path d="M 804.75 166.5 A 27.75 27.75 0 0 0 832.5 194.25 L 832.5 166.5L804.75 166.5" fill="#3d10a4"/><rect x="777" y="194.25" width="27.75" height="27.75" fill="#5a35af"/><path d="M 777 194.25 A 27.75 27.75 0 0 1 804.75 222 L 777 222L777 194.25" fill="#9c88c8"/><rect x="804.75" y="194.25" width="27.75" height="27.75" fill="#e1e0e2"/><path d="M 804.75 222 A 27.75 27.75 0 0 1  832.5 194.25 L 832.5 222L804.75 222" fill="#e3e2e3"/><rect x="832.5" y="166.5" width="55.5" height="55.5" fill="#dedde1"/><polygon points="888,166.5 888,222 832.5,222" fill="#9681c6"/><rect x="888" y="166.5" width="55.5" height="55.5" fill="#e3e3e3"/><rect x="888" y="166.5" width="27.75" height="27.75" fill="#9d8ac8"/><polygon points="915.75,166.5 915.75,194.25 888,194.25" fill="#ac9dce"/><rect x="915.75" y="166.5" width="27.75" height="27.75" fill="#6e4eb7"/><polygon points="915.75,166.5 943.5,194.25 915.75,194.25" fill="#c4bcd7"/><rect x="888" y="194.25" width="27.75" height="27.75" fill="#876ec0"/><polygon points="888,194.25 915.75,194.25 888,222" fill="#6745b4"/><rect x="915.75" y="194.25" width="27.75" height="27.75" fill="#dcdae0"/><polygon points="915.75,194.25 943.5,194.25 943.5,222" fill="#6b4ab5"/><rect x="943.5" y="166.5" width="55.5" height="55.5" fill="#e3e3e3"/><rect x="943.5" y="166.5" width="27.75" height="27.75" fill="#aa9acd"/><path d="M 943.5 194.25 A 27.75 27.75 0 0 0 971.25 166.5 L 943.5 166.5L943.5 194.25" fill="#9580c5"/><rect x="971.25" y="166.5" width="27.75" height="27.75" fill="#7050b7"/><path d="M 971.25 166.5 A 27.75 27.75 0 0 0 999 194.25 L 999 166.5L971.25 166.5" fill="#9783c6"/><rect x="943.5" y="194.25" width="27.75" height="27.75" fill="#5e3ab1"/><path d="M 943.5 194.25 A 27.75 27.75 0 0 1 971.25 222 L 943.5 222L943.5 194.25" fill="#b4a7d1"/><rect x="971.25" y="194.25" width="27.75" height="27.75" fill="#927dc5"/><path d="M 971.25 222 A 27.75 27.75 0 0 1  999 194.25 L 999 222L971.25 222" fill="#8166be"/><rect x="999" y="166.5" width="55.5" height="55.5" fill="#957fc5"/><rect x="999" y="166.5" width="55.5" height="55.5" fill="#d1ccdc"/><rect x="1054.5" y="166.5" width="55.5" height="55.5" fill="#e3e3e3"/><rect x="1054.5" y="166.5" width="27.75" height="27.75" fill="#d7d3de"/><path d="M 1054.5 194.25 A 27.75 27.75 0 0 0 1082.25 166.5 L 1054.5 166.5L1054.5 194.25" fill="#876ec0"/><rect x="1082.25" y="166.5" width="27.75" height="27.75" fill="#8267be"/><path d="M 1082.25 166.5 A 27.75 27.75 0 0 0 1110 194.25 L 1110 166.5L1082.25 166.5" fill="#5730ae"/><rect x="1054.5" y="194.25" width="27.75" height="27.75" fill="#4419a7"/><path d="M 1054.5 194.25 A 27.75 27.75 0 0 1 1082.25 222 L 1054.5 222L1054.5 194.25" fill="#a695cc"/><rect x="1082.25" y="194.25" width="27.75" height="27.75" fill="#6e4eb7"/><path d="M 1082.25 222 A 27.75 27.75 0 0 1  1110 194.25 L 1110 222L1082.25 222" fill="#bbafd4"/></g></svg>