<?xml version="1.0" standalone="no"?><svg xmlns:xlink="http://www.w3.org/1999/xlink" xmlns="http://www.w3.org/2000/svg" viewBox="0 0 1000 450" preserveAspectRatio="xMaxYMax slice"><g transform="scale(0.9009009009009009)"><rect x="0" y="0" width="1110" height="499.5" fill="#F4D6CC"/><rect x="0" y="0" width="55.5" height="55.5" fill="#f5b2bd"/><polygon points="55.5,0 55.5,55.5 0,55.5" fill="#eacbca"/><rect x="55.5" y="0" width="55.5" height="55.5" fill="#F4D6CC"/><rect x="55.5" y="0" width="27.75" height="27.75" fill="#f4b9c0"/><polygon points="55.5,0 83.25,27.75 55.5,27.75" fill="#f58aae"/><rect x="83.25" y="0" width="27.75" height="27.75" fill="#491da6"/><polygon points="83.25,0 111,0 111,27.75" fill="#6b42ae"/><rect x="55.5" y="27.75" width="27.75" height="27.75" fill="#f5a2b7"/><polygon points="55.5,27.75 83.25,27.75 83.25,55.5" fill="#f596b2"/><rect x="83.25" y="27.75" width="27.75" height="27.75" fill="#f4c3c4"/><polygon points="111,27.75 111,55.5 83.25,55.5" fill="#f64793"/><rect x="111" y="0" width="55.5" height="55.5" fill="#f7368c"/><polygon points="111,0 166.5,0 111,55.5" fill="#f59bb4"/><rect x="166.5" y="0" width="55.5" height="55.5" fill="#F4D6CC"/><rect x="166.5" y="0" width="27.75" height="27.75" fill="#f57fa9"/><polygon points="194.25,0 194.25,27.75 166.5,27.75" fill="#f65b9b"/><rect x="194.25" y="0" width="27.75" height="27.75" fill="#5226a8"/><polygon points="194.25,0 222,0 222,27.75" fill="#673dad"/><rect x="166.5" y="27.75" width="27.75" height="27.75" fill="#572ba9"/><polygon points="166.5,27.75 194.25,27.75 166.5,55.5" fill="#f5a3b8"/><rect x="194.25" y="27.75" width="27.75" height="27.75" fill="#f4d5cc"/><polygon points="194.25,27.75 222,27.75 194.25,55.5" fill="#f58aad"/><rect x="222" y="0" width="55.5" height="55.5" fill="#F4D6CC"/><rect x="222" y="0" width="27.75" height="27.75" fill="#734ab0"/><polygon points="222,0 249.75,0 249.75,27.75" fill="#f6619d"/><rect x="249.75" y="0" width="27.75" height="27.75" fill="#bb98c0"/><polygon points="249.75,0 277.5,0 249.75,27.75" fill="#5c31ab"/><rect x="222" y="27.75" width="27.75" height="27.75" fill="#dfbfc7"/><polygon points="222,27.75 249.75,27.75 222,55.5" fill="#bf9dc0"/><rect x="249.75" y="27.75" width="27.75" height="27.75" fill="#5d32ab"/><polygon points="277.5,27.75 277.5,55.5 249.75,55.5" fill="#c09ec1"/><rect x="277.5" y="0" width="55.5" height="55.5" fill="#f64e96"/><polygon points="277.5,0 333,55.5 277.5,55.5" fill="#ab86bc"/><rect x="333" y="0" width="55.5" height="55.5" fill="#f679a7"/><polygon points="333,0 388.5,0 388.5,55.5" fill="#f72e89"/><rect x="388.5" y="0" width="55.5" height="55.5" fill="#F4D6CC"/><rect x="388.5" y="0" width="27.75" height="27.75" fill="#946eb7"/><polygon points="388.5,0 416.25,0 416.25,27.75" fill="#f7388d"/><rect x="416.25" y="0" width="27.75" height="27.75" fill="#f4d6cc"/><polygon points="416.25,0 444,0 416.25,27.75" fill="#f65096"/><rect x="388.5" y="27.75" width="27.75" height="27.75" fill="#af8bbd"/><polygon points="388.5,27.75 416.25,27.75 388.5,55.5" fill="#cfaec4"/><rect x="416.25" y="27.75" width="27.75" height="27.75" fill="#c5a3c2"/><polygon points="416.25,27.75 444,55.5 416.25,55.5" fill="#f67da8"/><rect x="444" y="0" width="55.5" height="55.5" fill="#ccaac3"/><polygon points="499.5,0 499.5,55.5 444,55.5" fill="#f66ca1"/><rect x="499.5" y="0" width="55.5" height="55.5" fill="#b28ebd"/><polygon points="499.5,0 555,0 555,55.5" fill="#f2d4cc"/><rect x="555" y="0" width="55.5" height="55.5" fill="#f591b0"/><polygon points="555,0 610.5,0 555,55.5" fill="#f67da8"/><rect x="610.5" y="0" width="55.5" height="55.5" fill="#F4D6CC"/><rect x="610.5" y="0" width="27.75" height="27.75" fill="#7a51b1"/><polygon points="610.5,0 638.25,0 638.25,27.75" fill="#855eb4"/><rect x="638.25" y="0" width="27.75" height="27.75" fill="#f669a0"/><polygon points="666,0 666,27.75 638.25,27.75" fill="#f6619d"/><rect x="610.5" y="27.75" width="27.75" height="27.75" fill="#8159b3"/><polygon points="610.5,27.75 638.25,27.75 610.5,55.5" fill="#9c77b9"/><rect x="638.25" y="27.75" width="27.75" height="27.75" fill="#b592be"/><polygon points="638.25,27.75 666,55.5 638.25,55.5" fill="#9e79b9"/><rect x="666" y="0" width="55.5" height="55.5" fill="#f5aaba"/><polygon points="721.5,0 721.5,55.5 666,55.5" fill="#683ead"/><rect x="721.5" y="0" width="55.5" height="55.5" fill="#8f69b6"/><polygon points="721.5,0 777,0 777,55.5" fill="#7951b1"/><rect x="777" y="0" width="55.5" height="55.5" fill="#F4D6CC"/><rect x="777" y="0" width="27.75" height="27.75" fill="#bd9ac0"/><polygon points="777,0 804.75,0 804.75,27.75" fill="#f5b1bd"/><rect x="804.75" y="0" width="27.75" height="27.75" fill="#f583ab"/><polygon points="832.5,0 832.5,27.75 804.75,27.75" fill="#f5a2b7"/><rect x="777" y="27.75" width="27.75" height="27.75" fill="#ab87bc"/><polygon points="777,27.75 804.75,55.5 777,55.5" fill="#b592be"/><rect x="804.75" y="27.75" width="27.75" height="27.75" fill="#f72d88"/><polygon points="832.5,27.75 832.5,55.5 804.75,55.5" fill="#f594b1"/><rect x="832.5" y="0" width="55.5" height="55.5" fill="#f7378c"/><polygon points="832.5,0 888,0 832.5,55.5" fill="#d6b5c5"/><rect x="888" y="0" width="55.5" height="55.5" fill="#f5a4b8"/><polygon points="888,0 943.5,0 888,55.5" fill="#f4cec9"/><rect x="943.5" y="0" width="55.5" height="55.5" fill="#F4D6CC"/><rect x="943.5" y="0" width="27.75" height="27.75" fill="#f59db5"/><polygon points="943.5,0 971.25,0 943.5,27.75" fill="#8861b4"/><rect x="971.25" y="0" width="27.75" height="27.75" fill="#f4bcc1"/><polygon points="971.25,0 999,0 971.25,27.75" fill="#e3c3c8"/><rect x="943.5" y="27.75" width="27.75" height="27.75" fill="#3b0da3"/><polygon points="943.5,27.75 971.25,27.75 943.5,55.5" fill="#8d67b5"/><rect x="971.25" y="27.75" width="27.75" height="27.75" fill="#f64b94"/><polygon points="971.25,27.75 999,27.75 971.25,55.5" fill="#e3c4c8"/><rect x="999" y="0" width="55.5" height="55.5" fill="#f4c2c4"/><polygon points="999,0 1054.5,55.5 999,55.5" fill="#f5a7b9"/><rect x="1054.5" y="0" width="55.5" height="55.5" fill="#f670a3"/><polygon points="1054.5,0 1110,0 1110,55.5" fill="#f7398d"/><rect x="0" y="55.5" width="55.5" height="55.5" fill="#f674a5"/><polygon points="0,55.5 55.5,55.5 0,111" fill="#f582aa"/><rect x="55.5" y="55.5" width="55.5" height="55.5" fill="#f72886"/><polygon points="111,55.5 111,111 55.5,111" fill="#e8c9c9"/><rect x="111" y="55.5" width="55.5" height="55.5" fill="#f65096"/><polygon points="111,55.5 166.5,55.5 166.5,111" fill="#a985bc"/><rect x="166.5" y="55.5" width="55.5" height="55.5" fill="#F4D6CC"/><rect x="166.5" y="55.5" width="27.75" height="27.75" fill="#6339ac"/><polygon points="166.5,55.5 194.25,55.5 194.25,83.25" fill="#754cb0"/><rect x="194.25" y="55.5" width="27.75" height="27.75" fill="#f65899"/><polygon points="222,55.5 222,83.25 194.25,83.25" fill="#683ead"/><rect x="166.5" y="83.25" width="27.75" height="27.75" fill="#f65096"/><polygon points="166.5,83.25 194.25,83.25 194.25,111" fill="#d1b0c4"/><rect x="194.25" y="83.25" width="27.75" height="27.75" fill="#e3c3c8"/><polygon points="194.25,83.25 222,83.25 194.25,111" fill="#7e56b2"/><rect x="222" y="55.5" width="55.5" height="55.5" fill="#F4D6CC"/><rect x="222" y="55.5" width="27.75" height="27.75" fill="#f73f8f"/><polygon points="222,55.5 249.75,83.25 222,83.25" fill="#f65b9b"/><rect x="249.75" y="55.5" width="27.75" height="27.75" fill="#f5aaba"/><polygon points="277.5,55.5 277.5,83.25 249.75,83.25" fill="#ceadc4"/><rect x="222" y="83.25" width="27.75" height="27.75" fill="#f4c3c4"/><polygon points="222,83.25 249.75,83.25 222,111" fill="#481ca6"/><rect x="249.75" y="83.25" width="27.75" height="27.75" fill="#e6c7c9"/><polygon points="249.75,83.25 277.5,83.25 249.75,111" fill="#f65398"/><rect x="277.5" y="55.5" width="55.5" height="55.5" fill="#7d54b2"/><polygon points="277.5,55.5 333,55.5 333,111" fill="#f587ac"/><rect x="333" y="55.5" width="55.5" height="55.5" fill="#F4D6CC"/><rect x="333" y="55.5" width="27.75" height="27.75" fill="#f7378c"/><polygon points="333,55.5 360.75,55.5 360.75,83.25" fill="#f4bcc2"/><rect x="360.75" y="55.5" width="27.75" height="27.75" fill="#f672a4"/><polygon points="360.75,55.5 388.5,55.5 360.75,83.25" fill="#a47fba"/><rect x="333" y="83.25" width="27.75" height="27.75" fill="#8961b4"/><polygon points="333,83.25 360.75,111 333,111" fill="#f65197"/><rect x="360.75" y="83.25" width="27.75" height="27.75" fill="#f581aa"/><polygon points="360.75,83.25 388.5,111 360.75,111" fill="#f64e95"/><rect x="388.5" y="55.5" width="55.5" height="55.5" fill="#582daa"/><polygon points="388.5,55.5 444,55.5 388.5,111" fill="#c7a5c2"/><rect x="444" y="55.5" width="55.5" height="55.5" fill="#F4D6CC"/><rect x="444" y="55.5" width="27.75" height="27.75" fill="#f7388d"/><polygon points="444,55.5 471.75,83.25 444,83.25" fill="#f6639e"/><rect x="471.75" y="55.5" width="27.75" height="27.75" fill="#f679a7"/><polygon points="471.75,55.5 499.5,55.5 471.75,83.25" fill="#f5b3be"/><rect x="444" y="83.25" width="27.75" height="27.75" fill="#4315a5"/><polygon points="444,83.25 471.75,111 444,111" fill="#6136ac"/><rect x="471.75" y="83.25" width="27.75" height="27.75" fill="#ccaac3"/><polygon points="499.5,83.25 499.5,111 471.75,111" fill="#784fb1"/><rect x="499.5" y="55.5" width="55.5" height="55.5" fill="#F4D6CC"/><rect x="499.5" y="55.5" width="27.75" height="27.75" fill="#ba97bf"/><polygon points="499.5,55.5 527.25,83.25 499.5,83.25" fill="#3f11a4"/><rect x="527.25" y="55.5" width="27.75" height="27.75" fill="#b08cbd"/><polygon points="527.25,55.5 555,83.25 527.25,83.25" fill="#ab86bc"/><rect x="499.5" y="83.25" width="27.75" height="27.75" fill="#a37eba"/><polygon points="499.5,83.25 527.25,111 499.5,111" fill="#f74291"/><rect x="527.25" y="83.25" width="27.75" height="27.75" fill="#f4c3c4"/><polygon points="527.25,83.25 555,83.25 555,111" fill="#f4c7c6"/><rect x="555" y="55.5" width="55.5" height="55.5" fill="#F4D6CC"/><rect x="555" y="55.5" width="27.75" height="27.75" fill="#f5b7c0"/><polygon points="555,55.5 582.75,55.5 555,83.25" fill="#f67ca8"/><rect x="582.75" y="55.5" width="27.75" height="27.75" fill="#f65e9c"/><polygon points="582.75,55.5 610.5,55.5 610.5,83.25" fill="#f5b4be"/><rect x="555" y="83.25" width="27.75" height="27.75" fill="#a27dba"/><polygon points="582.75,83.25 582.75,111 555,111" fill="#f7398d"/><rect x="582.75" y="83.25" width="27.75" height="27.75" fill="#d4b3c5"/><polygon points="610.5,83.25 610.5,111 582.75,111" fill="#a682bb"/><rect x="610.5" y="55.5" width="55.5" height="55.5" fill="#ddbec7"/><polygon points="610.5,55.5 666,111 610.5,111" fill="#f5b0bd"/><rect x="666" y="55.5" width="55.5" height="55.5" fill="#F4D6CC"/><rect x="666" y="55.5" width="27.75" height="27.75" fill="#6c42ae"/><polygon points="666,55.5 693.75,83.25 666,83.25" fill="#734ab0"/><rect x="693.75" y="55.5" width="27.75" height="27.75" fill="#f5acbb"/><polygon points="721.5,55.5 721.5,83.25 693.75,83.25" fill="#ebccca"/><rect x="666" y="83.25" width="27.75" height="27.75" fill="#f5b2be"/><polygon points="693.75,83.25 693.75,111 666,111" fill="#f4c6c6"/><rect x="693.75" y="83.25" width="27.75" height="27.75" fill="#4316a5"/><polygon points="721.5,83.25 721.5,111 693.75,111" fill="#a37eba"/><rect x="721.5" y="55.5" width="55.5" height="55.5" fill="#F4D6CC"/><rect x="721.5" y="55.5" width="27.75" height="27.75" fill="#9a74b8"/><polygon points="749.25,55.5 749.25,83.25 721.5,83.25" fill="#9e79b9"/><rect x="749.25" y="55.5" width="27.75" height="27.75" fill="#f5a6b9"/><polygon points="749.25,55.5 777,55.5 777,83.25" fill="#f72786"/><rect x="721.5" y="83.25" width="27.75" height="27.75" fill="#f72886"/><polygon points="721.5,83.25 749.25,83.25 749.25,111" fill="#f65899"/><rect x="749.25" y="83.25" width="27.75" height="27.75" fill="#f65598"/><polygon points="777,83.25 777,111 749.25,111" fill="#f72c88"/><rect x="777" y="55.5" width="55.5" height="55.5" fill="#f6669f"/><polygon points="832.5,55.5 832.5,111 777,111" fill="#4417a5"/><rect x="832.5" y="55.5" width="55.5" height="55.5" fill="#f7368c"/><polygon points="832.5,55.5 888,111 832.5,111" fill="#f598b3"/><rect x="888" y="55.5" width="55.5" height="55.5" fill="#F4D6CC"/><rect x="888" y="55.5" width="27.75" height="27.75" fill="#9771b7"/><polygon points="915.75,55.5 915.75,83.25 888,83.25" fill="#f1d3cb"/><rect x="915.75" y="55.5" width="27.75" height="27.75" fill="#ac88bc"/><polygon points="915.75,55.5 943.5,55.5 915.75,83.25" fill="#8f69b6"/><rect x="888" y="83.25" width="27.75" height="27.75" fill="#8b64b5"/><polygon points="888,83.25 915.75,83.25 915.75,111" fill="#f4c2c4"/><rect x="915.75" y="83.25" width="27.75" height="27.75" fill="#ac87bc"/><polygon points="915.75,83.25 943.5,111 915.75,111" fill="#f4cac7"/><rect x="943.5" y="55.5" width="55.5" height="55.5" fill="#f5b2be"/><polygon points="943.5,55.5 999,111 943.5,111" fill="#b18dbd"/><rect x="999" y="55.5" width="55.5" height="55.5" fill="#582caa"/><polygon points="1054.5,55.5 1054.5,111 999,111" fill="#f6659f"/><rect x="1054.5" y="55.5" width="55.5" height="55.5" fill="#cfaec4"/><polygon points="1054.5,55.5 1110,55.5 1110,111" fill="#3e10a4"/><rect x="0" y="111" width="55.5" height="55.5" fill="#F4D6CC"/><rect x="0" y="111" width="27.75" height="27.75" fill="#f4bac1"/><polygon points="27.75,111 27.75,138.75 0,138.75" fill="#4c1fa7"/><rect x="27.75" y="111" width="27.75" height="27.75" fill="#b490be"/><polygon points="27.75,111 55.5,138.75 27.75,138.75" fill="#5a2faa"/><rect x="0" y="138.75" width="27.75" height="27.75" fill="#4a1da6"/><polygon points="27.75,138.75 27.75,166.5 0,166.5" fill="#f64893"/><rect x="27.75" y="138.75" width="27.75" height="27.75" fill="#f5a1b7"/><polygon points="55.5,138.75 55.5,166.5 27.75,166.5" fill="#f73e8f"/><rect x="55.5" y="111" width="55.5" height="55.5" fill="#F4D6CC"/><rect x="55.5" y="111" width="27.75" height="27.75" fill="#c4a2c1"/><polygon points="55.5,111 83.25,111 83.25,138.75" fill="#f4d0c9"/><rect x="83.25" y="111" width="27.75" height="27.75" fill="#f65297"/><polygon points="111,111 111,138.75 83.25,138.75" fill="#f6629d"/><rect x="55.5" y="138.75" width="27.75" height="27.75" fill="#f7318a"/><polygon points="55.5,138.75 83.25,138.75 83.25,166.5" fill="#f674a5"/><rect x="83.25" y="138.75" width="27.75" height="27.75" fill="#f72786"/><polygon points="83.25,138.75 111,138.75 83.25,166.5" fill="#f73089"/><rect x="111" y="111" width="55.5" height="55.5" fill="#4518a5"/><polygon points="111,111 166.5,166.5 111,166.5" fill="#f65c9b"/><rect x="166.5" y="111" width="55.5" height="55.5" fill="#eacbca"/><polygon points="166.5,111 222,111 166.5,166.5" fill="#c7a5c2"/><rect x="222" y="111" width="55.5" height="55.5" fill="#F4D6CC"/><rect x="222" y="111" width="27.75" height="27.75" fill="#5f34ab"/><polygon points="222,111 249.75,111 249.75,138.75" fill="#9973b8"/><rect x="249.75" y="111" width="27.75" height="27.75" fill="#8c65b5"/><polygon points="249.75,111 277.5,111 249.75,138.75" fill="#aa86bc"/><rect x="222" y="138.75" width="27.75" height="27.75" fill="#f5a1b7"/><polygon points="249.75,138.75 249.75,166.5 222,166.5" fill="#7951b1"/><rect x="249.75" y="138.75" width="27.75" height="27.75" fill="#f7318a"/><polygon points="249.75,138.75 277.5,138.75 277.5,166.5" fill="#f581aa"/><rect x="277.5" y="111" width="55.5" height="55.5" fill="#F4D6CC"/><rect x="277.5" y="111" width="27.75" height="27.75" fill="#5125a8"/><polygon points="277.5,111 305.25,111 277.5,138.75" fill="#f5a3b8"/><rect x="305.25" y="111" width="27.75" height="27.75" fill="#f7338b"/><polygon points="305.25,111 333,138.75 305.25,138.75" fill="#f582aa"/><rect x="277.5" y="138.75" width="27.75" height="27.75" fill="#5024a8"/><polygon points="277.5,138.75 305.25,138.75 305.25,166.5" fill="#f65397"/><rect x="305.25" y="138.75" width="27.75" height="27.75" fill="#9872b8"/><polygon points="305.25,138.75 333,166.5 305.25,166.5" fill="#8861b4"/><rect x="333" y="111" width="55.5" height="55.5" fill="#F4D6CC"/><rect x="333" y="111" width="27.75" height="27.75" fill="#f5b5bf"/><polygon points="333,111 360.75,111 360.75,138.75" fill="#9670b7"/><rect x="360.75" y="111" width="27.75" height="27.75" fill="#f677a6"/><polygon points="388.5,111 388.5,138.75 360.75,138.75" fill="#a27dba"/><rect x="333" y="138.75" width="27.75" height="27.75" fill="#f59cb5"/><polygon points="333,138.75 360.75,138.75 360.75,166.5" fill="#f72786"/><rect x="360.75" y="138.75" width="27.75" height="27.75" fill="#f4c0c3"/><polygon points="360.75,138.75 388.5,138.75 388.5,166.5" fill="#f4d0ca"/><rect x="388.5" y="111" width="55.5" height="55.5" fill="#F4D6CC"/><rect x="388.5" y="111" width="27.75" height="27.75" fill="#f66da2"/><polygon points="388.5,111 416.25,111 416.25,138.75" fill="#f5b6bf"/><rect x="416.25" y="111" width="27.75" height="27.75" fill="#f72686"/><polygon points="416.25,111 444,138.75 416.25,138.75" fill="#e8c9c9"/><rect x="388.5" y="138.75" width="27.75" height="27.75" fill="#f59fb6"/><polygon points="388.5,138.75 416.25,138.75 388.5,166.5" fill="#b794bf"/><rect x="416.25" y="138.75" width="27.75" height="27.75" fill="#f584ab"/><polygon points="416.25,138.75 444,138.75 444,166.5" fill="#c19ec1"/><rect x="444" y="111" width="55.5" height="55.5" fill="#f4d1ca"/><polygon points="444,111 499.5,111 444,166.5" fill="#f5b4be"/><rect x="499.5" y="111" width="55.5" height="55.5" fill="#f59db5"/><polygon points="499.5,111 555,111 555,166.5" fill="#f4ccc8"/><rect x="555" y="111" width="55.5" height="55.5" fill="#F4D6CC"/><rect x="555" y="111" width="27.75" height="27.75" fill="#e7c8c9"/><polygon points="555,111 582.75,111 582.75,138.75" fill="#a17cba"/><rect x="582.75" y="111" width="27.75" height="27.75" fill="#f59eb6"/><polygon points="582.75,111 610.5,111 582.75,138.75" fill="#e4c5c9"/><rect x="555" y="138.75" width="27.75" height="27.75" fill="#481ba6"/><polygon points="555,138.75 582.75,138.75 582.75,166.5" fill="#f4cac7"/><rect x="582.75" y="138.75" width="27.75" height="27.75" fill="#825bb3"/><polygon points="582.75,138.75 610.5,166.5 582.75,166.5" fill="#f6639e"/><rect x="610.5" y="111" width="55.5" height="55.5" fill="#F4D6CC"/><rect x="610.5" y="111" width="27.75" height="27.75" fill="#f5b5bf"/><polygon points="638.25,111 638.25,138.75 610.5,138.75" fill="#7d55b2"/><rect x="638.25" y="111" width="27.75" height="27.75" fill="#f59eb5"/><polygon points="638.25,111 666,138.75 638.25,138.75" fill="#f4cdc8"/><rect x="610.5" y="138.75" width="27.75" height="27.75" fill="#f67da8"/><polygon points="638.25,138.75 638.25,166.5 610.5,166.5" fill="#e7c8c9"/><rect x="638.25" y="138.75" width="27.75" height="27.75" fill="#f5b2bd"/><polygon points="638.25,138.75 666,166.5 638.25,166.5" fill="#f4bec3"/><rect x="666" y="111" width="55.5" height="55.5" fill="#f65e9c"/><polygon points="666,111 721.5,166.5 666,166.5" fill="#f72d88"/><rect x="721.5" y="111" width="55.5" height="55.5" fill="#F4D6CC"/><rect x="721.5" y="111" width="27.75" height="27.75" fill="#f67ba7"/><polygon points="721.5,111 749.25,138.75 721.5,138.75" fill="#f4cec9"/><rect x="749.25" y="111" width="27.75" height="27.75" fill="#a37eba"/><polygon points="749.25,111 777,111 777,138.75" fill="#f5aaba"/><rect x="721.5" y="138.75" width="27.75" height="27.75" fill="#f677a6"/><polygon points="721.5,138.75 749.25,138.75 749.25,166.5" fill="#f4bcc2"/><rect x="749.25" y="138.75" width="27.75" height="27.75" fill="#f4d3cb"/><polygon points="749.25,138.75 777,166.5 749.25,166.5" fill="#f67ca8"/><rect x="777" y="111" width="55.5" height="55.5" fill="#f65197"/><polygon points="832.5,111 832.5,166.5 777,166.5" fill="#f580a9"/><rect x="832.5" y="111" width="55.5" height="55.5" fill="#F4D6CC"/><rect x="832.5" y="111" width="27.75" height="27.75" fill="#7148af"/><polygon points="832.5,111 860.25,138.75 832.5,138.75" fill="#f5afbc"/><rect x="860.25" y="111" width="27.75" height="27.75" fill="#a984bb"/><polygon points="888,111 888,138.75 860.25,138.75" fill="#f64492"/><rect x="832.5" y="138.75" width="27.75" height="27.75" fill="#a883bb"/><polygon points="832.5,138.75 860.25,166.5 832.5,166.5" fill="#f595b2"/><rect x="860.25" y="138.75" width="27.75" height="27.75" fill="#5b2faa"/><polygon points="888,138.75 888,166.5 860.25,166.5" fill="#f4c4c5"/><rect x="888" y="111" width="55.5" height="55.5" fill="#f671a4"/><polygon points="888,111 943.5,111 943.5,166.5" fill="#6e44ae"/><rect x="943.5" y="111" width="55.5" height="55.5" fill="#F4D6CC"/><rect x="943.5" y="111" width="27.75" height="27.75" fill="#a37eba"/><polygon points="943.5,111 971.25,111 971.25,138.75" fill="#f59bb4"/><rect x="971.25" y="111" width="27.75" height="27.75" fill="#8f68b6"/><polygon points="999,111 999,138.75 971.25,138.75" fill="#f4d4cb"/><rect x="943.5" y="138.75" width="27.75" height="27.75" fill="#916ab6"/><polygon points="943.5,138.75 971.25,138.75 971.25,166.5" fill="#f7398d"/><rect x="971.25" y="138.75" width="27.75" height="27.75" fill="#f57ea9"/><polygon points="971.25,138.75 999,166.5 971.25,166.5" fill="#f59db5"/><rect x="999" y="111" width="55.5" height="55.5" fill="#F4D6CC"/><rect x="999" y="111" width="27.75" height="27.75" fill="#f679a7"/><polygon points="999,111 1026.75,111 1026.75,138.75" fill="#9670b7"/><rect x="1026.75" y="111" width="27.75" height="27.75" fill="#d8b7c6"/><polygon points="1026.75,111 1054.5,138.75 1026.75,138.75" fill="#f72d88"/><rect x="999" y="138.75" width="27.75" height="27.75" fill="#b693be"/><polygon points="999,138.75 1026.75,138.75 999,166.5" fill="#a782bb"/><rect x="1026.75" y="138.75" width="27.75" height="27.75" fill="#f73e8f"/><polygon points="1026.75,138.75 1054.5,138.75 1026.75,166.5" fill="#dbbbc7"/><rect x="1054.5" y="111" width="55.5" height="55.5" fill="#3c0ea3"/><polygon points="1054.5,111 1110,111 1110,166.5" fill="#f57fa9"/><rect x="0" y="166.5" width="55.5" height="55.5" fill="#f5a4b8"/><polygon points="0,166.5 55.5,166.5 55.5,222" fill="#956fb7"/><rect x="55.5" y="166.5" width="55.5" height="55.5" fill="#f65297"/><polygon points="111,166.5 111,222 55.5,222" fill="#f5aebc"/><rect x="111" y="166.5" width="55.5" height="55.5" fill="#F4D6CC"/><rect x="111" y="166.5" width="27.75" height="27.75" fill="#c2a0c1"/><polygon points="111,166.5 138.75,166.5 138.75,194.25" fill="#f589ad"/><rect x="138.75" y="166.5" width="27.75" height="27.75" fill="#f4d2ca"/><polygon points="138.75,166.5 166.5,166.5 138.75,194.25" fill="#6439ac"/><rect x="111" y="194.25" width="27.75" height="27.75" fill="#f73a8e"/><polygon points="138.75,194.25 138.75,222 111,222" fill="#936db7"/><rect x="138.75" y="194.25" width="27.75" height="27.75" fill="#f5b4be"/><polygon points="166.5,194.25 166.5,222 138.75,222" fill="#f580aa"/><rect x="166.5" y="166.5" width="55.5" height="55.5" fill="#F4D6CC"/><rect x="166.5" y="166.5" width="27.75" height="27.75" fill="#f57fa9"/><polygon points="166.5,166.5 194.25,194.25 166.5,194.25" fill="#f66ca2"/><rect x="194.25" y="166.5" width="27.75" height="27.75" fill="#5b2faa"/><polygon points="194.25,166.5 222,166.5 222,194.25" fill="#f672a4"/><rect x="166.5" y="194.25" width="27.75" height="27.75" fill="#e1c1c8"/><polygon points="194.25,194.25 194.25,222 166.5,222" fill="#6439ac"/><rect x="194.25" y="194.25" width="27.75" height="27.75" fill="#cdabc3"/><polygon points="194.25,194.25 222,194.25 194.25,222" fill="#946eb7"/><rect x="222" y="166.5" width="55.5" height="55.5" fill="#916ab6"/><polygon points="222,166.5 277.5,166.5 277.5,222" fill="#b491be"/><rect x="277.5" y="166.5" width="55.5" height="55.5" fill="#F4D6CC"/><rect x="277.5" y="166.5" width="27.75" height="27.75" fill="#f59ab4"/><polygon points="305.25,166.5 305.25,194.25 277.5,194.25" fill="#4013a4"/><rect x="305.25" y="166.5" width="27.75" height="27.75" fill="#f667a0"/><polygon points="305.25,166.5 333,194.25 305.25,194.25" fill="#8f68b6"/><rect x="277.5" y="194.25" width="27.75" height="27.75" fill="#b28ebd"/><polygon points="277.5,194.25 305.25,194.25 277.5,222" fill="#5429a9"/><rect x="305.25" y="194.25" width="27.75" height="27.75" fill="#481ca6"/><polygon points="305.25,194.25 333,222 305.25,222" fill="#f4c8c7"/><rect x="333" y="166.5" width="55.5" height="55.5" fill="#F4D6CC"/><rect x="333" y="166.5" width="27.75" height="27.75" fill="#f72886"/><polygon points="333,166.5 360.75,166.5 333,194.25" fill="#f66ca1"/><rect x="360.75" y="166.5" width="27.75" height="27.75" fill="#f5a6b9"/><polygon points="360.75,166.5 388.5,166.5 360.75,194.25" fill="#6035ab"/><rect x="333" y="194.25" width="27.75" height="27.75" fill="#f589ad"/><polygon points="333,194.25 360.75,222 333,222" fill="#f67ba7"/><rect x="360.75" y="194.25" width="27.75" height="27.75" fill="#f5a5b8"/><polygon points="360.75,194.25 388.5,194.25 360.75,222" fill="#845cb3"/><rect x="388.5" y="166.5" width="55.5" height="55.5" fill="#F4D6CC"/><rect x="388.5" y="166.5" width="27.75" height="27.75" fill="#f64c95"/><polygon points="388.5,166.5 416.25,194.25 388.5,194.25" fill="#f64c94"/><rect x="416.25" y="166.5" width="27.75" height="27.75" fill="#f598b3"/><polygon points="416.25,166.5 444,194.25 416.25,194.25" fill="#f596b2"/><rect x="388.5" y="194.25" width="27.75" height="27.75" fill="#f57ea9"/><polygon points="388.5,194.25 416.25,194.25 416.25,222" fill="#d7b6c6"/><rect x="416.25" y="194.25" width="27.75" height="27.75" fill="#7e56b2"/><polygon points="416.25,194.25 444,194.25 444,222" fill="#f4c9c7"/><rect x="444" y="166.5" width="55.5" height="55.5" fill="#F4D6CC"/><rect x="444" y="166.5" width="27.75" height="27.75" fill="#4417a5"/><polygon points="444,166.5 471.75,166.5 471.75,194.25" fill="#f57fa9"/><rect x="471.75" y="166.5" width="27.75" height="27.75" fill="#f74291"/><polygon points="471.75,166.5 499.5,194.25 471.75,194.25" fill="#6338ac"/><rect x="444" y="194.25" width="27.75" height="27.75" fill="#eecfcb"/><polygon points="444,194.25 471.75,222 444,222" fill="#6136ac"/><rect x="471.75" y="194.25" width="27.75" height="27.75" fill="#f72685"/><polygon points="499.5,194.25 499.5,222 471.75,222" fill="#f5b8c0"/><rect x="499.5" y="166.5" width="55.5" height="55.5" fill="#F4D6CC"/><rect x="499.5" y="166.5" width="27.75" height="27.75" fill="#f65a9a"/><polygon points="499.5,166.5 527.25,166.5 527.25,194.25" fill="#c3a1c1"/><rect x="527.25" y="166.5" width="27.75" height="27.75" fill="#f72786"/><polygon points="555,166.5 555,194.25 527.25,194.25" fill="#865fb4"/><rect x="499.5" y="194.25" width="27.75" height="27.75" fill="#f64492"/><polygon points="499.5,194.25 527.25,194.25 527.25,222" fill="#f6649e"/><rect x="527.25" y="194.25" width="27.75" height="27.75" fill="#6f46af"/><polygon points="527.25,194.25 555,222 527.25,222" fill="#653bac"/><rect x="555" y="166.5" width="55.5" height="55.5" fill="#f584ab"/><polygon points="610.5,166.5 610.5,222 555,222" fill="#dcbcc7"/><rect x="610.5" y="166.5" width="55.5" height="55.5" fill="#F4D6CC"/><rect x="610.5" y="166.5" width="27.75" height="27.75" fill="#f64592"/><polygon points="610.5,166.5 638.25,194.25 610.5,194.25" fill="#5e33ab"/><rect x="638.25" y="166.5" width="27.75" height="27.75" fill="#9069b6"/><polygon points="638.25,166.5 666,194.25 638.25,194.25" fill="#f58bae"/><rect x="610.5" y="194.25" width="27.75" height="27.75" fill="#f7318a"/><polygon points="610.5,194.25 638.25,194.25 638.25,222" fill="#f64e95"/><rect x="638.25" y="194.25" width="27.75" height="27.75" fill="#f4bfc3"/><polygon points="638.25,194.25 666,222 638.25,222" fill="#f65a9a"/><rect x="666" y="166.5" width="55.5" height="55.5" fill="#F4D6CC"/><rect x="666" y="166.5" width="27.75" height="27.75" fill="#906ab6"/><polygon points="666,166.5 693.75,166.5 666,194.25" fill="#f581aa"/><rect x="693.75" y="166.5" width="27.75" height="27.75" fill="#f1d3cb"/><polygon points="693.75,166.5 721.5,166.5 693.75,194.25" fill="#f593b1"/><rect x="666" y="194.25" width="27.75" height="27.75" fill="#f73089"/><polygon points="693.75,194.25 693.75,222 666,222" fill="#f58fb0"/><rect x="693.75" y="194.25" width="27.75" height="27.75" fill="#f74190"/><polygon points="721.5,194.25 721.5,222 693.75,222" fill="#f4c9c7"/><rect x="721.5" y="166.5" width="55.5" height="55.5" fill="#F4D6CC"/><rect x="721.5" y="166.5" width="27.75" height="27.75" fill="#f4c0c3"/><polygon points="749.25,166.5 749.25,194.25 721.5,194.25" fill="#f59cb5"/><rect x="749.25" y="166.5" width="27.75" height="27.75" fill="#4a1da6"/><polygon points="749.25,166.5 777,166.5 749.25,194.25" fill="#f582aa"/><rect x="721.5" y="194.25" width="27.75" height="27.75" fill="#6439ac"/><polygon points="721.5,194.25 749.25,222 721.5,222" fill="#f72987"/><rect x="749.25" y="194.25" width="27.75" height="27.75" fill="#f595b2"/><polygon points="777,194.25 777,222 749.25,222" fill="#f64c95"/><rect x="777" y="166.5" width="55.5" height="55.5" fill="#6f46af"/><polygon points="777,166.5 832.5,166.5 777,222" fill="#f5a1b7"/><rect x="832.5" y="166.5" width="55.5" height="55.5" fill="#f64692"/><polygon points="832.5,166.5 888,166.5 832.5,222" fill="#debec7"/><rect x="888" y="166.5" width="55.5" height="55.5" fill="#bf9dc0"/><polygon points="943.5,166.5 943.5,222 888,222" fill="#f5abbb"/><rect x="943.5" y="166.5" width="55.5" height="55.5" fill="#F4D6CC"/><rect x="943.5" y="166.5" width="27.75" height="27.75" fill="#f64391"/><polygon points="971.25,166.5 971.25,194.25 943.5,194.25" fill="#caa9c3"/><rect x="971.25" y="166.5" width="27.75" height="27.75" fill="#906ab6"/><polygon points="999,166.5 999,194.25 971.25,194.25" fill="#dab9c6"/><rect x="943.5" y="194.25" width="27.75" height="27.75" fill="#f7358b"/><polygon points="971.25,194.25 971.25,222 943.5,222" fill="#f4d6cc"/><rect x="971.25" y="194.25" width="27.75" height="27.75" fill="#f670a3"/><polygon points="971.25,194.25 999,194.25 971.25,222" fill="#4b1ea7"/><rect x="999" y="166.5" width="55.5" height="55.5" fill="#F4D6CC"/><rect x="999" y="166.5" width="27.75" height="27.75" fill="#f672a4"/><polygon points="999,166.5 1026.75,166.5 1026.75,194.25" fill="#734ab0"/><rect x="1026.75" y="166.5" width="27.75" height="27.75" fill="#c8a6c2"/><polygon points="1054.5,166.5 1054.5,194.25 1026.75,194.25" fill="#b996bf"/><rect x="999" y="194.25" width="27.75" height="27.75" fill="#f676a6"/><polygon points="999,194.25 1026.75,222 999,222" fill="#f73a8d"/><rect x="1026.75" y="194.25" width="27.75" height="27.75" fill="#f4c9c7"/><polygon points="1026.75,194.25 1054.5,194.25 1054.5,222" fill="#5e33ab"/><rect x="1054.5" y="166.5" width="55.5" height="55.5" fill="#F4D6CC"/><rect x="1054.5" y="166.5" width="27.75" height="27.75" fill="#f5a1b7"/><polygon points="1054.5,166.5 1082.25,166.5 1082.25,194.25" fill="#f4d4cb"/><rect x="1082.25" y="166.5" width="27.75" height="27.75" fill="#f4bec2"/><polygon points="1082.25,166.5 1110,166.5 1082.25,194.25" fill="#7046af"/><rect x="1054.5" y="194.25" width="27.75" height="27.75" fill="#8f68b6"/><polygon points="1054.5,194.25 1082.25,194.25 1082.25,222" fill="#f598b3"/><rect x="1082.25" y="194.25" width="27.75" height="27.75" fill="#dabac6"/><polygon points="1110,194.25 1110,222 1082.25,222" fill="#dcbcc7"/><rect x="0" y="222" width="55.5" height="55.5" fill="#F4D6CC"/><rect x="0" y="222" width="27.75" height="27.75" fill="#f59fb6"/><polygon points="27.75,222 27.75,249.75 0,249.75" fill="#ebccca"/><rect x="27.75" y="222" width="27.75" height="27.75" fill="#f5b7c0"/><polygon points="27.75,222 55.5,222 55.5,249.75" fill="#f65398"/><rect x="0" y="249.75" width="27.75" height="27.75" fill="#ab87bc"/><polygon points="27.75,249.75 27.75,277.5 0,277.5" fill="#6f46af"/><rect x="27.75" y="249.75" width="27.75" height="27.75" fill="#ad89bc"/><polygon points="27.75,249.75 55.5,277.5 27.75,277.5" fill="#b996bf"/><rect x="55.5" y="222" width="55.5" height="55.5" fill="#F4D6CC"/><rect x="55.5" y="222" width="27.75" height="27.75" fill="#f5a6b9"/><polygon points="55.5,222 83.25,249.75 55.5,249.75" fill="#f64b94"/><rect x="83.25" y="222" width="27.75" height="27.75" fill="#f58aae"/><polygon points="83.25,222 111,222 111,249.75" fill="#f595b2"/><rect x="55.5" y="249.75" width="27.75" height="27.75" fill="#f4c6c6"/><polygon points="55.5,249.75 83.25,277.5 55.5,277.5" fill="#f65b9b"/><rect x="83.25" y="249.75" width="27.75" height="27.75" fill="#f64391"/><polygon points="83.25,249.75 111,249.75 111,277.5" fill="#865eb4"/><rect x="111" y="222" width="55.5" height="55.5" fill="#c3a1c1"/><polygon points="166.5,222 166.5,277.5 111,277.5" fill="#f6659f"/><rect x="166.5" y="222" width="55.5" height="55.5" fill="#F4D6CC"/><rect x="166.5" y="222" width="27.75" height="27.75" fill="#f4c5c5"/><polygon points="166.5,222 194.25,222 194.25,249.75" fill="#f72a87"/><rect x="194.25" y="222" width="27.75" height="27.75" fill="#f65297"/><polygon points="194.25,222 222,222 222,249.75" fill="#f5afbd"/><rect x="166.5" y="249.75" width="27.75" height="27.75" fill="#f4bcc1"/><polygon points="166.5,249.75 194.25,249.75 194.25,277.5" fill="#f58bae"/><rect x="194.25" y="249.75" width="27.75" height="27.75" fill="#f675a5"/><polygon points="194.25,249.75 222,249.75 222,277.5" fill="#f4bdc2"/><rect x="222" y="222" width="55.5" height="55.5" fill="#693fad"/><polygon points="222,222 277.5,277.5 222,277.5" fill="#6c43ae"/><rect x="277.5" y="222" width="55.5" height="55.5" fill="#F4D6CC"/><rect x="277.5" y="222" width="27.75" height="27.75" fill="#f5a2b7"/><polygon points="277.5,222 305.25,222 305.25,249.75" fill="#f73e8f"/><rect x="305.25" y="222" width="27.75" height="27.75" fill="#592daa"/><polygon points="333,222 333,249.75 305.25,249.75" fill="#f66da2"/><rect x="277.5" y="249.75" width="27.75" height="27.75" fill="#b692be"/><polygon points="305.25,249.75 305.25,277.5 277.5,277.5" fill="#946eb7"/><rect x="305.25" y="249.75" width="27.75" height="27.75" fill="#d3b2c5"/><polygon points="333,249.75 333,277.5 305.25,277.5" fill="#5024a8"/><rect x="333" y="222" width="55.5" height="55.5" fill="#f7368c"/><polygon points="388.5,222 388.5,277.5 333,277.5" fill="#f7308a"/><rect x="388.5" y="222" width="55.5" height="55.5" fill="#8a63b5"/><polygon points="388.5,222 444,222 388.5,277.5" fill="#4d21a7"/><rect x="444" y="222" width="55.5" height="55.5" fill="#F4D6CC"/><rect x="444" y="222" width="27.75" height="27.75" fill="#f5b6bf"/><polygon points="444,222 471.75,222 444,249.75" fill="#3b0da3"/><rect x="471.75" y="222" width="27.75" height="27.75" fill="#f5afbd"/><polygon points="471.75,222 499.5,222 499.5,249.75" fill="#f64d95"/><rect x="444" y="249.75" width="27.75" height="27.75" fill="#9b75b8"/><polygon points="471.75,249.75 471.75,277.5 444,277.5" fill="#b693be"/><rect x="471.75" y="249.75" width="27.75" height="27.75" fill="#f5b0bd"/><polygon points="471.75,249.75 499.5,249.75 499.5,277.5" fill="#9c77b9"/><rect x="499.5" y="222" width="55.5" height="55.5" fill="#F4D6CC"/><rect x="499.5" y="222" width="27.75" height="27.75" fill="#9e78b9"/><polygon points="499.5,222 527.25,222 499.5,249.75" fill="#4b1ea7"/><rect x="527.25" y="222" width="27.75" height="27.75" fill="#d3b2c5"/><polygon points="527.25,222 555,249.75 527.25,249.75" fill="#f594b2"/><rect x="499.5" y="249.75" width="27.75" height="27.75" fill="#f592b1"/><polygon points="499.5,249.75 527.25,249.75 527.25,277.5" fill="#f5adbb"/><rect x="527.25" y="249.75" width="27.75" height="27.75" fill="#a17cba"/><polygon points="555,249.75 555,277.5 527.25,277.5" fill="#5529a9"/><rect x="555" y="222" width="55.5" height="55.5" fill="#F4D6CC"/><rect x="555" y="222" width="27.75" height="27.75" fill="#f671a3"/><polygon points="555,222 582.75,222 555,249.75" fill="#f597b3"/><rect x="582.75" y="222" width="27.75" height="27.75" fill="#9069b6"/><polygon points="582.75,222 610.5,249.75 582.75,249.75" fill="#f73b8e"/><rect x="555" y="249.75" width="27.75" height="27.75" fill="#f4c5c5"/><polygon points="555,249.75 582.75,249.75 555,277.5" fill="#f65899"/><rect x="582.75" y="249.75" width="27.75" height="27.75" fill="#3e11a4"/><polygon points="582.75,249.75 610.5,249.75 610.5,277.5" fill="#b895bf"/><rect x="610.5" y="222" width="55.5" height="55.5" fill="#F4D6CC"/><rect x="610.5" y="222" width="27.75" height="27.75" fill="#6238ac"/><polygon points="638.25,222 638.25,249.75 610.5,249.75" fill="#8d66b5"/><rect x="638.25" y="222" width="27.75" height="27.75" fill="#d2b1c4"/><polygon points="638.25,222 666,222 666,249.75" fill="#f6679f"/><rect x="610.5" y="249.75" width="27.75" height="27.75" fill="#f65d9c"/><polygon points="638.25,249.75 638.25,277.5 610.5,277.5" fill="#f73b8e"/><rect x="638.25" y="249.75" width="27.75" height="27.75" fill="#f4c9c7"/><polygon points="666,249.75 666,277.5 638.25,277.5" fill="#8e67b6"/><rect x="666" y="222" width="55.5" height="55.5" fill="#f73e8f"/><polygon points="721.5,222 721.5,277.5 666,277.5" fill="#5125a8"/><rect x="721.5" y="222" width="55.5" height="55.5" fill="#ba97bf"/><polygon points="721.5,222 777,222 721.5,277.5" fill="#d9b9c6"/><rect x="777" y="222" width="55.5" height="55.5" fill="#eccdca"/><polygon points="832.5,222 832.5,277.5 777,277.5" fill="#4619a6"/><rect x="832.5" y="222" width="55.5" height="55.5" fill="#F4D6CC"/><rect x="832.5" y="222" width="27.75" height="27.75" fill="#6136ac"/><polygon points="832.5,222 860.25,222 860.25,249.75" fill="#d3b2c5"/><rect x="860.25" y="222" width="27.75" height="27.75" fill="#f66ca1"/><polygon points="860.25,222 888,249.75 860.25,249.75" fill="#f6639e"/><rect x="832.5" y="249.75" width="27.75" height="27.75" fill="#f5b6bf"/><polygon points="832.5,249.75 860.25,277.5 832.5,277.5" fill="#673cad"/><rect x="860.25" y="249.75" width="27.75" height="27.75" fill="#f59fb6"/><polygon points="860.25,249.75 888,249.75 888,277.5" fill="#f73c8e"/><rect x="888" y="222" width="55.5" height="55.5" fill="#F4D6CC"/><rect x="888" y="222" width="27.75" height="27.75" fill="#f677a6"/><polygon points="888,222 915.75,249.75 888,249.75" fill="#d6b6c5"/><rect x="915.75" y="222" width="27.75" height="27.75" fill="#6a40ae"/><polygon points="915.75,222 943.5,222 943.5,249.75" fill="#f65698"/><rect x="888" y="249.75" width="27.75" height="27.75" fill="#f585ab"/><polygon points="888,249.75 915.75,249.75 888,277.5" fill="#f4c6c6"/><rect x="915.75" y="249.75" width="27.75" height="27.75" fill="#f586ac"/><polygon points="943.5,249.75 943.5,277.5 915.75,277.5" fill="#f5a2b7"/><rect x="943.5" y="222" width="55.5" height="55.5" fill="#f597b3"/><polygon points="943.5,222 999,222 999,277.5" fill="#f6669f"/><rect x="999" y="222" width="55.5" height="55.5" fill="#F4D6CC"/><rect x="999" y="222" width="27.75" height="27.75" fill="#f6599a"/><polygon points="999,222 1026.75,222 999,249.75" fill="#774eb0"/><rect x="1026.75" y="222" width="27.75" height="27.75" fill="#f4d5cc"/><polygon points="1054.5,222 1054.5,249.75 1026.75,249.75" fill="#7f57b2"/><rect x="999" y="249.75" width="27.75" height="27.75" fill="#d5b4c5"/><polygon points="1026.75,249.75 1026.75,277.5 999,277.5" fill="#764db0"/><rect x="1026.75" y="249.75" width="27.75" height="27.75" fill="#4e22a7"/><polygon points="1054.5,249.75 1054.5,277.5 1026.75,277.5" fill="#f72786"/><rect x="1054.5" y="222" width="55.5" height="55.5" fill="#9b76b8"/><polygon points="1054.5,222 1110,222 1110,277.5" fill="#f594b2"/><rect x="0" y="277.5" width="55.5" height="55.5" fill="#f5a8ba"/><polygon points="0,277.5 55.5,277.5 55.5,333" fill="#f65096"/><rect x="55.5" y="277.5" width="55.5" height="55.5" fill="#f597b3"/><polygon points="55.5,277.5 111,277.5 111,333" fill="#f59db5"/><rect x="111" y="277.5" width="55.5" height="55.5" fill="#F4D6CC"/><rect x="111" y="277.5" width="27.75" height="27.75" fill="#f5a8ba"/><polygon points="138.75,277.5 138.75,305.25 111,305.25" fill="#f676a6"/><rect x="138.75" y="277.5" width="27.75" height="27.75" fill="#f72e89"/><polygon points="166.5,277.5 166.5,305.25 138.75,305.25" fill="#d2b1c4"/><rect x="111" y="305.25" width="27.75" height="27.75" fill="#f72986"/><polygon points="111,305.25 138.75,305.25 111,333" fill="#f59ab4"/><rect x="138.75" y="305.25" width="27.75" height="27.75" fill="#f7388c"/><polygon points="138.75,305.25 166.5,305.25 166.5,333" fill="#f64491"/><rect x="166.5" y="277.5" width="55.5" height="55.5" fill="#F4D6CC"/><rect x="166.5" y="277.5" width="27.75" height="27.75" fill="#f5aebc"/><polygon points="166.5,277.5 194.25,277.5 194.25,305.25" fill="#f6599a"/><rect x="194.25" y="277.5" width="27.75" height="27.75" fill="#af8bbd"/><polygon points="222,277.5 222,305.25 194.25,305.25" fill="#f596b2"/><rect x="166.5" y="305.25" width="27.75" height="27.75" fill="#582caa"/><polygon points="166.5,305.25 194.25,305.25 166.5,333" fill="#f598b3"/><rect x="194.25" y="305.25" width="27.75" height="27.75" fill="#f67ba8"/><polygon points="222,305.25 222,333 194.25,333" fill="#f5a8b9"/><rect x="222" y="277.5" width="55.5" height="55.5" fill="#F4D6CC"/><rect x="222" y="277.5" width="27.75" height="27.75" fill="#8f68b6"/><polygon points="222,277.5 249.75,277.5 222,305.25" fill="#f591b0"/><rect x="249.75" y="277.5" width="27.75" height="27.75" fill="#f65598"/><polygon points="249.75,277.5 277.5,305.25 249.75,305.25" fill="#e7c7c9"/><rect x="222" y="305.25" width="27.75" height="27.75" fill="#f598b3"/><polygon points="222,305.25 249.75,305.25 249.75,333" fill="#f5adbc"/><rect x="249.75" y="305.25" width="27.75" height="27.75" fill="#5e33ab"/><polygon points="249.75,305.25 277.5,305.25 249.75,333" fill="#f5b7c0"/><rect x="277.5" y="277.5" width="55.5" height="55.5" fill="#f65096"/><polygon points="277.5,277.5 333,333 277.5,333" fill="#4012a4"/><rect x="333" y="277.5" width="55.5" height="55.5" fill="#ba97bf"/><polygon points="333,277.5 388.5,277.5 388.5,333" fill="#8c65b5"/><rect x="388.5" y="277.5" width="55.5" height="55.5" fill="#F4D6CC"/><rect x="388.5" y="277.5" width="27.75" height="27.75" fill="#8058b2"/><polygon points="388.5,277.5 416.25,277.5 388.5,305.25" fill="#f58cae"/><rect x="416.25" y="277.5" width="27.75" height="27.75" fill="#906ab6"/><polygon points="444,277.5 444,305.25 416.25,305.25" fill="#eacbca"/><rect x="388.5" y="305.25" width="27.75" height="27.75" fill="#f66aa1"/><polygon points="388.5,305.25 416.25,333 388.5,333" fill="#7249af"/><rect x="416.25" y="305.25" width="27.75" height="27.75" fill="#a37eba"/><polygon points="416.25,305.25 444,305.25 444,333" fill="#c19fc1"/><rect x="444" y="277.5" width="55.5" height="55.5" fill="#6f46af"/><polygon points="444,277.5 499.5,333 444,333" fill="#4114a5"/><rect x="499.5" y="277.5" width="55.5" height="55.5" fill="#a27dba"/><polygon points="499.5,277.5 555,277.5 555,333" fill="#562ba9"/><rect x="555" y="277.5" width="55.5" height="55.5" fill="#e4c5c9"/><polygon points="610.5,277.5 610.5,333 555,333" fill="#4a1ea7"/><rect x="610.5" y="277.5" width="55.5" height="55.5" fill="#F4D6CC"/><rect x="610.5" y="277.5" width="27.75" height="27.75" fill="#f674a5"/><polygon points="610.5,277.5 638.25,277.5 610.5,305.25" fill="#b390be"/><rect x="638.25" y="277.5" width="27.75" height="27.75" fill="#f5aebc"/><polygon points="638.25,277.5 666,277.5 666,305.25" fill="#6136ac"/><rect x="610.5" y="305.25" width="27.75" height="27.75" fill="#6a40ae"/><polygon points="610.5,305.25 638.25,333 610.5,333" fill="#9e79b9"/><rect x="638.25" y="305.25" width="27.75" height="27.75" fill="#f4cac7"/><polygon points="638.25,305.25 666,305.25 666,333" fill="#f6619d"/><rect x="666" y="277.5" width="55.5" height="55.5" fill="#f66ba1"/><polygon points="721.5,277.5 721.5,333 666,333" fill="#e4c5c8"/><rect x="721.5" y="277.5" width="55.5" height="55.5" fill="#F4D6CC"/><rect x="721.5" y="277.5" width="27.75" height="27.75" fill="#3b0da3"/><polygon points="749.25,277.5 749.25,305.25 721.5,305.25" fill="#6d44ae"/><rect x="749.25" y="277.5" width="27.75" height="27.75" fill="#6f46af"/><polygon points="749.25,277.5 777,305.25 749.25,305.25" fill="#5327a9"/><rect x="721.5" y="305.25" width="27.75" height="27.75" fill="#9872b8"/><polygon points="749.25,305.25 749.25,333 721.5,333" fill="#481ca6"/><rect x="749.25" y="305.25" width="27.75" height="27.75" fill="#dfbfc7"/><polygon points="749.25,305.25 777,305.25 777,333" fill="#f65799"/><rect x="777" y="277.5" width="55.5" height="55.5" fill="#F4D6CC"/><rect x="777" y="277.5" width="27.75" height="27.75" fill="#f5a3b7"/><polygon points="777,277.5 804.75,277.5 777,305.25" fill="#a27dba"/><rect x="804.75" y="277.5" width="27.75" height="27.75" fill="#4f23a8"/><polygon points="804.75,277.5 832.5,277.5 832.5,305.25" fill="#9872b8"/><rect x="777" y="305.25" width="27.75" height="27.75" fill="#683ead"/><polygon points="777,305.25 804.75,333 777,333" fill="#835bb3"/><rect x="804.75" y="305.25" width="27.75" height="27.75" fill="#d4b3c5"/><polygon points="804.75,305.25 832.5,333 804.75,333" fill="#9d78b9"/><rect x="832.5" y="277.5" width="55.5" height="55.5" fill="#F4D6CC"/><rect x="832.5" y="277.5" width="27.75" height="27.75" fill="#f67ca8"/><polygon points="832.5,277.5 860.25,305.25 832.5,305.25" fill="#f65799"/><rect x="860.25" y="277.5" width="27.75" height="27.75" fill="#f7398d"/><polygon points="860.25,277.5 888,277.5 860.25,305.25" fill="#a17cba"/><rect x="832.5" y="305.25" width="27.75" height="27.75" fill="#7b52b1"/><polygon points="832.5,305.25 860.25,333 832.5,333" fill="#f65b9b"/><rect x="860.25" y="305.25" width="27.75" height="27.75" fill="#6a40ae"/><polygon points="860.25,305.25 888,305.25 860.25,333" fill="#f599b4"/><rect x="888" y="277.5" width="55.5" height="55.5" fill="#825bb3"/><polygon points="888,277.5 943.5,333 888,333" fill="#845db3"/><rect x="943.5" y="277.5" width="55.5" height="55.5" fill="#F4D6CC"/><rect x="943.5" y="277.5" width="27.75" height="27.75" fill="#f64b94"/><polygon points="943.5,277.5 971.25,277.5 943.5,305.25" fill="#5125a8"/><rect x="971.25" y="277.5" width="27.75" height="27.75" fill="#d5b4c5"/><polygon points="999,277.5 999,305.25 971.25,305.25" fill="#8a63b5"/><rect x="943.5" y="305.25" width="27.75" height="27.75" fill="#835bb3"/><polygon points="971.25,305.25 971.25,333 943.5,333" fill="#f64f96"/><rect x="971.25" y="305.25" width="27.75" height="27.75" fill="#6d44ae"/><polygon points="971.25,305.25 999,305.25 971.25,333" fill="#f4d6cc"/><rect x="999" y="277.5" width="55.5" height="55.5" fill="#F4D6CC"/><rect x="999" y="277.5" width="27.75" height="27.75" fill="#471aa6"/><polygon points="999,277.5 1026.75,305.25 999,305.25" fill="#f585ab"/><rect x="1026.75" y="277.5" width="27.75" height="27.75" fill="#471aa6"/><polygon points="1026.75,277.5 1054.5,277.5 1054.5,305.25" fill="#f59ab4"/><rect x="999" y="305.25" width="27.75" height="27.75" fill="#af8bbd"/><polygon points="999,305.25 1026.75,333 999,333" fill="#663cad"/><rect x="1026.75" y="305.25" width="27.75" height="27.75" fill="#f5a8b9"/><polygon points="1026.75,305.25 1054.5,305.25 1026.75,333" fill="#3c0ea3"/><rect x="1054.5" y="277.5" width="55.5" height="55.5" fill="#F4D6CC"/><rect x="1054.5" y="277.5" width="27.75" height="27.75" fill="#bd9ac0"/><polygon points="1054.5,277.5 1082.25,277.5 1082.25,305.25" fill="#d5b4c5"/><rect x="1082.25" y="277.5" width="27.75" height="27.75" fill="#a782bb"/><polygon points="1082.25,277.5 1110,277.5 1082.25,305.25" fill="#c7a5c2"/><rect x="1054.5" y="305.25" width="27.75" height="27.75" fill="#f599b4"/><polygon points="1054.5,305.25 1082.25,305.25 1082.25,333" fill="#f5a1b7"/><rect x="1082.25" y="305.25" width="27.75" height="27.75" fill="#7046af"/><polygon points="1110,305.25 1110,333 1082.25,333" fill="#f67ba7"/><rect x="0" y="333" width="55.5" height="55.5" fill="#d6b5c5"/><polygon points="55.5,333 55.5,388.5 0,388.5" fill="#f5aaba"/><rect x="55.5" y="333" width="55.5" height="55.5" fill="#a27dba"/><polygon points="111,333 111,388.5 55.5,388.5" fill="#f3d5cc"/><rect x="111" y="333" width="55.5" height="55.5" fill="#F4D6CC"/><rect x="111" y="333" width="27.75" height="27.75" fill="#f5a7b9"/><polygon points="111,333 138.75,333 111,360.75" fill="#f5b8c0"/><rect x="138.75" y="333" width="27.75" height="27.75" fill="#c4a2c1"/><polygon points="138.75,333 166.5,360.75 138.75,360.75" fill="#b794bf"/><rect x="111" y="360.75" width="27.75" height="27.75" fill="#926bb6"/><polygon points="111,360.75 138.75,360.75 138.75,388.5" fill="#8f68b6"/><rect x="138.75" y="360.75" width="27.75" height="27.75" fill="#8159b3"/><polygon points="138.75,360.75 166.5,388.5 138.75,388.5" fill="#572ca9"/><rect x="166.5" y="333" width="55.5" height="55.5" fill="#F4D6CC"/><rect x="166.5" y="333" width="27.75" height="27.75" fill="#f6659f"/><polygon points="166.5,333 194.25,333 194.25,360.75" fill="#f5aaba"/><rect x="194.25" y="333" width="27.75" height="27.75" fill="#f4c7c6"/><polygon points="194.25,333 222,333 194.25,360.75" fill="#f5b8c0"/><rect x="166.5" y="360.75" width="27.75" height="27.75" fill="#f6599a"/><polygon points="166.5,360.75 194.25,360.75 194.25,388.5" fill="#5024a8"/><rect x="194.25" y="360.75" width="27.75" height="27.75" fill="#f588ad"/><polygon points="222,360.75 222,388.5 194.25,388.5" fill="#f5aebc"/><rect x="222" y="333" width="55.5" height="55.5" fill="#F4D6CC"/><rect x="222" y="333" width="27.75" height="27.75" fill="#5125a8"/><polygon points="222,333 249.75,360.75 222,360.75" fill="#e6c6c9"/><rect x="249.75" y="333" width="27.75" height="27.75" fill="#f58cae"/><polygon points="277.5,333 277.5,360.75 249.75,360.75" fill="#c9a8c3"/><rect x="222" y="360.75" width="27.75" height="27.75" fill="#dbbbc6"/><polygon points="222,360.75 249.75,360.75 249.75,388.5" fill="#f587ac"/><rect x="249.75" y="360.75" width="27.75" height="27.75" fill="#f5b8c0"/><polygon points="249.75,360.75 277.5,360.75 249.75,388.5" fill="#f6669f"/><rect x="277.5" y="333" width="55.5" height="55.5" fill="#5b30aa"/><polygon points="333,333 333,388.5 277.5,388.5" fill="#dbbac6"/><rect x="333" y="333" width="55.5" height="55.5" fill="#ddbdc7"/><polygon points="388.5,333 388.5,388.5 333,388.5" fill="#f5a7b9"/><rect x="388.5" y="333" width="55.5" height="55.5" fill="#f5b8c0"/><polygon points="444,333 444,388.5 388.5,388.5" fill="#f58daf"/><rect x="444" y="333" width="55.5" height="55.5" fill="#F4D6CC"/><rect x="444" y="333" width="27.75" height="27.75" fill="#eecfcb"/><polygon points="444,333 471.75,333 471.75,360.75" fill="#8b63b5"/><rect x="471.75" y="333" width="27.75" height="27.75" fill="#f6609d"/><polygon points="499.5,333 499.5,360.75 471.75,360.75" fill="#f5a5b8"/><rect x="444" y="360.75" width="27.75" height="27.75" fill="#936cb7"/><polygon points="444,360.75 471.75,388.5 444,388.5" fill="#f72c88"/><rect x="471.75" y="360.75" width="27.75" height="27.75" fill="#f6669f"/><polygon points="471.75,360.75 499.5,360.75 471.75,388.5" fill="#f72d88"/><rect x="499.5" y="333" width="55.5" height="55.5" fill="#b390be"/><polygon points="499.5,333 555,333 499.5,388.5" fill="#673dad"/><rect x="555" y="333" width="55.5" height="55.5" fill="#ae8abd"/><polygon points="555,333 610.5,333 555,388.5" fill="#f67aa7"/><rect x="610.5" y="333" width="55.5" height="55.5" fill="#F4D6CC"/><rect x="610.5" y="333" width="27.75" height="27.75" fill="#f4bac1"/><polygon points="610.5,333 638.25,360.75 610.5,360.75" fill="#cba9c3"/><rect x="638.25" y="333" width="27.75" height="27.75" fill="#5226a8"/><polygon points="638.25,333 666,333 638.25,360.75" fill="#f4c9c7"/><rect x="610.5" y="360.75" width="27.75" height="27.75" fill="#7951b1"/><polygon points="610.5,360.75 638.25,388.5 610.5,388.5" fill="#7e56b2"/><rect x="638.25" y="360.75" width="27.75" height="27.75" fill="#d7b7c6"/><polygon points="638.25,360.75 666,388.5 638.25,388.5" fill="#764db0"/><rect x="666" y="333" width="55.5" height="55.5" fill="#F4D6CC"/><rect x="666" y="333" width="27.75" height="27.75" fill="#f6629d"/><polygon points="666,333 693.75,333 666,360.75" fill="#d1b0c4"/><rect x="693.75" y="333" width="27.75" height="27.75" fill="#f58eaf"/><polygon points="693.75,333 721.5,360.75 693.75,360.75" fill="#f593b1"/><rect x="666" y="360.75" width="27.75" height="27.75" fill="#a07bb9"/><polygon points="666,360.75 693.75,360.75 693.75,388.5" fill="#c8a6c2"/><rect x="693.75" y="360.75" width="27.75" height="27.75" fill="#5b30aa"/><polygon points="693.75,360.75 721.5,388.5 693.75,388.5" fill="#f4d5cc"/><rect x="721.5" y="333" width="55.5" height="55.5" fill="#F4D6CC"/><rect x="721.5" y="333" width="27.75" height="27.75" fill="#f5afbc"/><polygon points="721.5,333 749.25,333 749.25,360.75" fill="#946eb7"/><rect x="749.25" y="333" width="27.75" height="27.75" fill="#f7368c"/><polygon points="749.25,333 777,333 777,360.75" fill="#582caa"/><rect x="721.5" y="360.75" width="27.75" height="27.75" fill="#f4d4cb"/><polygon points="721.5,360.75 749.25,388.5 721.5,388.5" fill="#ebccca"/><rect x="749.25" y="360.75" width="27.75" height="27.75" fill="#f4c4c5"/><polygon points="777,360.75 777,388.5 749.25,388.5" fill="#f4c2c4"/><rect x="777" y="333" width="55.5" height="55.5" fill="#f677a6"/><polygon points="777,333 832.5,333 777,388.5" fill="#e3c3c8"/><rect x="832.5" y="333" width="55.5" height="55.5" fill="#f65297"/><polygon points="832.5,333 888,333 888,388.5" fill="#f57ea9"/><rect x="888" y="333" width="55.5" height="55.5" fill="#F4D6CC"/><rect x="888" y="333" width="27.75" height="27.75" fill="#815ab3"/><polygon points="888,333 915.75,333 888,360.75" fill="#f64e95"/><rect x="915.75" y="333" width="27.75" height="27.75" fill="#3f11a4"/><polygon points="915.75,333 943.5,333 943.5,360.75" fill="#4b1ea7"/><rect x="888" y="360.75" width="27.75" height="27.75" fill="#f3d4cc"/><polygon points="915.75,360.75 915.75,388.5 888,388.5" fill="#f5a6b9"/><rect x="915.75" y="360.75" width="27.75" height="27.75" fill="#d7b7c6"/><polygon points="915.75,360.75 943.5,360.75 915.75,388.5" fill="#b18dbd"/><rect x="943.5" y="333" width="55.5" height="55.5" fill="#f4c4c5"/><polygon points="943.5,333 999,388.5 943.5,388.5" fill="#7e56b2"/><rect x="999" y="333" width="55.5" height="55.5" fill="#754cb0"/><polygon points="999,333 1054.5,388.5 999,388.5" fill="#6e44ae"/><rect x="1054.5" y="333" width="55.5" height="55.5" fill="#6a40ae"/><polygon points="1054.5,333 1110,388.5 1054.5,388.5" fill="#f676a5"/><rect x="0" y="388.5" width="55.5" height="55.5" fill="#F4D6CC"/><rect x="0" y="388.5" width="27.75" height="27.75" fill="#dfbfc7"/><polygon points="0,388.5 27.75,388.5 0,416.25" fill="#debec7"/><rect x="27.75" y="388.5" width="27.75" height="27.75" fill="#683ead"/><polygon points="55.5,388.5 55.5,416.25 27.75,416.25" fill="#c09ec1"/><rect x="0" y="416.25" width="27.75" height="27.75" fill="#f4c6c6"/><polygon points="27.75,416.25 27.75,444 0,444" fill="#653aac"/><rect x="27.75" y="416.25" width="27.75" height="27.75" fill="#f670a3"/><polygon points="27.75,416.25 55.5,444 27.75,444" fill="#f668a0"/><rect x="55.5" y="388.5" width="55.5" height="55.5" fill="#F4D6CC"/><rect x="55.5" y="388.5" width="27.75" height="27.75" fill="#f679a7"/><polygon points="55.5,388.5 83.25,416.25 55.5,416.25" fill="#f4d6cc"/><rect x="83.25" y="388.5" width="27.75" height="27.75" fill="#f6599a"/><polygon points="83.25,388.5 111,416.25 83.25,416.25" fill="#f64993"/><rect x="55.5" y="416.25" width="27.75" height="27.75" fill="#b18dbd"/><polygon points="83.25,416.25 83.25,444 55.5,444" fill="#f59ab4"/><rect x="83.25" y="416.25" width="27.75" height="27.75" fill="#a883bb"/><polygon points="83.25,416.25 111,444 83.25,444" fill="#6d43ae"/><rect x="111" y="388.5" width="55.5" height="55.5" fill="#F4D6CC"/><rect x="111" y="388.5" width="27.75" height="27.75" fill="#e0c0c8"/><polygon points="111,388.5 138.75,388.5 111,416.25" fill="#f58aad"/><rect x="138.75" y="388.5" width="27.75" height="27.75" fill="#f591b0"/><polygon points="138.75,388.5 166.5,388.5 166.5,416.25" fill="#f66da2"/><rect x="111" y="416.25" width="27.75" height="27.75" fill="#f73d8f"/><polygon points="138.75,416.25 138.75,444 111,444" fill="#f4c9c7"/><rect x="138.75" y="416.25" width="27.75" height="27.75" fill="#f3d4cc"/><polygon points="138.75,416.25 166.5,416.25 138.75,444" fill="#8962b5"/><rect x="166.5" y="388.5" width="55.5" height="55.5" fill="#F4D6CC"/><rect x="166.5" y="388.5" width="27.75" height="27.75" fill="#dab9c6"/><polygon points="166.5,388.5 194.25,388.5 194.25,416.25" fill="#d2b1c5"/><rect x="194.25" y="388.5" width="27.75" height="27.75" fill="#f4d3cb"/><polygon points="194.25,388.5 222,388.5 194.25,416.25" fill="#f73f90"/><rect x="166.5" y="416.25" width="27.75" height="27.75" fill="#916bb6"/><polygon points="166.5,416.25 194.25,444 166.5,444" fill="#a985bc"/><rect x="194.25" y="416.25" width="27.75" height="27.75" fill="#f7348b"/><polygon points="194.25,416.25 222,416.25 222,444" fill="#b692be"/><rect x="222" y="388.5" width="55.5" height="55.5" fill="#f4c8c6"/><polygon points="222,388.5 277.5,388.5 277.5,444" fill="#f598b3"/><rect x="277.5" y="388.5" width="55.5" height="55.5" fill="#F4D6CC"/><rect x="277.5" y="388.5" width="27.75" height="27.75" fill="#f5b7bf"/><polygon points="305.25,388.5 305.25,416.25 277.5,416.25" fill="#c6a4c2"/><rect x="305.25" y="388.5" width="27.75" height="27.75" fill="#5b30aa"/><polygon points="305.25,388.5 333,388.5 305.25,416.25" fill="#4d20a7"/><rect x="277.5" y="416.25" width="27.75" height="27.75" fill="#c4a2c1"/><polygon points="277.5,416.25 305.25,416.25 305.25,444" fill="#dbbbc6"/><rect x="305.25" y="416.25" width="27.75" height="27.75" fill="#f64f96"/><polygon points="305.25,416.25 333,416.25 333,444" fill="#f5acbb"/><rect x="333" y="388.5" width="55.5" height="55.5" fill="#F4D6CC"/><rect x="333" y="388.5" width="27.75" height="27.75" fill="#f677a6"/><polygon points="333,388.5 360.75,388.5 333,416.25" fill="#cbaac3"/><rect x="360.75" y="388.5" width="27.75" height="27.75" fill="#f72e88"/><polygon points="360.75,388.5 388.5,388.5 388.5,416.25" fill="#a783bb"/><rect x="333" y="416.25" width="27.75" height="27.75" fill="#f589ad"/><polygon points="333,416.25 360.75,444 333,444" fill="#f672a4"/><rect x="360.75" y="416.25" width="27.75" height="27.75" fill="#f672a4"/><polygon points="360.75,416.25 388.5,444 360.75,444" fill="#f674a5"/><rect x="388.5" y="388.5" width="55.5" height="55.5" fill="#F4D6CC"/><rect x="388.5" y="388.5" width="27.75" height="27.75" fill="#f66fa3"/><polygon points="416.25,388.5 416.25,416.25 388.5,416.25" fill="#b18dbd"/><rect x="416.25" y="388.5" width="27.75" height="27.75" fill="#f4bdc2"/><polygon points="416.25,388.5 444,388.5 416.25,416.25" fill="#f5b6bf"/><rect x="388.5" y="416.25" width="27.75" height="27.75" fill="#f6609d"/><polygon points="388.5,416.25 416.25,416.25 388.5,444" fill="#eacbca"/><rect x="416.25" y="416.25" width="27.75" height="27.75" fill="#f588ad"/><polygon points="416.25,416.25 444,416.25 416.25,444" fill="#f5a2b7"/><rect x="444" y="388.5" width="55.5" height="55.5" fill="#F4D6CC"/><rect x="444" y="388.5" width="27.75" height="27.75" fill="#f64a94"/><polygon points="444,388.5 471.75,388.5 471.75,416.25" fill="#f72686"/><rect x="471.75" y="388.5" width="27.75" height="27.75" fill="#673dad"/><polygon points="499.5,388.5 499.5,416.25 471.75,416.25" fill="#e6c7c9"/><rect x="444" y="416.25" width="27.75" height="27.75" fill="#7b52b1"/><polygon points="444,416.25 471.75,416.25 471.75,444" fill="#8058b2"/><rect x="471.75" y="416.25" width="27.75" height="27.75" fill="#f5afbc"/><polygon points="471.75,416.25 499.5,416.25 499.5,444" fill="#f58cae"/><rect x="499.5" y="388.5" width="55.5" height="55.5" fill="#aa86bc"/><polygon points="499.5,388.5 555,388.5 555,444" fill="#d4b3c5"/><rect x="555" y="388.5" width="55.5" height="55.5" fill="#F4D6CC"/><rect x="555" y="388.5" width="27.75" height="27.75" fill="#f4bac1"/><polygon points="582.75,388.5 582.75,416.25 555,416.25" fill="#e4c5c8"/><rect x="582.75" y="388.5" width="27.75" height="27.75" fill="#f64692"/><polygon points="610.5,388.5 610.5,416.25 582.75,416.25" fill="#f58fb0"/><rect x="555" y="416.25" width="27.75" height="27.75" fill="#f65899"/><polygon points="555,416.25 582.75,416.25 555,444" fill="#f65699"/><rect x="582.75" y="416.25" width="27.75" height="27.75" fill="#f670a3"/><polygon points="610.5,416.25 610.5,444 582.75,444" fill="#edceca"/><rect x="610.5" y="388.5" width="55.5" height="55.5" fill="#dfbfc7"/><polygon points="610.5,388.5 666,444 610.5,444" fill="#dbbbc7"/><rect x="666" y="388.5" width="55.5" height="55.5" fill="#F4D6CC"/><rect x="666" y="388.5" width="27.75" height="27.75" fill="#f5a9ba"/><polygon points="666,388.5 693.75,416.25 666,416.25" fill="#f58daf"/><rect x="693.75" y="388.5" width="27.75" height="27.75" fill="#f5afbc"/><polygon points="693.75,388.5 721.5,388.5 693.75,416.25" fill="#f72786"/><rect x="666" y="416.25" width="27.75" height="27.75" fill="#8e68b6"/><polygon points="666,416.25 693.75,416.25 693.75,444" fill="#f57fa9"/><rect x="693.75" y="416.25" width="27.75" height="27.75" fill="#f4c9c7"/><polygon points="721.5,416.25 721.5,444 693.75,444" fill="#5327a8"/><rect x="721.5" y="388.5" width="55.5" height="55.5" fill="#8a63b5"/><polygon points="721.5,388.5 777,444 721.5,444" fill="#3b0da3"/><rect x="777" y="388.5" width="55.5" height="55.5" fill="#f58cae"/><polygon points="777,388.5 832.5,388.5 832.5,444" fill="#f668a0"/><rect x="832.5" y="388.5" width="55.5" height="55.5" fill="#7b53b1"/><polygon points="832.5,388.5 888,444 832.5,444" fill="#f59bb4"/><rect x="888" y="388.5" width="55.5" height="55.5" fill="#F4D6CC"/><rect x="888" y="388.5" width="27.75" height="27.75" fill="#e0c0c8"/><polygon points="888,388.5 915.75,388.5 915.75,416.25" fill="#f57ea9"/><rect x="915.75" y="388.5" width="27.75" height="27.75" fill="#6339ac"/><polygon points="915.75,388.5 943.5,416.25 915.75,416.25" fill="#f4bdc2"/><rect x="888" y="416.25" width="27.75" height="27.75" fill="#693fad"/><polygon points="888,416.25 915.75,444 888,444" fill="#eed0cb"/><rect x="915.75" y="416.25" width="27.75" height="27.75" fill="#f4c1c4"/><polygon points="915.75,416.25 943.5,444 915.75,444" fill="#f73e8f"/><rect x="943.5" y="388.5" width="55.5" height="55.5" fill="#F4D6CC"/><rect x="943.5" y="388.5" width="27.75" height="27.75" fill="#f65e9c"/><polygon points="943.5,388.5 971.25,416.25 943.5,416.25" fill="#ebccca"/><rect x="971.25" y="388.5" width="27.75" height="27.75" fill="#5024a8"/><polygon points="971.25,388.5 999,388.5 999,416.25" fill="#4012a4"/><rect x="943.5" y="416.25" width="27.75" height="27.75" fill="#6a40ad"/><polygon points="943.5,416.25 971.25,416.25 971.25,444" fill="#f58fb0"/><rect x="971.25" y="416.25" width="27.75" height="27.75" fill="#f64391"/><polygon points="999,416.25 999,444 971.25,444" fill="#b18dbd"/><rect x="999" y="388.5" width="55.5" height="55.5" fill="#f5b6bf"/><polygon points="999,388.5 1054.5,388.5 1054.5,444" fill="#936db7"/><rect x="1054.5" y="388.5" width="55.5" height="55.5" fill="#F4D6CC"/><rect x="1054.5" y="388.5" width="27.75" height="27.75" fill="#f5b1bd"/><polygon points="1054.5,388.5 1082.25,388.5 1082.25,416.25" fill="#5c31ab"/><rect x="1082.25" y="388.5" width="27.75" height="27.75" fill="#f58eaf"/><polygon points="1110,388.5 1110,416.25 1082.25,416.25" fill="#936cb7"/><rect x="1054.5" y="416.25" width="27.75" height="27.75" fill="#f673a4"/><polygon points="1082.25,416.25 1082.25,444 1054.5,444" fill="#4417a5"/><rect x="1082.25" y="416.25" width="27.75" height="27.75" fill="#f58eaf"/><polygon points="1082.25,416.25 1110,416.25 1110,444" fill="#f4c1c4"/><rect x="0" y="444" width="55.5" height="55.5" fill="#F4D6CC"/><rect x="0" y="444" width="27.75" height="27.75" fill="#f65096"/><polygon points="0,444 27.75,444 0,471.75" fill="#5d33ab"/><rect x="27.75" y="444" width="27.75" height="27.75" fill="#d0afc4"/><polygon points="27.75,444 55.5,444 27.75,471.75" fill="#4a1ea7"/><rect x="0" y="471.75" width="27.75" height="27.75" fill="#f58cae"/><polygon points="0,471.75 27.75,471.75 0,499.5" fill="#663cad"/><rect x="27.75" y="471.75" width="27.75" height="27.75" fill="#bf9cc0"/><polygon points="27.75,471.75 55.5,499.5 27.75,499.5" fill="#f5b0bd"/><rect x="55.5" y="444" width="55.5" height="55.5" fill="#F4D6CC"/><rect x="55.5" y="444" width="27.75" height="27.75" fill="#7a52b1"/><polygon points="55.5,444 83.25,444 83.25,471.75" fill="#f674a5"/><rect x="83.25" y="444" width="27.75" height="27.75" fill="#825ab3"/><polygon points="83.25,444 111,444 111,471.75" fill="#f64993"/><rect x="55.5" y="471.75" width="27.75" height="27.75" fill="#aa86bc"/><polygon points="55.5,471.75 83.25,471.75 83.25,499.5" fill="#ccaac3"/><rect x="83.25" y="471.75" width="27.75" height="27.75" fill="#cdacc3"/><polygon points="83.25,471.75 111,499.5 83.25,499.5" fill="#a07bba"/><rect x="111" y="444" width="55.5" height="55.5" fill="#f590b0"/><polygon points="111,444 166.5,444 111,499.5" fill="#8962b4"/><rect x="166.5" y="444" width="55.5" height="55.5" fill="#dbbbc6"/><polygon points="166.5,444 222,444 166.5,499.5" fill="#f586ac"/><rect x="222" y="444" width="55.5" height="55.5" fill="#f582aa"/><polygon points="222,444 277.5,444 277.5,499.5" fill="#f65d9c"/><rect x="277.5" y="444" width="55.5" height="55.5" fill="#4b1ea7"/><polygon points="277.5,444 333,499.5 277.5,499.5" fill="#9973b8"/><rect x="333" y="444" width="55.5" height="55.5" fill="#f5b5bf"/><polygon points="333,444 388.5,444 333,499.5" fill="#d7b7c6"/><rect x="388.5" y="444" width="55.5" height="55.5" fill="#F4D6CC"/><rect x="388.5" y="444" width="27.75" height="27.75" fill="#f64a94"/><polygon points="416.25,444 416.25,471.75 388.5,471.75" fill="#8a63b5"/><rect x="416.25" y="444" width="27.75" height="27.75" fill="#e7c8c9"/><polygon points="416.25,444 444,471.75 416.25,471.75" fill="#673cad"/><rect x="388.5" y="471.75" width="27.75" height="27.75" fill="#e4c5c8"/><polygon points="416.25,471.75 416.25,499.5 388.5,499.5" fill="#f673a4"/><rect x="416.25" y="471.75" width="27.75" height="27.75" fill="#f0d2cb"/><polygon points="444,471.75 444,499.5 416.25,499.5" fill="#f5b8c0"/><rect x="444" y="444" width="55.5" height="55.5" fill="#F4D6CC"/><rect x="444" y="444" width="27.75" height="27.75" fill="#f64c94"/><polygon points="444,444 471.75,444 444,471.75" fill="#592eaa"/><rect x="471.75" y="444" width="27.75" height="27.75" fill="#f4c2c4"/><polygon points="471.75,444 499.5,444 499.5,471.75" fill="#855db3"/><rect x="444" y="471.75" width="27.75" height="27.75" fill="#6439ac"/><polygon points="444,471.75 471.75,471.75 444,499.5" fill="#875fb4"/><rect x="471.75" y="471.75" width="27.75" height="27.75" fill="#dabac6"/><polygon points="499.5,471.75 499.5,499.5 471.75,499.5" fill="#7248af"/><rect x="499.5" y="444" width="55.5" height="55.5" fill="#F4D6CC"/><rect x="499.5" y="444" width="27.75" height="27.75" fill="#6339ac"/><polygon points="527.25,444 527.25,471.75 499.5,471.75" fill="#f72f89"/><rect x="527.25" y="444" width="27.75" height="27.75" fill="#5327a8"/><polygon points="555,444 555,471.75 527.25,471.75" fill="#f73c8e"/><rect x="499.5" y="471.75" width="27.75" height="27.75" fill="#af8bbd"/><polygon points="527.25,471.75 527.25,499.5 499.5,499.5" fill="#af8bbd"/><rect x="527.25" y="471.75" width="27.75" height="27.75" fill="#f4c7c6"/><polygon points="527.25,471.75 555,499.5 527.25,499.5" fill="#8861b4"/><rect x="555" y="444" width="55.5" height="55.5" fill="#F4D6CC"/><rect x="555" y="444" width="27.75" height="27.75" fill="#f5b0bd"/><polygon points="555,444 582.75,444 555,471.75" fill="#f7368c"/><rect x="582.75" y="444" width="27.75" height="27.75" fill="#9c77b9"/><polygon points="582.75,444 610.5,471.75 582.75,471.75" fill="#4a1ea7"/><rect x="555" y="471.75" width="27.75" height="27.75" fill="#f5a3b8"/><polygon points="582.75,471.75 582.75,499.5 555,499.5" fill="#f4bac1"/><rect x="582.75" y="471.75" width="27.75" height="27.75" fill="#663cad"/><polygon points="582.75,471.75 610.5,471.75 582.75,499.5" fill="#6036ab"/><rect x="610.5" y="444" width="55.5" height="55.5" fill="#F4D6CC"/><rect x="610.5" y="444" width="27.75" height="27.75" fill="#f5b2bd"/><polygon points="638.25,444 638.25,471.75 610.5,471.75" fill="#b592be"/><rect x="638.25" y="444" width="27.75" height="27.75" fill="#ccabc3"/><polygon points="638.25,444 666,444 638.25,471.75" fill="#bf9dc0"/><rect x="610.5" y="471.75" width="27.75" height="27.75" fill="#744bb0"/><polygon points="610.5,471.75 638.25,471.75 638.25,499.5" fill="#cfadc4"/><rect x="638.25" y="471.75" width="27.75" height="27.75" fill="#5125a8"/><polygon points="666,471.75 666,499.5 638.25,499.5" fill="#f5a5b8"/><rect x="666" y="444" width="55.5" height="55.5" fill="#a682bb"/><polygon points="721.5,444 721.5,499.5 666,499.5" fill="#f7338a"/><rect x="721.5" y="444" width="55.5" height="55.5" fill="#F4D6CC"/><rect x="721.5" y="444" width="27.75" height="27.75" fill="#f4cdc9"/><polygon points="721.5,444 749.25,444 749.25,471.75" fill="#7148af"/><rect x="749.25" y="444" width="27.75" height="27.75" fill="#f72a87"/><polygon points="749.25,444 777,444 777,471.75" fill="#e0c0c7"/><rect x="721.5" y="471.75" width="27.75" height="27.75" fill="#f584ab"/><polygon points="721.5,471.75 749.25,471.75 749.25,499.5" fill="#bc9ac0"/><rect x="749.25" y="471.75" width="27.75" height="27.75" fill="#edceca"/><polygon points="749.25,471.75 777,499.5 749.25,499.5" fill="#f4c7c6"/><rect x="777" y="444" width="55.5" height="55.5" fill="#F4D6CC"/><rect x="777" y="444" width="27.75" height="27.75" fill="#edceca"/><polygon points="804.75,444 804.75,471.75 777,471.75" fill="#f5adbc"/><rect x="804.75" y="444" width="27.75" height="27.75" fill="#b38fbe"/><polygon points="804.75,444 832.5,471.75 804.75,471.75" fill="#bf9cc0"/><rect x="777" y="471.75" width="27.75" height="27.75" fill="#b996bf"/><polygon points="777,471.75 804.75,471.75 777,499.5" fill="#f64d95"/><rect x="804.75" y="471.75" width="27.75" height="27.75" fill="#a27dba"/><polygon points="804.75,471.75 832.5,499.5 804.75,499.5" fill="#e5c6c9"/><rect x="832.5" y="444" width="55.5" height="55.5" fill="#5c31aa"/><polygon points="832.5,444 888,499.5 832.5,499.5" fill="#ddbdc7"/><rect x="888" y="444" width="55.5" height="55.5" fill="#F4D6CC"/><rect x="888" y="444" width="27.75" height="27.75" fill="#825ab3"/><polygon points="888,444 915.75,444 915.75,471.75" fill="#7f57b2"/><rect x="915.75" y="444" width="27.75" height="27.75" fill="#7148af"/><polygon points="915.75,444 943.5,444 943.5,471.75" fill="#f7348b"/><rect x="888" y="471.75" width="27.75" height="27.75" fill="#4f23a8"/><polygon points="915.75,471.75 915.75,499.5 888,499.5" fill="#d2b1c5"/><rect x="915.75" y="471.75" width="27.75" height="27.75" fill="#f66ba1"/><polygon points="943.5,471.75 943.5,499.5 915.75,499.5" fill="#966fb7"/><rect x="943.5" y="444" width="55.5" height="55.5" fill="#f4bbc1"/><polygon points="943.5,444 999,444 943.5,499.5" fill="#f72585"/><rect x="999" y="444" width="55.5" height="55.5" fill="#F4D6CC"/><rect x="999" y="444" width="27.75" height="27.75" fill="#f57ea9"/><polygon points="999,444 1026.75,444 1026.75,471.75" fill="#f6659f"/><rect x="1026.75" y="444" width="27.75" height="27.75" fill="#f64a94"/><polygon points="1054.5,444 1054.5,471.75 1026.75,471.75" fill="#e8c8c9"/><rect x="999" y="471.75" width="27.75" height="27.75" fill="#936cb7"/><polygon points="999,471.75 1026.75,471.75 999,499.5" fill="#f584ab"/><rect x="1026.75" y="471.75" width="27.75" height="27.75" fill="#f64993"/><polygon points="1026.75,471.75 1054.5,499.5 1026.75,499.5" fill="#f4bcc2"/><rect x="1054.5" y="444" width="55.5" height="55.5" fill="#F4D6CC"/><rect x="1054.5" y="444" width="27.75" height="27.75" fill="#f59cb5"/><polygon points="1054.5,444 1082.25,444 1054.5,471.75" fill="#f6639e"/><rect x="1082.25" y="444" width="27.75" height="27.75" fill="#c2a0c1"/><polygon points="1110,444 1110,471.75 1082.25,471.75" fill="#a884bb"/><rect x="1054.5" y="471.75" width="27.75" height="27.75" fill="#d5b5c5"/><polygon points="1082.25,471.75 1082.25,499.5 1054.5,499.5" fill="#f5a2b7"/><rect x="1082.25" y="471.75" width="27.75" height="27.75" fill="#b996bf"/><polygon points="1082.25,471.75 1110,471.75 1110,499.5" fill="#6036ab"/></g></svg>